<svg width="2537" height="637" viewBox="0 0 2537 637" fill="none" xmlns="http://www.w3.org/2000/svg">
<path d="M1059.71 254.782H988.555V303.298H1053.95V340.704H988.555V418.751H943.133V217.095H1059.71V254.782ZM1085.87 418.751V205.564H1130.3V418.751H1085.87ZM1301.73 418.611H1257.29V400.329H1256.73C1252.23 406.892 1245.9 412.189 1237.74 416.22C1229.68 420.157 1221.57 422.126 1213.41 422.126C1196.73 422.126 1184.07 417.064 1175.45 406.939C1166.91 396.814 1162.65 382.517 1162.65 364.048V274.611H1206.95V357.298C1206.95 366.486 1208.91 373.845 1212.85 379.376C1216.79 384.814 1222.65 387.532 1230.43 387.532C1238.21 387.532 1244.63 384.626 1249.7 378.814C1254.76 373.001 1257.29 365.642 1257.29 356.736V274.611H1301.73V418.611ZM1465.84 359.407H1371.9C1372.55 368.689 1375.74 376.095 1381.46 381.626C1387.27 387.064 1394.87 389.782 1404.24 389.782C1409.96 389.782 1415.16 388.376 1419.85 385.564C1424.63 382.751 1428.9 378.532 1432.65 372.907L1465.27 391.47C1457.02 402.157 1447.79 409.986 1437.57 414.954C1427.35 419.829 1416.01 422.267 1403.54 422.267C1379.73 422.267 1361.16 415.845 1347.85 403.001C1334.54 390.064 1327.88 372.064 1327.88 349.001C1327.88 325.095 1334.82 306.157 1348.7 292.189C1362.57 278.22 1379.63 271.236 1399.88 271.236C1420.88 271.236 1437.1 277.47 1448.54 289.939C1460.07 302.407 1465.84 321.157 1465.84 346.189V359.407ZM1424.63 331.282C1424.63 321.439 1422.52 314.079 1418.3 309.204C1414.18 304.236 1408.6 301.751 1401.57 301.751C1393.13 301.751 1386.29 304.564 1381.04 310.189C1375.88 315.814 1372.74 322.845 1371.62 331.282H1424.63ZM1632.2 418.751H1587.9V336.064C1587.9 326.876 1585.93 319.564 1581.99 314.126C1578.05 308.595 1572.2 305.829 1564.41 305.829C1556.63 305.829 1550.21 308.736 1545.15 314.548C1540.09 320.361 1537.55 327.72 1537.55 336.626V418.751H1493.12V274.751H1537.55V293.032H1538.12C1542.8 286.47 1549.32 281.22 1557.66 277.282C1566.01 273.251 1574.4 271.236 1582.84 271.236C1599.05 271.236 1611.34 276.298 1619.68 286.423C1628.02 296.548 1632.2 310.845 1632.2 329.314V418.751ZM1794.2 385.423C1787.73 397.517 1778.91 406.704 1767.76 412.986C1756.7 419.173 1743.99 422.267 1729.65 422.267C1706.59 422.267 1688.54 415.657 1675.51 402.439C1662.57 389.126 1656.1 371.736 1656.1 350.267C1656.1 325.798 1663.27 306.532 1677.62 292.47C1691.96 278.407 1710.62 271.376 1733.59 271.376C1747.74 271.376 1760.21 274.704 1770.99 281.361C1781.77 287.923 1789.04 297.532 1792.79 310.189L1756.79 323.548C1753.98 317.454 1750.55 313.001 1746.52 310.189C1742.59 307.282 1737.71 305.829 1731.9 305.829C1723.18 305.829 1715.87 309.204 1709.96 315.954C1704.15 322.611 1701.24 333.064 1701.24 347.314C1701.24 360.814 1704.01 370.704 1709.54 376.986C1715.07 383.267 1722.1 386.407 1730.63 386.407C1737.1 386.407 1742.54 385.048 1746.95 382.329C1751.45 379.517 1755.57 375.064 1759.32 368.97L1794.2 385.423ZM1949.87 359.407H1855.93C1856.59 368.689 1859.77 376.095 1865.49 381.626C1871.3 387.064 1878.9 389.782 1888.27 389.782C1893.99 389.782 1899.2 388.376 1903.88 385.564C1908.66 382.751 1912.93 378.532 1916.68 372.907L1949.3 391.47C1941.05 402.157 1931.82 409.986 1921.6 414.954C1911.38 419.829 1900.04 422.267 1887.57 422.267C1863.76 422.267 1845.2 415.845 1831.88 403.001C1818.57 390.064 1811.91 372.064 1811.91 349.001C1811.91 325.095 1818.85 306.157 1832.73 292.189C1846.6 278.22 1863.66 271.236 1883.91 271.236C1904.91 271.236 1921.13 277.47 1932.57 289.939C1944.1 302.407 1949.87 321.157 1949.87 346.189V359.407ZM1908.66 331.282C1908.66 321.439 1906.55 314.079 1902.34 309.204C1898.21 304.236 1892.63 301.751 1885.6 301.751C1877.16 301.751 1870.32 304.564 1865.07 310.189C1859.91 315.814 1856.77 322.845 1855.65 331.282H1908.66Z" fill="#1B1B1B"/>
<path d="M1986.92 421.315C1981.59 421.315 1977.15 419.469 1973.59 415.778C1970.04 412.086 1968.26 407.574 1968.26 402.242C1968.26 396.637 1970.07 392.057 1973.69 388.502C1977.39 384.948 1981.97 383.17 1987.43 383.17C1992.97 383.17 1997.48 384.982 2000.97 388.605C2004.52 392.159 2006.3 396.705 2006.3 402.242C2006.3 407.848 2004.49 412.428 2000.87 415.983C1997.31 419.537 1992.66 421.315 1986.92 421.315Z" fill="#6B6B6B"/>
<path d="M2223.79 271.71L2185.75 418.751H2148.22L2123.81 326.261C2123.2 324.005 2122.72 322.125 2122.38 320.621C2122.1 319.049 2121.76 317.067 2121.35 314.674H2120.94C2120.53 317.067 2120.12 319.083 2119.71 320.724C2119.37 322.296 2118.92 324.142 2118.38 326.261L2093.36 418.751H2054.29L2016.45 271.71H2052.14L2073.36 367.994C2073.77 369.977 2074.11 371.686 2074.39 373.121C2074.66 374.489 2075.04 376.71 2075.52 379.786H2076.13C2076.68 376.71 2077.09 374.557 2077.36 373.326C2077.63 372.096 2078.15 370.182 2078.9 367.584L2105.56 271.71H2141.04L2165.13 368.815C2165.61 370.797 2165.99 372.438 2166.26 373.737C2166.54 374.967 2166.95 376.915 2167.49 379.581H2167.9C2168.38 376.779 2168.72 374.796 2168.93 373.634C2169.13 372.404 2169.51 370.592 2170.06 368.199L2190.77 271.71H2223.79ZM2274.34 370.865V418.751H2241.22V271.71H2292.39C2310.71 271.71 2324.65 275.709 2334.22 283.707C2343.86 291.705 2348.68 303.531 2348.68 319.186C2348.68 335.455 2343.28 348.136 2332.48 357.228C2321.75 366.32 2307.32 370.865 2289.21 370.865H2274.34ZM2274.34 297.14V345.436H2288.18C2296.38 345.436 2302.71 343.282 2307.15 338.976C2311.59 334.669 2313.82 328.483 2313.82 320.416C2313.82 312.965 2311.63 307.223 2307.25 303.19C2302.95 299.156 2296.76 297.14 2288.69 297.14H2274.34ZM2453.17 299.191H2401.28V334.567H2448.96V361.842H2401.28V418.751H2368.16V271.71H2453.17V299.191Z" fill="#2671BE"/>
<g filter="url(#filter0_dd_144_337)">
<path d="M149.961 129.279L63.6272 225.163C45.7468 245.021 47.3501 275.614 67.2083 293.494L314.907 516.523C334.765 534.404 365.359 532.8 383.239 512.942L469.573 417.059C487.453 397.201 485.85 366.608 465.992 348.727L218.293 125.698C198.434 107.818 167.841 109.421 149.961 129.279Z" fill="url(#paint0_linear_144_337)" shape-rendering="crispEdges"/>
<path d="M149.961 129.279L63.6272 225.163C45.7468 245.021 47.3501 275.614 67.2083 293.494L314.907 516.523C334.765 534.404 365.359 532.8 383.239 512.942L469.573 417.059C487.453 397.201 485.85 366.608 465.992 348.727L218.293 125.698C198.434 107.818 167.841 109.421 149.961 129.279Z" stroke="white" stroke-opacity="0.9" stroke-width="6.4" stroke-linejoin="round" shape-rendering="crispEdges"/>
</g>
<g filter="url(#filter1_dd_144_337)">
<path d="M256.646 63.2002L147.228 131.573C124.566 145.733 117.675 175.583 131.835 198.244L308.464 480.909C322.624 503.57 352.474 510.461 375.135 496.301L484.554 427.929C507.215 413.768 514.107 383.919 499.946 361.257L323.318 78.5926C309.158 55.9313 279.308 49.0399 256.646 63.2002Z" fill="url(#paint1_linear_144_337)" shape-rendering="crispEdges"/>
<path d="M256.646 63.2002L147.228 131.573C124.566 145.733 117.675 175.583 131.835 198.244L308.464 480.909C322.624 503.57 352.474 510.461 375.135 496.301L484.554 427.929C507.215 413.768 514.107 383.919 499.946 361.257L323.318 78.5926C309.158 55.9313 279.308 49.0399 256.646 63.2002Z" stroke="white" stroke-opacity="0.9" stroke-width="6.4" stroke-linejoin="round" shape-rendering="crispEdges"/>
</g>
<g filter="url(#filter2_dd_144_337)">
<path d="M377.412 29.0876L253.387 64.6515C227.7 72.017 212.848 98.811 220.213 124.498L312.087 444.898C319.452 470.584 346.246 485.436 371.933 478.071L495.959 442.507C521.645 435.142 536.497 408.348 529.132 382.661L437.259 62.2609C429.893 36.5743 403.099 21.7221 377.412 29.0876Z" fill="url(#paint2_linear_144_337)" shape-rendering="crispEdges"/>
<path d="M377.412 29.0876L253.387 64.6515C227.7 72.017 212.848 98.811 220.213 124.498L312.087 444.898C319.452 470.584 346.246 485.436 371.933 478.071L495.959 442.507C521.645 435.142 536.497 408.348 529.132 382.661L437.259 62.2609C429.893 36.5743 403.099 21.7221 377.412 29.0876Z" stroke="white" stroke-opacity="0.9" stroke-width="6.4" stroke-linejoin="round" shape-rendering="crispEdges"/>
</g>
<g filter="url(#filter3_dd_144_337)">
<path d="M502.903 29.5842H373.879C347.157 29.5842 325.495 51.2465 325.495 77.9682V411.28C325.495 438.002 347.157 459.664 373.879 459.664H502.903C529.625 459.664 551.287 438.002 551.287 411.28V77.9682C551.287 51.2465 529.625 29.5842 502.903 29.5842Z" fill="url(#paint3_linear_144_337)" shape-rendering="crispEdges"/>
<path d="M502.903 29.5842H373.879C347.157 29.5842 325.495 51.2465 325.495 77.9682V411.28C325.495 438.002 347.157 459.664 373.879 459.664H502.903C529.625 459.664 551.287 438.002 551.287 411.28V77.9682C551.287 51.2465 529.625 29.5842 502.903 29.5842Z" stroke="white" stroke-opacity="0.9" stroke-width="6.4" stroke-linejoin="round" shape-rendering="crispEdges"/>
</g>
<g filter="url(#filter4_dd_144_337)">
<path d="M623.395 64.6515L499.37 29.0877C473.683 21.7221 446.889 36.5743 439.523 62.2609L347.65 382.661C340.285 408.348 355.137 435.142 380.823 442.507L504.849 478.071C530.536 485.436 557.33 470.584 564.695 444.898L656.569 124.498C663.934 98.811 649.082 72.017 623.395 64.6515Z" fill="url(#paint4_linear_144_337)" shape-rendering="crispEdges"/>
<path d="M623.395 64.6515L499.37 29.0877C473.683 21.7221 446.889 36.5743 439.523 62.2609L347.65 382.661C340.285 408.348 355.137 435.142 380.823 442.507L504.849 478.071C530.536 485.436 557.33 470.584 564.695 444.898L656.569 124.498C663.934 98.811 649.082 72.017 623.395 64.6515Z" stroke="white" stroke-opacity="0.9" stroke-width="6.4" stroke-linejoin="round" shape-rendering="crispEdges"/>
</g>
<g filter="url(#filter5_dd_144_337)">
<path d="M729.555 131.573L620.136 63.2003C597.475 49.0399 567.625 55.9313 553.464 78.5926L376.836 361.257C362.676 383.919 369.567 413.768 392.228 427.929L501.647 496.301C524.308 510.461 554.158 503.57 568.318 480.909L744.947 198.244C759.107 175.583 752.216 145.733 729.555 131.573Z" fill="url(#paint5_linear_144_337)" shape-rendering="crispEdges"/>
<path d="M729.555 131.573L620.136 63.2003C597.475 49.0399 567.625 55.9313 553.464 78.5926L376.836 361.257C362.676 383.919 369.567 413.768 392.228 427.929L501.647 496.301C524.308 510.461 554.158 503.57 568.318 480.909L744.947 198.244C759.107 175.583 752.216 145.733 729.555 131.573Z" stroke="white" stroke-opacity="0.9" stroke-width="6.4" stroke-linejoin="round" shape-rendering="crispEdges"/>
</g>
<g filter="url(#filter6_dd_144_337)">
<path d="M813.155 225.162L726.822 129.279C708.941 109.421 678.348 107.818 658.49 125.698L410.791 348.727C390.933 366.607 389.329 397.201 407.21 417.059L493.544 512.942C511.424 532.8 542.017 534.404 561.875 516.523L809.574 293.494C829.432 275.614 831.036 245.021 813.155 225.162Z" fill="url(#paint6_linear_144_337)" shape-rendering="crispEdges"/>
<path d="M813.155 225.162L726.822 129.279C708.941 109.421 678.348 107.818 658.49 125.698L410.791 348.727C390.933 366.607 389.329 397.201 407.21 417.059L493.544 512.942C511.424 532.8 542.017 534.404 561.875 516.523L809.574 293.494C829.432 275.614 831.036 245.021 813.155 225.162Z" stroke="white" stroke-opacity="0.9" stroke-width="6.4" stroke-linejoin="round" shape-rendering="crispEdges"/>
</g>
<defs>
<filter id="filter0_dd_144_337" x="0" y="86.0698" width="533.201" height="550.082" filterUnits="userSpaceOnUse" color-interpolation-filters="sRGB">
<feFlood flood-opacity="0" result="BackgroundImageFix"/>
<feColorMatrix in="SourceAlpha" type="matrix" values="0 0 0 0 0 0 0 0 0 0 0 0 0 0 0 0 0 0 127 0" result="hardAlpha"/>
<feMorphology radius="24" operator="dilate" in="SourceAlpha" result="effect1_dropShadow_144_337"/>
<feOffset dy="56"/>
<feGaussianBlur stdDeviation="12"/>
<feComposite in2="hardAlpha" operator="out"/>
<feColorMatrix type="matrix" values="0 0 0 0 0 0 0 0 0 0 0 0 0 0 0 0 0 0 0.15 0"/>
<feBlend mode="normal" in2="BackgroundImageFix" result="effect1_dropShadow_144_337"/>
<feColorMatrix in="SourceAlpha" type="matrix" values="0 0 0 0 0 0 0 0 0 0 0 0 0 0 0 0 0 0 127 0" result="hardAlpha"/>
<feMorphology radius="16" operator="dilate" in="SourceAlpha" result="effect2_dropShadow_144_337"/>
<feOffset dx="-3.2" dy="16"/>
<feGaussianBlur stdDeviation="12"/>
<feComposite in2="hardAlpha" operator="out"/>
<feColorMatrix type="matrix" values="0 0 0 0 0 0 0 0 0 0 0 0 0 0 0 0 0 0 0.1 0"/>
<feBlend mode="normal" in2="effect1_dropShadow_144_337" result="effect2_dropShadow_144_337"/>
<feBlend mode="normal" in="SourceGraphic" in2="effect2_dropShadow_144_337" result="shape"/>
</filter>
<filter id="filter1_dd_144_337" x="73.2754" y="28.6414" width="485.229" height="582.219" filterUnits="userSpaceOnUse" color-interpolation-filters="sRGB">
<feFlood flood-opacity="0" result="BackgroundImageFix"/>
<feColorMatrix in="SourceAlpha" type="matrix" values="0 0 0 0 0 0 0 0 0 0 0 0 0 0 0 0 0 0 127 0" result="hardAlpha"/>
<feMorphology radius="24" operator="dilate" in="SourceAlpha" result="effect1_dropShadow_144_337"/>
<feOffset dy="56"/>
<feGaussianBlur stdDeviation="12"/>
<feComposite in2="hardAlpha" operator="out"/>
<feColorMatrix type="matrix" values="0 0 0 0 0 0 0 0 0 0 0 0 0 0 0 0 0 0 0.15 0"/>
<feBlend mode="normal" in2="BackgroundImageFix" result="effect1_dropShadow_144_337"/>
<feColorMatrix in="SourceAlpha" type="matrix" values="0 0 0 0 0 0 0 0 0 0 0 0 0 0 0 0 0 0 127 0" result="hardAlpha"/>
<feMorphology radius="16" operator="dilate" in="SourceAlpha" result="effect2_dropShadow_144_337"/>
<feOffset dx="-3.2" dy="16"/>
<feGaussianBlur stdDeviation="12"/>
<feComposite in2="hardAlpha" operator="out"/>
<feColorMatrix type="matrix" values="0 0 0 0 0 0 0 0 0 0 0 0 0 0 0 0 0 0 0.1 0"/>
<feBlend mode="normal" in2="effect1_dropShadow_144_337" result="effect2_dropShadow_144_337"/>
<feBlend mode="normal" in="SourceGraphic" in2="effect2_dropShadow_144_337" result="shape"/>
</filter>
<filter id="filter2_dd_144_337" x="167.125" y="0.00012207" width="415.094" height="587.158" filterUnits="userSpaceOnUse" color-interpolation-filters="sRGB">
<feFlood flood-opacity="0" result="BackgroundImageFix"/>
<feColorMatrix in="SourceAlpha" type="matrix" values="0 0 0 0 0 0 0 0 0 0 0 0 0 0 0 0 0 0 127 0" result="hardAlpha"/>
<feMorphology radius="24" operator="dilate" in="SourceAlpha" result="effect1_dropShadow_144_337"/>
<feOffset dy="56"/>
<feGaussianBlur stdDeviation="12"/>
<feComposite in2="hardAlpha" operator="out"/>
<feColorMatrix type="matrix" values="0 0 0 0 0 0 0 0 0 0 0 0 0 0 0 0 0 0 0.15 0"/>
<feBlend mode="normal" in2="BackgroundImageFix" result="effect1_dropShadow_144_337"/>
<feColorMatrix in="SourceAlpha" type="matrix" values="0 0 0 0 0 0 0 0 0 0 0 0 0 0 0 0 0 0 127 0" result="hardAlpha"/>
<feMorphology radius="16" operator="dilate" in="SourceAlpha" result="effect2_dropShadow_144_337"/>
<feOffset dx="-3.2" dy="16"/>
<feGaussianBlur stdDeviation="12"/>
<feComposite in2="hardAlpha" operator="out"/>
<feColorMatrix type="matrix" values="0 0 0 0 0 0 0 0 0 0 0 0 0 0 0 0 0 0 0.1 0"/>
<feBlend mode="normal" in2="effect1_dropShadow_144_337" result="effect2_dropShadow_144_337"/>
<feBlend mode="normal" in="SourceGraphic" in2="effect2_dropShadow_144_337" result="shape"/>
</filter>
<filter id="filter3_dd_144_337" x="274.297" y="2.38428" width="328.191" height="564.48" filterUnits="userSpaceOnUse" color-interpolation-filters="sRGB">
<feFlood flood-opacity="0" result="BackgroundImageFix"/>
<feColorMatrix in="SourceAlpha" type="matrix" values="0 0 0 0 0 0 0 0 0 0 0 0 0 0 0 0 0 0 127 0" result="hardAlpha"/>
<feMorphology radius="24" operator="dilate" in="SourceAlpha" result="effect1_dropShadow_144_337"/>
<feOffset dy="56"/>
<feGaussianBlur stdDeviation="12"/>
<feComposite in2="hardAlpha" operator="out"/>
<feColorMatrix type="matrix" values="0 0 0 0 0 0 0 0 0 0 0 0 0 0 0 0 0 0 0.15 0"/>
<feBlend mode="normal" in2="BackgroundImageFix" result="effect1_dropShadow_144_337"/>
<feColorMatrix in="SourceAlpha" type="matrix" values="0 0 0 0 0 0 0 0 0 0 0 0 0 0 0 0 0 0 127 0" result="hardAlpha"/>
<feMorphology radius="16" operator="dilate" in="SourceAlpha" result="effect2_dropShadow_144_337"/>
<feOffset dx="-3.2" dy="16"/>
<feGaussianBlur stdDeviation="12"/>
<feComposite in2="hardAlpha" operator="out"/>
<feColorMatrix type="matrix" values="0 0 0 0 0 0 0 0 0 0 0 0 0 0 0 0 0 0 0.1 0"/>
<feBlend mode="normal" in2="effect1_dropShadow_144_337" result="effect2_dropShadow_144_337"/>
<feBlend mode="normal" in="SourceGraphic" in2="effect2_dropShadow_144_337" result="shape"/>
</filter>
<filter id="filter4_dd_144_337" x="294.562" y="0" width="415.094" height="587.158" filterUnits="userSpaceOnUse" color-interpolation-filters="sRGB">
<feFlood flood-opacity="0" result="BackgroundImageFix"/>
<feColorMatrix in="SourceAlpha" type="matrix" values="0 0 0 0 0 0 0 0 0 0 0 0 0 0 0 0 0 0 127 0" result="hardAlpha"/>
<feMorphology radius="24" operator="dilate" in="SourceAlpha" result="effect1_dropShadow_144_337"/>
<feOffset dy="56"/>
<feGaussianBlur stdDeviation="12"/>
<feComposite in2="hardAlpha" operator="out"/>
<feColorMatrix type="matrix" values="0 0 0 0 0 0 0 0 0 0 0 0 0 0 0 0 0 0 0.15 0"/>
<feBlend mode="normal" in2="BackgroundImageFix" result="effect1_dropShadow_144_337"/>
<feColorMatrix in="SourceAlpha" type="matrix" values="0 0 0 0 0 0 0 0 0 0 0 0 0 0 0 0 0 0 127 0" result="hardAlpha"/>
<feMorphology radius="16" operator="dilate" in="SourceAlpha" result="effect2_dropShadow_144_337"/>
<feOffset dx="-3.2" dy="16"/>
<feGaussianBlur stdDeviation="12"/>
<feComposite in2="hardAlpha" operator="out"/>
<feColorMatrix type="matrix" values="0 0 0 0 0 0 0 0 0 0 0 0 0 0 0 0 0 0 0.1 0"/>
<feBlend mode="normal" in2="effect1_dropShadow_144_337" result="effect2_dropShadow_144_337"/>
<feBlend mode="normal" in="SourceGraphic" in2="effect2_dropShadow_144_337" result="shape"/>
</filter>
<filter id="filter5_dd_144_337" x="318.277" y="28.6412" width="485.229" height="582.219" filterUnits="userSpaceOnUse" color-interpolation-filters="sRGB">
<feFlood flood-opacity="0" result="BackgroundImageFix"/>
<feColorMatrix in="SourceAlpha" type="matrix" values="0 0 0 0 0 0 0 0 0 0 0 0 0 0 0 0 0 0 127 0" result="hardAlpha"/>
<feMorphology radius="24" operator="dilate" in="SourceAlpha" result="effect1_dropShadow_144_337"/>
<feOffset dy="56"/>
<feGaussianBlur stdDeviation="12"/>
<feComposite in2="hardAlpha" operator="out"/>
<feColorMatrix type="matrix" values="0 0 0 0 0 0 0 0 0 0 0 0 0 0 0 0 0 0 0.15 0"/>
<feBlend mode="normal" in2="BackgroundImageFix" result="effect1_dropShadow_144_337"/>
<feColorMatrix in="SourceAlpha" type="matrix" values="0 0 0 0 0 0 0 0 0 0 0 0 0 0 0 0 0 0 127 0" result="hardAlpha"/>
<feMorphology radius="16" operator="dilate" in="SourceAlpha" result="effect2_dropShadow_144_337"/>
<feOffset dx="-3.2" dy="16"/>
<feGaussianBlur stdDeviation="12"/>
<feComposite in2="hardAlpha" operator="out"/>
<feColorMatrix type="matrix" values="0 0 0 0 0 0 0 0 0 0 0 0 0 0 0 0 0 0 0.1 0"/>
<feBlend mode="normal" in2="effect1_dropShadow_144_337" result="effect2_dropShadow_144_337"/>
<feBlend mode="normal" in="SourceGraphic" in2="effect2_dropShadow_144_337" result="shape"/>
</filter>
<filter id="filter6_dd_144_337" x="343.582" y="86.0697" width="533.203" height="550.082" filterUnits="userSpaceOnUse" color-interpolation-filters="sRGB">
<feFlood flood-opacity="0" result="BackgroundImageFix"/>
<feColorMatrix in="SourceAlpha" type="matrix" values="0 0 0 0 0 0 0 0 0 0 0 0 0 0 0 0 0 0 127 0" result="hardAlpha"/>
<feMorphology radius="24" operator="dilate" in="SourceAlpha" result="effect1_dropShadow_144_337"/>
<feOffset dy="56"/>
<feGaussianBlur stdDeviation="12"/>
<feComposite in2="hardAlpha" operator="out"/>
<feColorMatrix type="matrix" values="0 0 0 0 0 0 0 0 0 0 0 0 0 0 0 0 0 0 0.15 0"/>
<feBlend mode="normal" in2="BackgroundImageFix" result="effect1_dropShadow_144_337"/>
<feColorMatrix in="SourceAlpha" type="matrix" values="0 0 0 0 0 0 0 0 0 0 0 0 0 0 0 0 0 0 127 0" result="hardAlpha"/>
<feMorphology radius="16" operator="dilate" in="SourceAlpha" result="effect2_dropShadow_144_337"/>
<feOffset dx="-3.2" dy="16"/>
<feGaussianBlur stdDeviation="12"/>
<feComposite in2="hardAlpha" operator="out"/>
<feColorMatrix type="matrix" values="0 0 0 0 0 0 0 0 0 0 0 0 0 0 0 0 0 0 0.1 0"/>
<feBlend mode="normal" in2="effect1_dropShadow_144_337" result="effect2_dropShadow_144_337"/>
<feBlend mode="normal" in="SourceGraphic" in2="effect2_dropShadow_144_337" result="shape"/>
</filter>
<linearGradient id="paint0_linear_144_337" x1="31.252" y1="261.119" x2="350.864" y2="548.899" gradientUnits="userSpaceOnUse">
<stop stop-color="#FFC0C0"/>
<stop offset="0.18" stop-color="#FF7A7A"/>
<stop offset="1" stop-color="#EF2730"/>
</linearGradient>
<linearGradient id="paint1_linear_144_337" x1="106.196" y1="157.212" x2="334.103" y2="521.941" gradientUnits="userSpaceOnUse">
<stop stop-color="#FFE0B0"/>
<stop offset="0.18" stop-color="#FFB454"/>
<stop offset="1" stop-color="#F77F00"/>
</linearGradient>
<linearGradient id="paint2_linear_144_337" x1="206.877" y1="77.9879" x2="325.423" y2="491.407" gradientUnits="userSpaceOnUse">
<stop stop-color="#FFF3B0"/>
<stop offset="0.18" stop-color="#FFE14D"/>
<stop offset="1" stop-color="#F5B800"/>
</linearGradient>
<linearGradient id="paint3_linear_144_337" x1="325.495" y1="29.5842" x2="325.495" y2="459.664" gradientUnits="userSpaceOnUse">
<stop stop-color="#C2F7D4"/>
<stop offset="0.18" stop-color="#5CE08A"/>
<stop offset="1" stop-color="#1BB257"/>
</linearGradient>
<linearGradient id="paint4_linear_144_337" x1="452.86" y1="15.7512" x2="334.314" y2="429.171" gradientUnits="userSpaceOnUse">
<stop stop-color="#C4F2FB"/>
<stop offset="0.18" stop-color="#4FD8F0"/>
<stop offset="1" stop-color="#12AECE"/>
</linearGradient>
<linearGradient id="paint5_linear_144_337" x1="579.104" y1="37.5607" x2="351.196" y2="402.289" gradientUnits="userSpaceOnUse">
<stop stop-color="#BFD6FF"/>
<stop offset="0.18" stop-color="#5B9BFF"/>
<stop offset="1" stop-color="#1F5FE0"/>
</linearGradient>
<linearGradient id="paint6_linear_144_337" x1="694.446" y1="93.3226" x2="374.835" y2="381.102" gradientUnits="userSpaceOnUse">
<stop stop-color="#C9A9FF"/>
<stop offset="0.18" stop-color="#9D6BFF"/>
<stop offset="1" stop-color="#B026C8"/>
</linearGradient>
</defs>
</svg>
