<svg width="4800" height="1360" viewBox="0 0 4800 1360" fill="none" xmlns="http://www.w3.org/2000/svg">
<path d="M2054.07 353.923H1919.3V446.607H2043.15V516.919H1919.3V665H1833.27V283.078H2054.07V353.923ZM2105.73 665V261.239H2189.89V665H2105.73ZM2517.22 664.734H2433.32V627.181H2431.99C2422.76 641.208 2410.77 652.127 2396.04 659.94C2381.3 667.575 2365.76 671.392 2349.43 671.392C2317.82 671.392 2293.94 661.804 2277.78 642.628C2261.8 623.452 2253.81 595.753 2253.81 559.532V392.009H2337.71V548.879C2337.71 567.167 2341.44 581.371 2348.9 591.492C2356.53 601.435 2367.81 606.407 2382.72 606.407C2397.63 606.407 2409.8 600.991 2419.21 590.16C2428.62 579.33 2433.32 565.214 2433.32 547.813V392.009H2517.22V664.734ZM2830.16 552.607H2652.25C2653.67 571.073 2659.97 585.366 2671.16 595.487C2682.52 605.43 2697.7 610.402 2716.7 610.402C2726.29 610.402 2736.59 607.916 2747.6 602.944C2758.6 597.795 2768.99 590.072 2778.76 579.773L2829.89 620.256C2813.03 638.189 2794.83 651.239 2775.29 659.407C2755.76 667.575 2734.1 671.658 2710.31 671.658C2665.74 671.658 2631.03 659.496 2606.17 635.171C2581.32 610.668 2568.89 576.577 2568.89 532.899C2568.89 488.332 2581.94 452.644 2608.04 425.833C2634.14 399.022 2666.54 385.617 2705.25 385.617C2744.31 385.617 2774.85 397.247 2796.87 420.506C2819.06 443.766 2830.16 478.301 2830.16 524.11V552.607ZM2752.12 500.14C2752.12 480.431 2748.13 465.96 2740.14 456.728C2732.33 447.495 2721.23 442.878 2706.85 442.878C2691.93 442.878 2679.5 448.205 2669.56 458.858C2659.8 469.334 2653.85 483.095 2651.72 500.14H2752.12ZM3144.7 665H3060.8V510.527C3060.8 491.528 3057.08 476.791 3049.62 466.316C3042.16 455.84 3030.97 450.602 3016.06 450.602C3001.32 450.602 2989.16 456.195 2979.57 467.381C2970.16 478.389 2965.46 492.416 2965.46 509.462V665H2881.3V392.275H2965.46V430.627H2966.52C2975.93 416.245 2988.27 405.148 3003.54 397.335C3018.81 389.523 3035.15 385.617 3052.55 385.617C3083.09 385.617 3106.08 395.116 3121.53 414.114C3136.98 433.113 3144.7 460.634 3144.7 496.678V665ZM3442.46 621.854C3429.32 638.367 3413.7 650.796 3395.58 659.141C3377.65 667.486 3357.32 671.658 3334.59 671.658C3289.85 671.658 3254.87 659.052 3229.66 633.839C3204.62 608.626 3192.11 575.778 3192.11 535.296C3192.11 488.954 3205.78 452.466 3233.12 425.833C3260.46 399.2 3296.24 385.883 3340.45 385.883C3363.18 385.883 3383.07 390.144 3400.11 398.667C3417.34 407.19 3430.74 419.796 3440.33 436.486L3388.13 475.371C3381.56 466.848 3374.46 460.634 3366.82 456.728C3359.19 452.644 3350.31 450.602 3340.19 450.602C3321.54 450.602 3306.45 457.26 3294.91 470.577C3283.37 483.716 3277.6 503.425 3277.6 529.703C3277.6 554.738 3283.46 573.648 3295.18 586.432C3307.07 599.038 3321.72 605.341 3339.12 605.341C3348.35 605.341 3357.32 603.3 3366.02 599.216C3374.72 595.132 3383.07 588.74 3391.06 580.04L3442.46 621.854ZM3734.09 552.607H3556.18C3557.6 571.073 3563.91 585.366 3575.09 595.487C3586.46 605.43 3601.64 610.402 3620.64 610.402C3630.22 610.402 3640.52 607.916 3651.53 602.944C3662.54 597.795 3672.93 590.072 3682.69 579.773L3733.83 620.256C3716.96 638.189 3698.76 651.239 3679.23 659.407C3659.7 667.575 3638.04 671.658 3614.24 671.658C3569.68 671.658 3534.97 659.496 3510.11 635.171C3485.25 610.668 3472.82 576.577 3472.82 532.899C3472.82 488.332 3485.87 452.644 3511.97 425.833C3538.07 399.022 3570.48 385.617 3609.18 385.617C3648.25 385.617 3678.79 397.247 3700.8 420.506C3723 443.766 3734.09 478.301 3734.09 524.11V552.607ZM3656.06 500.14C3656.06 480.431 3652.06 465.96 3644.07 456.728C3636.26 447.495 3625.16 442.878 3610.78 442.878C3595.87 442.878 3583.44 448.205 3573.49 458.858C3563.73 469.334 3557.78 483.095 3555.65 500.14H3656.06Z" fill="#858D97"/>
<path d="M3803.84 669.855C3793.61 669.855 3785.07 666.554 3778.21 659.951C3771.47 653.218 3768.11 644.868 3768.11 634.899C3768.11 624.671 3771.54 616.32 3778.4 609.846C3785.26 603.244 3793.94 599.942 3804.42 599.942C3814.91 599.942 3823.52 603.244 3830.25 609.846C3836.98 616.449 3840.35 624.8 3840.35 634.899C3840.35 645.127 3836.92 653.542 3830.06 660.145C3823.33 666.618 3814.59 669.855 3803.84 669.855Z" fill="#6B6B6B"/>
<path d="M4253.03 386.513L4180.21 665H4109.9L4063.68 488.275C4062.52 483.874 4061.61 479.731 4060.96 475.847C4060.32 471.833 4059.67 467.366 4059.02 462.447H4058.25C4057.6 467.755 4056.89 472.416 4056.11 476.429C4055.33 480.313 4054.43 484.262 4053.39 488.275L4006.01 665H3932.6L3860.35 386.513H3928.32L3968.14 570.229C3968.91 574.113 3969.56 577.932 3970.08 581.687C3970.73 585.442 3971.37 590.426 3972.02 596.641H3973.19C3973.83 591.203 3974.48 586.672 3975.13 583.046C3975.9 579.292 3977.07 574.76 3978.62 569.452L4029.12 386.513H4096.31L4141.95 571.783C4142.72 575.408 4143.44 578.968 4144.08 582.464C4144.73 585.959 4145.51 590.556 4146.41 596.252H4147.19C4147.84 590.944 4148.42 586.542 4148.94 583.046C4149.46 579.551 4150.23 575.408 4151.27 570.617L4190.11 386.513H4253.03ZM4349.74 574.113V665H4287.02V386.513H4384.51C4419.46 386.513 4445.87 394.087 4463.74 409.235C4481.61 424.383 4490.54 446.975 4490.54 477.012C4490.54 506.919 4480.38 530.612 4460.05 548.09C4439.85 565.439 4412.73 574.113 4378.68 574.113H4349.74ZM4349.74 434.676V526.145H4375.38C4391.43 526.145 4403.6 522.196 4411.89 514.299C4420.3 506.272 4424.51 494.555 4424.51 479.148C4424.51 464.647 4420.37 453.643 4412.08 446.133C4403.8 438.495 4391.76 434.676 4375.96 434.676H4349.74ZM4690.38 438.171H4592.11V505.754H4682.41V557.023H4592.11V665H4529.38V386.513H4690.38V438.171Z" fill="#2671BE"/>
<path d="M1886.99 747.881H1855.7V769.22H1884.46V785.673H1855.7V820H1835.72V731.305H1886.99V747.881ZM1898.5 820V726.234H1918.04V820H1898.5ZM1993.44 819.938H1973.9V811.897H1973.65C1971.67 814.784 1968.89 817.114 1965.3 818.887C1961.75 820.619 1958.18 821.484 1954.6 821.484C1947.26 821.484 1941.69 819.258 1937.9 814.804C1934.15 810.351 1932.27 804.063 1932.27 795.94V756.602H1951.75V792.971C1951.75 797.012 1952.62 800.249 1954.35 802.682C1956.08 805.073 1958.66 806.269 1962.08 806.269C1965.5 806.269 1968.33 804.991 1970.56 802.434C1972.78 799.878 1973.9 796.641 1973.9 792.724V756.602H1993.44V819.938ZM2065.62 793.899H2024.3C2024.59 797.981 2025.99 801.238 2028.51 803.671C2031.07 806.063 2034.41 807.259 2038.53 807.259C2041.04 807.259 2043.33 806.64 2045.4 805.403C2047.5 804.166 2049.37 802.311 2051.02 799.836L2065.37 808.001C2061.74 812.702 2057.68 816.145 2053.19 818.33C2048.69 820.474 2043.7 821.546 2038.22 821.546C2027.75 821.546 2019.58 818.722 2013.73 813.073C2007.87 807.382 2004.94 799.465 2004.94 789.322C2004.94 778.807 2008 770.478 2014.1 764.334C2020.2 758.19 2027.71 755.118 2036.61 755.118C2045.85 755.118 2052.98 757.86 2058.01 763.344C2063.08 768.828 2065.62 777.075 2065.62 788.085V793.899ZM2047.5 781.529C2047.5 777.199 2046.57 773.962 2044.71 771.818C2042.9 769.632 2040.45 768.54 2037.35 768.54C2033.64 768.54 2030.63 769.777 2028.32 772.251C2026.06 774.725 2024.68 777.817 2024.18 781.529H2047.5ZM2138.79 820H2119.31V783.631C2119.31 779.591 2118.44 776.374 2116.71 773.983C2114.98 771.55 2112.4 770.333 2108.98 770.333C2105.56 770.333 2102.73 771.612 2100.5 774.168C2098.28 776.725 2097.16 779.962 2097.16 783.879V820H2077.62V756.664H2097.16V764.705H2097.41C2099.47 761.819 2102.34 759.509 2106.01 757.778C2109.68 756.005 2113.37 755.118 2117.08 755.118C2124.21 755.118 2129.62 757.345 2133.29 761.798C2136.96 766.251 2138.79 772.539 2138.79 780.663V820ZM2195.51 815.485C2193.57 817.258 2191.18 818.722 2188.33 819.876C2185.49 820.99 2182.4 821.546 2179.06 821.546C2171.8 821.546 2166.42 819.876 2162.91 816.536C2159.41 813.196 2157.66 808.207 2157.66 801.568V771.076H2147.39V756.664H2157.66V740.521L2177.14 737.057V756.664H2192.35V771.076H2177.14V801.445C2177.14 803.383 2177.55 804.846 2178.38 805.836C2179.24 806.826 2180.44 807.32 2181.96 807.32C2182.87 807.32 2183.78 807.176 2184.68 806.888C2185.63 806.558 2186.62 805.919 2187.65 804.97L2195.51 815.485ZM2236.89 820V731.305H2268.31C2284.06 731.305 2295.87 734.913 2303.75 742.129C2311.62 749.304 2315.56 760.107 2315.56 774.539C2315.56 788.353 2311.25 799.383 2302.63 807.63C2294.06 815.877 2282.62 820 2268.31 820H2236.89ZM2256.86 747.881V803.424H2266.76C2275.42 803.424 2282.2 800.867 2287.11 795.754C2292.06 790.6 2294.53 783.611 2294.53 774.787C2294.53 766.416 2292.08 759.839 2287.17 755.056C2282.31 750.273 2275.46 747.881 2266.64 747.881H2256.86ZM2384.03 793.899H2342.71C2343 797.981 2344.4 801.238 2346.92 803.671C2349.48 806.063 2352.82 807.259 2356.94 807.259C2359.46 807.259 2361.74 806.64 2363.81 805.403C2365.91 804.166 2367.78 802.311 2369.43 799.836L2383.78 808.001C2380.15 812.702 2376.09 816.145 2371.6 818.33C2367.1 820.474 2362.11 821.546 2356.63 821.546C2346.16 821.546 2337.99 818.722 2332.14 813.073C2326.28 807.382 2323.35 799.465 2323.35 789.322C2323.35 778.807 2326.41 770.478 2332.51 764.334C2338.61 758.19 2346.12 755.118 2355.02 755.118C2364.26 755.118 2371.39 757.86 2376.42 763.344C2381.49 768.828 2384.03 777.075 2384.03 788.085V793.899ZM2365.91 781.529C2365.91 777.199 2364.98 773.962 2363.13 771.818C2361.31 769.632 2358.86 768.54 2355.76 768.54C2352.05 768.54 2349.04 769.777 2346.73 772.251C2344.47 774.725 2343.09 777.817 2342.59 781.529H2365.91ZM2391.89 811.897L2401.1 800.022C2404.32 803.032 2407.29 805.094 2410.01 806.207C2412.73 807.32 2415.51 807.877 2418.36 807.877C2421.2 807.877 2423.37 807.403 2424.85 806.455C2426.38 805.465 2427.14 804.022 2427.14 802.125C2427.14 800.682 2426.42 799.465 2424.98 798.476C2423.53 797.486 2421.2 796.785 2417.99 796.373C2409.58 795.136 2403.58 792.827 2399.99 789.445C2396.4 786.064 2394.61 781.652 2394.61 776.209C2394.61 770.23 2396.79 765.22 2401.16 761.179C2405.58 757.139 2411.53 755.118 2419.04 755.118C2423.49 755.118 2427.7 755.737 2431.66 756.974C2435.61 758.211 2439 760.087 2441.8 762.602L2432.34 773.921C2429.9 772.107 2427.62 770.787 2425.47 769.962C2423.37 769.096 2421.16 768.663 2418.85 768.663C2416.26 768.663 2414.36 769.138 2413.16 770.086C2412.01 770.993 2411.43 772.292 2411.43 773.983C2411.43 775.426 2412.17 776.642 2413.66 777.632C2415.14 778.622 2417.76 779.322 2421.51 779.735C2428.93 780.601 2434.56 782.704 2438.4 786.044C2442.27 789.342 2444.21 794.043 2444.21 800.146C2444.21 806.661 2441.74 811.856 2436.79 815.732C2431.88 819.608 2425.64 821.546 2418.05 821.546C2412.89 821.546 2408.03 820.742 2403.45 819.134C2398.88 817.526 2395.02 815.114 2391.89 811.897ZM2464.81 748.376C2461.43 748.376 2458.66 747.345 2456.52 745.284C2454.38 743.181 2453.3 740.583 2453.3 737.49C2453.3 734.274 2454.38 731.656 2456.52 729.635C2458.66 727.615 2461.43 726.605 2464.81 726.605C2468.23 726.605 2470.99 727.615 2473.1 729.635C2475.24 731.656 2476.31 734.274 2476.31 737.49C2476.31 740.707 2475.24 743.325 2473.1 745.346C2470.99 747.366 2468.23 748.376 2464.81 748.376ZM2474.58 820H2455.04V756.664H2474.58V820ZM2553.13 814.743C2553.13 825.628 2549.92 834.185 2543.48 840.411C2537.09 846.637 2528.14 849.75 2516.64 849.75C2509.51 849.75 2503.53 848.534 2498.7 846.101C2493.92 843.71 2489.96 840.39 2486.83 836.143L2500.37 826.309C2502.35 829.154 2504.6 831.36 2507.11 832.927C2509.67 834.535 2512.95 835.339 2516.95 835.339C2522.06 835.339 2526.1 833.813 2529.07 830.762C2532.08 827.752 2533.59 823.443 2533.59 817.835V812.887H2533.34C2531.07 815.773 2528.25 817.938 2524.87 819.381C2521.53 820.825 2517.61 821.546 2513.11 821.546C2505.53 821.546 2499.16 818.825 2494 813.382C2488.85 807.898 2486.27 800.146 2486.27 790.126C2486.27 778.951 2489.28 770.333 2495.3 764.272C2501.32 758.169 2508.43 755.118 2516.64 755.118C2519.81 755.118 2522.91 755.737 2525.92 756.974C2528.93 758.211 2531.4 760.066 2533.34 762.54H2533.59V756.664H2553.13V814.743ZM2533.83 789.569V784.559C2533.83 780.642 2532.58 777.302 2530.06 774.539C2527.55 771.735 2524.31 770.333 2520.35 770.333C2515.9 770.333 2512.41 772.003 2509.9 775.343C2507.38 778.683 2506.13 783.281 2506.13 789.136C2506.13 794.538 2507.3 798.764 2509.65 801.816C2512 804.826 2515.42 806.331 2519.92 806.331C2523.75 806.331 2527.03 804.846 2529.75 801.878C2532.47 798.909 2533.83 794.806 2533.83 789.569ZM2629.39 820H2609.91V783.631C2609.91 779.591 2609.05 776.374 2607.31 773.983C2605.58 771.55 2603 770.333 2599.58 770.333C2596.16 770.333 2593.34 771.612 2591.11 774.168C2588.88 776.725 2587.77 779.962 2587.77 783.879V820H2568.22V756.664H2587.77V764.705H2588.02C2590.08 761.819 2592.94 759.509 2596.61 757.778C2600.28 756.005 2603.97 755.118 2607.68 755.118C2614.82 755.118 2620.22 757.345 2623.89 761.798C2627.56 766.251 2629.39 772.539 2629.39 780.663V820ZM2730.34 805.341C2727.49 810.66 2723.61 814.701 2718.71 817.464C2713.84 820.186 2708.26 821.546 2701.95 821.546C2691.8 821.546 2683.87 818.639 2678.13 812.825C2672.44 806.97 2669.6 799.321 2669.6 789.878C2669.6 779.116 2672.75 770.643 2679.06 764.458C2685.37 758.272 2693.58 755.18 2703.68 755.18C2709.9 755.18 2715.39 756.644 2720.13 759.571C2724.87 762.458 2728.07 766.684 2729.72 772.251L2713.88 778.127C2712.65 775.446 2711.14 773.488 2709.37 772.251C2707.64 770.973 2705.49 770.333 2702.94 770.333C2699.1 770.333 2695.88 771.818 2693.29 774.787C2690.73 777.714 2689.45 782.312 2689.45 788.58C2689.45 794.517 2690.67 798.867 2693.1 801.63C2695.53 804.393 2698.63 805.774 2702.38 805.774C2705.22 805.774 2707.62 805.176 2709.55 803.981C2711.53 802.744 2713.35 800.785 2715 798.105L2730.34 805.341ZM2772.33 821.546C2762.07 821.546 2753.78 818.577 2747.47 812.64C2741.2 806.702 2738.09 798.682 2738.13 788.58C2738.17 778.518 2741.32 770.437 2747.59 764.334C2753.9 758.19 2762.44 755.118 2773.2 755.118C2783.8 755.118 2792.1 758.169 2798.12 764.272C2804.15 770.375 2807.16 778.106 2807.16 787.466C2807.16 797.61 2803.9 805.836 2797.38 812.145C2790.87 818.412 2782.52 821.546 2772.33 821.546ZM2772.95 806.331C2777.73 806.331 2781.3 804.599 2783.65 801.135C2786.04 797.672 2787.24 793.239 2787.24 787.837C2787.24 782.436 2786.04 778.168 2783.65 775.034C2781.26 771.9 2777.65 770.333 2772.83 770.333C2768.13 770.333 2764.48 772.024 2761.88 775.405C2759.28 778.745 2757.98 783.054 2757.98 788.332C2757.98 793.61 2759.22 797.94 2761.69 801.321C2764.21 804.661 2767.96 806.331 2772.95 806.331ZM2879.77 820H2860.29V783.631C2860.29 779.591 2859.42 776.374 2857.69 773.983C2855.96 771.55 2853.38 770.333 2849.96 770.333C2846.53 770.333 2843.71 771.612 2841.48 774.168C2839.26 776.725 2838.14 779.962 2838.14 783.879V820H2818.6V756.664H2838.14V764.705H2838.39C2840.45 761.819 2843.32 759.509 2846.99 757.778C2850.66 756.005 2854.35 755.118 2858.06 755.118C2865.19 755.118 2870.59 757.345 2874.26 761.798C2877.93 766.251 2879.77 772.539 2879.77 780.663V820ZM2936.49 815.485C2934.55 817.258 2932.16 818.722 2929.31 819.876C2926.47 820.99 2923.37 821.546 2920.03 821.546C2912.78 821.546 2907.4 819.876 2903.89 816.536C2900.39 813.196 2898.63 808.207 2898.63 801.568V771.076H2888.37V756.664H2898.63V740.521L2918.12 737.057V756.664H2933.33V771.076H2918.12V801.445C2918.12 803.383 2918.53 804.846 2919.35 805.836C2920.22 806.826 2921.42 807.32 2922.94 807.32C2923.85 807.32 2924.76 807.176 2925.66 806.888C2926.61 806.558 2927.6 805.919 2928.63 804.97L2936.49 815.485ZM2986.83 773.735C2985.47 773.282 2984.13 772.952 2982.81 772.746C2981.49 772.498 2980.19 772.375 2978.92 772.375C2975.04 772.375 2971.89 773.941 2969.45 777.075C2967.02 780.168 2965.8 784.394 2965.8 789.755V820H2946.26V756.664H2965.8V767.921H2966.05C2967.58 763.798 2969.74 760.705 2972.55 758.644C2975.35 756.582 2978.71 755.551 2982.63 755.551C2984.15 755.551 2985.6 755.675 2986.96 755.922C2988.36 756.128 2989.74 756.499 2991.1 757.035L2986.83 773.735ZM3029.39 821.546C3019.12 821.546 3010.83 818.577 3004.52 812.64C2998.25 806.702 2995.14 798.682 2995.18 788.58C2995.22 778.518 2998.38 770.437 3004.65 764.334C3010.96 758.19 3019.49 755.118 3030.25 755.118C3040.85 755.118 3049.16 758.169 3055.18 764.272C3061.2 770.375 3064.21 778.106 3064.21 787.466C3064.21 797.61 3060.95 805.836 3054.44 812.145C3047.92 818.412 3039.57 821.546 3029.39 821.546ZM3030.01 806.331C3034.79 806.331 3038.36 804.599 3040.71 801.135C3043.1 797.672 3044.29 793.239 3044.29 787.837C3044.29 782.436 3043.1 778.168 3040.71 775.034C3038.31 771.9 3034.71 770.333 3029.88 770.333C3025.18 770.333 3021.53 772.024 3018.93 775.405C3016.34 778.745 3015.04 783.054 3015.04 788.332C3015.04 793.61 3016.27 797.94 3018.75 801.321C3021.26 804.661 3025.02 806.331 3030.01 806.331ZM3075.65 820V726.234H3095.2V820H3075.65ZM3106.27 811.897L3115.48 800.022C3118.7 803.032 3121.67 805.094 3124.39 806.207C3127.11 807.32 3129.9 807.877 3132.74 807.877C3135.59 807.877 3137.75 807.403 3139.23 806.455C3140.76 805.465 3141.52 804.022 3141.52 802.125C3141.52 800.682 3140.8 799.465 3139.36 798.476C3137.92 797.486 3135.59 796.785 3132.37 796.373C3123.96 795.136 3117.96 792.827 3114.37 789.445C3110.78 786.064 3108.99 781.652 3108.99 776.209C3108.99 770.23 3111.17 765.22 3115.55 761.179C3119.96 757.139 3125.92 755.118 3133.42 755.118C3137.87 755.118 3142.08 755.737 3146.04 756.974C3150 758.211 3153.38 760.087 3156.18 762.602L3146.72 773.921C3144.29 772.107 3142 770.787 3139.85 769.962C3137.75 769.096 3135.54 768.663 3133.24 768.663C3130.64 768.663 3128.74 769.138 3127.54 770.086C3126.39 770.993 3125.81 772.292 3125.81 773.983C3125.81 775.426 3126.56 776.642 3128.04 777.632C3129.52 778.622 3132.14 779.322 3135.89 779.735C3143.32 780.601 3148.95 782.704 3152.78 786.044C3156.66 789.342 3158.59 794.043 3158.59 800.146C3158.59 806.661 3156.12 811.856 3151.17 815.732C3146.27 819.608 3140.02 821.546 3132.43 821.546C3127.28 821.546 3122.41 820.742 3117.83 819.134C3113.26 817.526 3109.4 815.114 3106.27 811.897ZM3237.89 742.5C3236.61 741.634 3235.37 740.995 3234.18 740.583C3233.02 740.171 3231.85 739.964 3230.65 739.964C3228.51 739.964 3226.86 740.645 3225.7 742.006C3224.59 743.366 3224.03 745.449 3224.03 748.253V756.664H3238.51V771.076H3224.03V820H3204.55V771.076H3193.91V756.664H3204.55V748.624C3204.55 740.913 3206.65 735.016 3210.86 730.934C3215.06 726.811 3221.19 724.749 3229.23 724.749C3232.07 724.749 3234.77 725.079 3237.33 725.739C3239.93 726.357 3242.57 727.347 3245.25 728.708L3237.89 742.5ZM3277.78 821.546C3267.51 821.546 3259.23 818.577 3252.92 812.64C3246.65 806.702 3243.54 798.682 3243.58 788.58C3243.62 778.518 3246.77 770.437 3253.04 764.334C3259.35 758.19 3267.89 755.118 3278.65 755.118C3289.24 755.118 3297.55 758.169 3303.57 764.272C3309.59 770.375 3312.6 778.106 3312.6 787.466C3312.6 797.61 3309.35 805.836 3302.83 812.145C3296.32 818.412 3287.97 821.546 3277.78 821.546ZM3278.4 806.331C3283.18 806.331 3286.75 804.599 3289.1 801.135C3291.49 797.672 3292.69 793.239 3292.69 787.837C3292.69 782.436 3291.49 778.168 3289.1 775.034C3286.71 771.9 3283.1 770.333 3278.28 770.333C3273.58 770.333 3269.93 772.024 3267.33 775.405C3264.73 778.745 3263.43 783.054 3263.43 788.332C3263.43 793.61 3264.67 797.94 3267.14 801.321C3269.66 804.661 3273.41 806.331 3278.4 806.331ZM3364.62 773.735C3363.26 773.282 3361.92 772.952 3360.6 772.746C3359.28 772.498 3357.98 772.375 3356.7 772.375C3352.83 772.375 3349.67 773.941 3347.24 777.075C3344.81 780.168 3343.59 784.394 3343.59 789.755V820H3324.05V756.664H3343.59V767.921H3343.84C3345.36 763.798 3347.53 760.705 3350.33 758.644C3353.14 756.582 3356.5 755.551 3360.41 755.551C3361.94 755.551 3363.38 755.675 3364.74 755.922C3366.15 756.128 3367.53 756.499 3368.89 757.035L3364.62 773.735ZM3524.88 731.305L3501.93 820H3479.29L3464.57 764.21C3464.2 762.849 3463.91 761.716 3463.71 760.808C3463.54 759.86 3463.34 758.664 3463.09 757.221H3462.84C3462.59 758.664 3462.35 759.881 3462.1 760.87C3461.89 761.819 3461.62 762.932 3461.29 764.21L3446.2 820H3422.64L3399.81 731.305H3421.34L3434.14 789.384C3434.39 790.579 3434.59 791.61 3434.76 792.476C3434.92 793.301 3435.15 794.641 3435.44 796.497H3435.81C3436.14 794.641 3436.39 793.342 3436.55 792.6C3436.72 791.858 3437.03 790.703 3437.48 789.136L3453.56 731.305H3474.96L3489.5 789.878C3489.79 791.074 3490.01 792.064 3490.18 792.847C3490.34 793.59 3490.59 794.765 3490.92 796.373H3491.17C3491.46 794.682 3491.66 793.486 3491.79 792.785C3491.91 792.043 3492.14 790.951 3492.47 789.507L3504.96 731.305H3524.88ZM3543 748.376C3539.62 748.376 3536.86 747.345 3534.71 745.284C3532.57 743.181 3531.5 740.583 3531.5 737.49C3531.5 734.274 3532.57 731.656 3534.71 729.635C3536.86 727.615 3539.62 726.605 3543 726.605C3546.42 726.605 3549.18 727.615 3551.29 729.635C3553.43 731.656 3554.5 734.274 3554.5 737.49C3554.5 740.707 3553.43 743.325 3551.29 745.346C3549.18 747.366 3546.42 748.376 3543 748.376ZM3552.77 820H3533.23V756.664H3552.77V820ZM3629.41 820H3609.92V783.631C3609.92 779.591 3609.06 776.374 3607.32 773.983C3605.59 771.55 3603.02 770.333 3599.59 770.333C3596.17 770.333 3593.35 771.612 3591.12 774.168C3588.89 776.725 3587.78 779.962 3587.78 783.879V820H3568.23V756.664H3587.78V764.705H3588.03C3590.09 761.819 3592.95 759.509 3596.62 757.778C3600.29 756.005 3603.98 755.118 3607.7 755.118C3614.83 755.118 3620.23 757.345 3623.9 761.798C3627.57 766.251 3629.41 772.539 3629.41 780.663V820ZM3686.87 811.774C3684.6 815.031 3681.79 817.485 3678.45 819.134C3675.11 820.742 3671.22 821.546 3666.76 821.546C3658.72 821.546 3652.23 818.763 3647.28 813.196C3642.37 807.589 3639.92 799.775 3639.92 789.755C3639.92 779.281 3642.62 770.89 3648.02 764.581C3653.47 758.272 3660.93 755.118 3670.41 755.118C3673.96 755.118 3677.26 755.922 3680.31 757.53C3683.4 759.097 3685.59 760.891 3686.87 762.911H3687.11V726.234H3706.66V820H3687.11V811.774H3686.87ZM3659.77 789.198C3659.77 794.682 3660.99 798.909 3663.42 801.878C3665.86 804.846 3669.24 806.331 3673.57 806.331C3677.69 806.331 3681.03 804.764 3683.59 801.63C3686.19 798.496 3687.48 794.352 3687.48 789.198V784.436C3687.48 780.395 3686.25 777.034 3683.77 774.354C3681.3 771.674 3678.06 770.333 3674.06 770.333C3669.57 770.333 3666.06 772.024 3663.55 775.405C3661.03 778.745 3659.77 783.343 3659.77 789.198ZM3752.3 821.546C3742.04 821.546 3733.75 818.577 3727.44 812.64C3721.17 806.702 3718.06 798.682 3718.1 788.58C3718.14 778.518 3721.3 770.437 3727.56 764.334C3733.87 758.19 3742.41 755.118 3753.17 755.118C3763.77 755.118 3772.08 758.169 3778.1 764.272C3784.12 770.375 3787.13 778.106 3787.13 787.466C3787.13 797.61 3783.87 805.836 3777.35 812.145C3770.84 818.412 3762.49 821.546 3752.3 821.546ZM3752.92 806.331C3757.71 806.331 3761.27 804.599 3763.62 801.135C3766.01 797.672 3767.21 793.239 3767.21 787.837C3767.21 782.436 3766.01 778.168 3763.62 775.034C3761.23 771.9 3757.62 770.333 3752.8 770.333C3748.1 770.333 3744.45 772.024 3741.85 775.405C3739.25 778.745 3737.95 783.054 3737.95 788.332C3737.95 793.61 3739.19 797.94 3741.67 801.321C3744.18 804.661 3747.93 806.331 3752.92 806.331ZM3890.91 756.664L3872.67 820H3852.13L3842.79 783.879C3842.55 782.93 3842.32 782.023 3842.11 781.157C3841.95 780.25 3841.8 779.281 3841.68 778.25H3841.31C3841.14 779.281 3840.96 780.23 3840.75 781.096C3840.59 781.92 3840.38 782.766 3840.13 783.631L3830.11 820H3809.83L3791.95 756.664H3811.37L3820.46 795.816C3820.67 796.641 3820.84 797.569 3820.96 798.599C3821.12 799.589 3821.29 800.682 3821.45 801.878H3821.82C3822.03 800.641 3822.24 799.507 3822.44 798.476C3822.65 797.404 3822.88 796.435 3823.12 795.569L3833.89 756.664H3852.5L3862.15 795.816C3862.23 796.229 3862.38 796.971 3862.58 798.043C3862.79 799.074 3863 800.393 3863.2 802.001H3863.64C3863.84 800.476 3864.01 799.321 3864.13 798.538C3864.3 797.713 3864.48 796.806 3864.69 795.816L3873.29 756.664H3890.91ZM3895.37 811.897L3904.58 800.022C3907.8 803.032 3910.77 805.094 3913.49 806.207C3916.21 807.32 3918.99 807.877 3921.84 807.877C3924.68 807.877 3926.85 807.403 3928.33 806.455C3929.86 805.465 3930.62 804.022 3930.62 802.125C3930.62 800.682 3929.9 799.465 3928.46 798.476C3927.01 797.486 3924.68 796.785 3921.47 796.373C3913.06 795.136 3907.06 792.827 3903.47 789.445C3899.88 786.064 3898.09 781.652 3898.09 776.209C3898.09 770.23 3900.27 765.22 3904.64 761.179C3909.06 757.139 3915.01 755.118 3922.52 755.118C3926.97 755.118 3931.18 755.737 3935.14 756.974C3939.09 758.211 3942.48 760.087 3945.28 762.602L3935.82 773.921C3933.38 772.107 3931.1 770.787 3928.95 769.962C3926.85 769.096 3924.64 768.663 3922.33 768.663C3919.74 768.663 3917.84 769.138 3916.64 770.086C3915.49 770.993 3914.91 772.292 3914.91 773.983C3914.91 775.426 3915.65 776.642 3917.14 777.632C3918.62 778.622 3921.24 779.322 3924.99 779.735C3932.41 780.601 3938.04 782.704 3941.88 786.044C3945.75 789.342 3947.69 794.043 3947.69 800.146C3947.69 806.661 3945.22 811.856 3940.27 815.732C3935.36 819.608 3929.12 821.546 3921.53 821.546C3916.37 821.546 3911.51 820.742 3906.93 819.134C3902.36 817.526 3898.5 815.114 3895.37 811.897Z" fill="#4D9BFF"/>
<path d="M1833.49 956V896.87H1852.46C1858.26 896.87 1862.77 898.107 1865.99 900.581C1869.23 903.028 1870.85 906.423 1870.85 910.766C1870.85 914.037 1869.92 916.896 1868.05 919.343C1866.21 921.762 1863.74 923.466 1860.67 924.456V924.621C1864.57 925.088 1867.69 926.586 1870.03 929.115C1872.36 931.644 1873.53 934.847 1873.53 938.723C1873.53 943.946 1871.66 948.138 1867.92 951.299C1864.18 954.433 1859.28 956 1853.2 956H1833.49ZM1843.31 904.746V921.734H1849.86C1853.16 921.734 1855.76 920.937 1857.66 919.343C1859.58 917.748 1860.54 915.508 1860.54 912.622C1860.54 909.983 1859.65 908.017 1857.86 906.725C1856.1 905.406 1853.46 904.746 1849.95 904.746H1843.31ZM1843.31 929.61V948.124H1851.72C1855.35 948.124 1858.16 947.272 1860.17 945.568C1862.21 943.863 1863.22 941.541 1863.22 938.599C1863.22 935.658 1862.18 933.431 1860.09 931.919C1858 930.38 1854.96 929.61 1850.98 929.61H1843.31ZM1920.33 956H1910.72V949.444H1910.56C1909.08 951.945 1907.25 953.828 1905.08 955.093C1902.9 956.357 1900.4 956.99 1897.57 956.99C1892.62 956.99 1888.9 955.505 1886.4 952.536C1883.92 949.567 1882.69 945.1 1882.69 939.135V913.776H1892.21V938.022C1892.21 941.815 1892.94 944.661 1894.4 946.557C1895.88 948.427 1898.09 949.361 1901.03 949.361C1903.89 949.361 1906.22 948.33 1908 946.269C1909.82 944.207 1910.72 941.458 1910.72 938.022V913.776H1920.33V956ZM1937.65 905.612C1935.89 905.612 1934.43 905.048 1933.28 903.921C1932.12 902.794 1931.55 901.406 1931.55 899.757C1931.55 898.052 1932.12 896.65 1933.28 895.551C1934.43 894.451 1935.89 893.901 1937.65 893.901C1939.44 893.901 1940.91 894.451 1942.06 895.551C1943.22 896.65 1943.79 898.052 1943.79 899.757C1943.79 901.433 1943.22 902.835 1942.06 903.962C1940.91 905.062 1939.44 905.612 1937.65 905.612ZM1942.39 956H1932.78V913.776H1942.39V956ZM1954.89 956V893.489H1964.49V956H1954.89ZM2000 955.423C1998.76 955.945 1997.47 956.33 1996.12 956.577C1994.77 956.825 1993.33 956.948 1991.79 956.948C1987.89 956.948 1984.88 955.918 1982.76 953.856C1980.67 951.767 1979.63 948.66 1979.63 944.537V921.281H1972.53V913.776H1979.63V903.509L1989.19 900.623V913.776H1999.3V921.281H1989.19V943.753C1989.19 945.815 1989.56 947.3 1990.31 948.207C1991.08 949.114 1992.26 949.567 1993.85 949.567C1994.62 949.567 1995.35 949.485 1996.04 949.32C1996.75 949.128 1997.38 948.894 1997.93 948.619L2000 955.423ZM2053.6 901.035C2052.83 900.732 2052.13 900.526 2051.5 900.416C2050.87 900.279 2050.18 900.21 2049.44 900.21C2047.4 900.21 2045.86 900.801 2044.82 901.983C2043.8 903.138 2043.29 904.815 2043.29 907.014V913.776H2053.06V921.281H2043.29V956H2033.73V921.281H2026.55V913.776H2033.73V906.519C2033.73 902.231 2035.1 898.836 2037.85 896.334C2040.63 893.805 2044.3 892.541 2048.86 892.541C2050.29 892.541 2051.53 892.637 2052.57 892.829C2053.61 893.022 2054.7 893.297 2055.83 893.654L2053.6 901.035ZM2078.63 956.99C2072.03 956.99 2066.8 955.024 2062.92 951.093C2059.07 947.135 2057.15 941.843 2057.15 935.218C2057.17 928.208 2059.18 922.724 2063.17 918.766C2067.15 914.78 2072.58 912.787 2079.45 912.787C2086.08 912.759 2091.25 914.711 2094.96 918.642C2098.7 922.545 2100.57 927.837 2100.57 934.517C2100.57 941.389 2098.59 946.86 2094.63 950.928C2090.7 954.969 2085.36 956.99 2078.63 956.99ZM2079.08 949.361C2082.9 949.361 2085.8 948.111 2087.78 945.609C2089.79 943.107 2090.79 939.493 2090.79 934.764C2090.79 930.091 2089.79 926.531 2087.78 924.085C2085.78 921.638 2082.86 920.415 2079.04 920.415C2075.28 920.415 2072.31 921.707 2070.14 924.291C2067.99 926.875 2066.92 930.449 2066.92 935.012C2066.92 939.603 2067.99 943.149 2070.14 945.65C2072.28 948.124 2075.26 949.361 2079.08 949.361ZM2133.84 921.817C2133.32 921.679 2132.81 921.583 2132.32 921.528C2131.85 921.446 2131.3 921.405 2130.67 921.405C2127.23 921.405 2124.59 922.669 2122.75 925.198C2120.91 927.727 2119.99 931.026 2119.99 935.094V956H2110.38V913.776H2119.99V921.899H2120.15C2121.14 918.985 2122.6 916.786 2124.52 915.302C2126.45 913.79 2128.72 913.034 2131.33 913.034C2132.07 913.034 2132.73 913.075 2133.31 913.158C2133.91 913.24 2134.49 913.364 2135.04 913.529L2133.84 921.817ZM2168.81 956.948C2167.08 956.948 2165.63 956.399 2164.48 955.299C2163.32 954.199 2162.75 952.825 2162.75 951.176C2162.75 949.554 2163.32 948.193 2164.48 947.093C2165.63 945.966 2167.08 945.403 2168.81 945.403C2170.54 945.403 2171.98 945.966 2173.14 947.093C2174.32 948.193 2174.91 949.554 2174.91 951.176C2174.91 952.825 2174.32 954.199 2173.14 955.299C2171.98 956.399 2170.54 956.948 2168.81 956.948ZM2236.47 956H2225.71L2198.04 913.364C2197.49 912.539 2197.03 911.783 2196.64 911.096C2196.26 910.381 2195.93 909.722 2195.65 909.117H2195.45C2195.56 909.941 2195.64 911.082 2195.69 912.539C2195.75 913.996 2195.78 915.783 2195.78 917.9V956H2186.29V896.87H2197.71L2224.56 938.558C2225.13 939.438 2225.64 940.249 2226.08 940.991C2226.52 941.705 2226.89 942.351 2227.2 942.929H2227.36C2227.22 942.132 2227.13 941.032 2227.07 939.63C2227.02 938.228 2226.99 936.51 2226.99 934.476V896.87H2236.47V956ZM2284.31 956H2251.11V896.87H2282.99V905.2H2260.93V921.941H2281.38V930.229H2260.93V947.671H2284.31V956ZM2332.67 905.2H2315.73V956H2305.87V905.2H2288.97V896.87H2332.67V905.2ZM2396.59 905.2H2374.49V922.971H2394.85V931.259H2374.49V956H2364.67V896.87H2396.59V905.2ZM2429.57 921.817C2429.05 921.679 2428.54 921.583 2428.05 921.528C2427.58 921.446 2427.03 921.405 2426.4 921.405C2422.96 921.405 2420.32 922.669 2418.48 925.198C2416.64 927.727 2415.72 931.026 2415.72 935.094V956H2406.11V913.776H2415.72V921.899H2415.88C2416.87 918.985 2418.33 916.786 2420.26 915.302C2422.18 913.79 2424.45 913.034 2427.06 913.034C2427.8 913.034 2428.46 913.075 2429.04 913.158C2429.64 913.24 2430.22 913.364 2430.77 913.529L2429.57 921.817ZM2469.57 956H2460.29V949.65H2460.13C2458.7 952.096 2456.93 953.938 2454.81 955.175C2452.69 956.385 2450.26 956.99 2447.51 956.99C2443.69 956.99 2440.51 955.863 2437.99 953.608C2435.46 951.327 2434.19 948.22 2434.19 944.289C2434.19 940.551 2435.46 937.486 2437.99 935.094C2440.51 932.675 2444.27 931.108 2449.24 930.394L2460.33 928.909V928.043C2460.33 925.184 2459.59 923.109 2458.11 921.817C2456.62 920.525 2454.62 919.879 2452.09 919.879C2450.08 919.879 2448.03 920.236 2445.94 920.951C2443.88 921.666 2441.88 922.779 2439.92 924.291L2435.76 918.559C2438.34 916.58 2441.01 915.123 2443.76 914.189C2446.51 913.254 2449.53 912.787 2452.83 912.787C2458.49 912.787 2462.7 914.189 2465.45 916.992C2468.2 919.769 2469.57 923.947 2469.57 929.528V956ZM2460.33 938.847V935.259L2451.3 936.455C2448.64 936.84 2446.63 937.568 2445.28 938.64C2443.96 939.685 2443.3 941.224 2443.3 943.259C2443.3 945.32 2443.94 946.928 2445.2 948.083C2446.47 949.238 2448.09 949.815 2450.07 949.815C2453.17 949.815 2455.66 948.784 2457.53 946.722C2459.4 944.633 2460.33 942.008 2460.33 938.847ZM2544.66 956H2535.09V931.837C2535.09 927.878 2534.43 924.992 2533.11 923.178C2531.82 921.336 2529.73 920.415 2526.85 920.415C2524.29 920.415 2522.14 921.556 2520.41 923.837C2518.71 926.091 2517.86 928.854 2517.86 932.125V956H2508.29V931.259C2508.29 927.631 2507.59 924.923 2506.19 923.136C2504.81 921.322 2502.75 920.415 2500 920.415C2497.36 920.415 2495.22 921.501 2493.57 923.672C2491.92 925.817 2491.1 928.662 2491.1 932.208V956H2481.49V913.776H2491.1V920.415H2491.26C2492.69 917.996 2494.55 916.127 2496.83 914.807C2499.14 913.46 2501.73 912.787 2504.62 912.787C2507.53 912.787 2510.04 913.515 2512.12 914.972C2514.24 916.429 2515.77 918.477 2516.7 921.116C2518.3 918.339 2520.26 916.264 2522.6 914.89C2524.93 913.488 2527.67 912.787 2530.8 912.787C2535.42 912.787 2538.89 914.216 2541.19 917.075C2543.5 919.906 2544.66 924.167 2544.66 929.858V956ZM2592 937.403H2563.17C2563.34 941.389 2564.49 944.427 2566.64 946.516C2568.78 948.578 2571.78 949.609 2575.63 949.609C2577.19 949.609 2578.98 949.293 2580.99 948.66C2582.99 948.028 2584.97 947.011 2586.92 945.609L2591.25 951.588C2588.64 953.485 2585.99 954.859 2583.29 955.711C2580.6 956.564 2577.63 956.99 2574.39 956.99C2567.82 956.99 2562.71 955.107 2559.05 951.341C2555.39 947.547 2553.55 942.255 2553.52 935.465C2553.52 928.703 2555.41 923.233 2559.17 919.054C2562.97 914.876 2567.82 912.787 2573.73 912.787C2579.39 912.787 2583.84 914.573 2587.09 918.147C2590.36 921.693 2592 926.724 2592 933.239V937.403ZM2582.72 930.765C2582.72 927.136 2581.92 924.415 2580.33 922.6C2578.76 920.759 2576.53 919.838 2573.65 919.838C2570.92 919.838 2568.6 920.827 2566.68 922.806C2564.78 924.758 2563.61 927.411 2563.17 930.765H2582.72ZM2657.89 913.776L2645.48 956H2635.46L2627.83 928.208C2627.61 927.411 2627.46 926.669 2627.37 925.982C2627.29 925.267 2627.22 924.497 2627.17 923.672H2626.96C2626.91 924.552 2626.81 925.336 2626.67 926.023C2626.54 926.683 2626.36 927.383 2626.14 928.126L2617.93 956H2608.12L2595.71 913.776H2605.6L2613.02 943.63C2613.16 944.18 2613.29 944.812 2613.4 945.527C2613.51 946.214 2613.59 946.983 2613.64 947.836H2613.93C2613.99 947.066 2614.07 946.324 2614.18 945.609C2614.32 944.894 2614.48 944.193 2614.67 943.506L2623.29 913.776H2632.28L2639.99 943.671C2640.1 944.111 2640.2 944.688 2640.28 945.403C2640.39 946.09 2640.5 946.928 2640.61 947.918H2640.9C2640.95 947.258 2641.04 946.571 2641.15 945.856C2641.26 945.142 2641.41 944.413 2641.6 943.671L2648.77 913.776H2657.89ZM2683.78 956.99C2677.19 956.99 2671.95 955.024 2668.07 951.093C2664.22 947.135 2662.3 941.843 2662.3 935.218C2662.33 928.208 2664.33 922.724 2668.32 918.766C2672.31 914.78 2677.73 912.787 2684.61 912.787C2691.23 912.759 2696.4 914.711 2700.11 918.642C2703.85 922.545 2705.72 927.837 2705.72 934.517C2705.72 941.389 2703.74 946.86 2699.78 950.928C2695.85 954.969 2690.52 956.99 2683.78 956.99ZM2684.24 949.361C2688.06 949.361 2690.96 948.111 2692.94 945.609C2694.94 943.107 2695.95 939.493 2695.95 934.764C2695.95 930.091 2694.94 926.531 2692.94 924.085C2690.93 921.638 2688.02 920.415 2684.19 920.415C2680.43 920.415 2677.46 921.707 2675.29 924.291C2673.14 926.875 2672.07 930.449 2672.07 935.012C2672.07 939.603 2673.14 943.149 2675.29 945.65C2677.43 948.124 2680.42 949.361 2684.24 949.361ZM2739 921.817C2738.47 921.679 2737.96 921.583 2737.47 921.528C2737 921.446 2736.45 921.405 2735.82 921.405C2732.38 921.405 2729.74 922.669 2727.9 925.198C2726.06 927.727 2725.14 931.026 2725.14 935.094V956H2715.53V913.776H2725.14V921.899H2725.31C2726.3 918.985 2727.75 916.786 2729.68 915.302C2731.6 913.79 2733.87 913.034 2736.48 913.034C2737.22 913.034 2737.88 913.075 2738.46 913.158C2739.06 913.24 2739.64 913.364 2740.19 913.529L2739 921.817ZM2785.09 956H2772.81L2756.52 935.424H2756.35V956H2746.75V893.489H2756.35V933.198H2756.52L2771.9 913.776H2783.78L2766.17 933.898L2785.09 956ZM2847.89 896.582V935.218H2854.12V943.094H2847.89V956.33H2838.29V943.094H2810.83V935.218C2813.35 932.442 2815.91 929.445 2818.49 926.229C2821.11 922.985 2823.61 919.686 2826 916.333C2828.39 912.979 2830.6 909.625 2832.64 906.272C2834.7 902.89 2836.43 899.66 2837.83 896.582H2847.89ZM2820.56 935.218H2838.29V909.9C2836.64 912.704 2835.03 915.316 2833.46 917.735C2831.9 920.154 2830.38 922.394 2828.93 924.456C2827.41 926.545 2825.96 928.469 2824.56 930.229C2823.18 931.988 2821.85 933.651 2820.56 935.218ZM2866.99 956.948C2865.25 956.948 2863.81 956.399 2862.66 955.299C2861.5 954.199 2860.92 952.825 2860.92 951.176C2860.92 949.554 2861.5 948.193 2862.66 947.093C2863.81 945.966 2865.25 945.403 2866.99 945.403C2868.72 945.403 2870.16 945.966 2871.32 947.093C2872.5 948.193 2873.09 949.554 2873.09 951.176C2873.09 952.825 2872.5 954.199 2871.32 955.299C2870.16 956.399 2868.72 956.948 2866.99 956.948ZM2918.78 902.396C2913.91 911.275 2909.75 919.893 2906.28 928.249C2902.85 936.606 2900.39 945.856 2898.9 956H2889.13C2890.59 946.406 2893.17 937.28 2896.88 928.621C2900.59 919.961 2904.48 912.099 2908.55 905.035H2880.84V896.87H2918.78V902.396ZM2932.63 956.948C2930.9 956.948 2929.46 956.399 2928.3 955.299C2927.15 954.199 2926.57 952.825 2926.57 951.176C2926.57 949.554 2927.15 948.193 2928.3 947.093C2929.46 945.966 2930.9 945.403 2932.63 945.403C2934.36 945.403 2935.81 945.966 2936.96 947.093C2938.14 948.193 2938.73 949.554 2938.73 951.176C2938.73 952.825 2938.14 954.199 2936.96 955.299C2935.81 956.399 2934.36 956.948 2932.63 956.948ZM2947.89 956V952.371C2947.89 949.622 2948.26 947.176 2949 945.032C2949.77 942.888 2950.86 940.908 2952.26 939.094C2953.63 937.28 2955.3 935.575 2957.25 933.981C2959.2 932.359 2961.36 930.682 2963.72 928.95C2965.67 927.576 2967.32 926.256 2968.67 924.992C2970.04 923.7 2971.2 922.435 2972.13 921.198C2973.01 920.071 2973.67 918.821 2974.11 917.446C2974.55 916.044 2974.77 914.546 2974.77 912.952C2974.77 910.258 2973.97 908.045 2972.38 906.313C2970.79 904.581 2968.53 903.715 2965.62 903.715C2963.45 903.715 2961.16 904.182 2958.77 905.117C2956.38 906.024 2954.1 907.44 2951.93 909.364L2946.86 903.468C2949.77 900.856 2952.84 898.946 2956.05 897.736C2959.27 896.499 2962.83 895.881 2966.73 895.881C2972.34 895.881 2976.7 897.461 2979.8 900.623C2982.91 903.784 2984.46 907.522 2984.46 911.838C2984.46 914.615 2984.1 917.034 2983.39 919.095C2982.68 921.13 2981.71 922.958 2980.5 924.58C2979.27 926.311 2977.8 927.933 2976.09 929.445C2974.41 930.957 2972.53 932.455 2970.44 933.94C2968.33 935.424 2966.5 936.757 2964.96 937.939C2963.42 939.094 2962.15 940.194 2961.16 941.238C2960.15 942.31 2959.39 943.369 2958.9 944.413C2958.43 945.458 2958.2 946.585 2958.2 947.794H2985.66V956H2947.89ZM3051.47 956H3042.19V949.65H3042.03C3040.6 952.096 3038.82 953.938 3036.71 955.175C3034.59 956.385 3032.16 956.99 3029.41 956.99C3025.59 956.99 3022.41 955.863 3019.88 953.608C3017.35 951.327 3016.09 948.22 3016.09 944.289C3016.09 940.551 3017.35 937.486 3019.88 935.094C3022.41 932.675 3026.16 931.108 3031.14 930.394L3042.23 928.909V928.043C3042.23 925.184 3041.49 923.109 3040 921.817C3038.52 920.525 3036.51 919.879 3033.98 919.879C3031.98 919.879 3029.93 920.236 3027.84 920.951C3025.78 921.666 3023.77 922.779 3021.82 924.291L3017.66 918.559C3020.24 916.58 3022.91 915.123 3025.66 914.189C3028.4 913.254 3031.43 912.787 3034.73 912.787C3040.39 912.787 3044.6 914.189 3047.34 916.992C3050.09 919.769 3051.47 923.947 3051.47 929.528V956ZM3042.23 938.847V935.259L3033.2 936.455C3030.53 936.84 3028.53 937.568 3027.18 938.64C3025.86 939.685 3025.2 941.224 3025.2 943.259C3025.2 945.32 3025.83 946.928 3027.1 948.083C3028.36 949.238 3029.98 949.815 3031.96 949.815C3035.07 949.815 3037.56 948.784 3039.43 946.722C3041.3 944.633 3042.23 942.008 3042.23 938.847ZM3100.99 956H3091.42V932.208C3091.42 928.277 3090.71 925.336 3089.28 923.384C3087.85 921.405 3085.71 920.415 3082.85 920.415C3079.99 920.415 3077.62 921.501 3075.75 923.672C3073.89 925.844 3072.95 928.593 3072.95 931.919V956H3063.34V913.776H3072.95V920.621H3073.12C3074.68 918.01 3076.61 916.058 3078.89 914.766C3081.17 913.446 3083.82 912.787 3086.85 912.787C3091.46 912.787 3094.97 914.257 3097.36 917.199C3099.78 920.14 3100.99 924.47 3100.99 930.187V956ZM3141.32 949.444C3139.81 951.973 3137.89 953.87 3135.59 955.134C3133.28 956.371 3130.57 956.99 3127.46 956.99C3122.18 956.99 3117.94 955.12 3114.72 951.382C3111.53 947.616 3109.94 942.448 3109.94 935.878C3109.94 928.895 3111.7 923.301 3115.22 919.095C3118.76 914.89 3123.44 912.787 3129.24 912.787C3132.07 912.787 3134.49 913.323 3136.49 914.395C3138.5 915.439 3140.11 917.034 3141.32 919.178H3141.48V893.489H3151.09V956H3141.48V949.444H3141.32ZM3119.71 935.507C3119.71 939.85 3120.69 943.245 3122.64 945.691C3124.59 948.138 3127.24 949.361 3130.6 949.361C3133.87 949.361 3136.52 948.138 3138.55 945.691C3140.59 943.245 3141.61 940.097 3141.61 936.249V931.424C3141.61 928.291 3140.63 925.679 3138.68 923.59C3136.73 921.473 3134.22 920.415 3131.17 920.415C3127.6 920.415 3124.8 921.762 3122.76 924.456C3120.73 927.122 3119.71 930.806 3119.71 935.507ZM3197.68 935.342V956H3187.87V896.87H3206.22C3213.04 896.87 3218.23 898.465 3221.81 901.653C3225.41 904.815 3227.21 909.419 3227.21 915.467C3227.21 921.35 3225.19 926.133 3221.15 929.816C3217.11 933.5 3211.66 935.342 3204.82 935.342H3197.68ZM3197.68 904.911V927.342H3204.03C3208.27 927.342 3211.47 926.366 3213.64 924.415C3215.81 922.435 3216.9 919.59 3216.9 915.879C3216.9 912.223 3215.87 909.488 3213.81 907.674C3211.74 905.832 3208.65 904.911 3204.53 904.911H3197.68ZM3251.82 956.99C3245.23 956.99 3239.99 955.024 3236.11 951.093C3232.27 947.135 3230.34 941.843 3230.34 935.218C3230.37 928.208 3232.38 922.724 3236.36 918.766C3240.35 914.78 3245.78 912.787 3252.65 912.787C3259.27 912.759 3264.44 914.711 3268.15 918.642C3271.89 922.545 3273.76 927.837 3273.76 934.517C3273.76 941.389 3271.78 946.86 3267.82 950.928C3263.89 954.969 3258.56 956.99 3251.82 956.99ZM3252.28 949.361C3256.1 949.361 3259 948.111 3260.98 945.609C3262.99 943.107 3263.99 939.493 3263.99 934.764C3263.99 930.091 3262.99 926.531 3260.98 924.085C3258.97 921.638 3256.06 920.415 3252.24 920.415C3248.47 920.415 3245.5 921.707 3243.33 924.291C3241.19 926.875 3240.11 930.449 3240.11 935.012C3240.11 939.603 3241.19 943.149 3243.33 945.65C3245.47 948.124 3248.46 949.361 3252.28 949.361ZM3340.31 913.776L3327.9 956H3317.88L3310.25 928.208C3310.03 927.411 3309.88 926.669 3309.8 925.982C3309.72 925.267 3309.65 924.497 3309.59 923.672H3309.39C3309.33 924.552 3309.24 925.336 3309.1 926.023C3308.96 926.683 3308.78 927.383 3308.56 928.126L3300.36 956H3290.54L3278.13 913.776H3288.03L3295.45 943.63C3295.59 944.18 3295.71 944.812 3295.82 945.527C3295.93 946.214 3296.01 946.983 3296.07 947.836H3296.36C3296.41 947.066 3296.49 946.324 3296.6 945.609C3296.74 944.894 3296.91 944.193 3297.1 943.506L3305.72 913.776H3314.71L3322.42 943.671C3322.53 944.111 3322.62 944.688 3322.71 945.403C3322.82 946.09 3322.93 946.928 3323.04 947.918H3323.32C3323.38 947.258 3323.46 946.571 3323.57 945.856C3323.68 945.142 3323.83 944.413 3324.03 943.671L3331.2 913.776H3340.31ZM3383.2 937.403H3354.37C3354.54 941.389 3355.69 944.427 3357.84 946.516C3359.98 948.578 3362.98 949.609 3366.83 949.609C3368.39 949.609 3370.18 949.293 3372.19 948.66C3374.19 948.028 3376.17 947.011 3378.12 945.609L3382.45 951.588C3379.84 953.485 3377.19 954.859 3374.5 955.711C3371.8 956.564 3368.83 956.99 3365.59 956.99C3359.02 956.99 3353.91 955.107 3350.25 951.341C3346.59 947.547 3344.75 942.255 3344.73 935.465C3344.73 928.703 3346.61 923.233 3350.37 919.054C3354.17 914.876 3359.02 912.787 3364.93 912.787C3370.59 912.787 3375.05 914.573 3378.29 918.147C3381.56 921.693 3383.2 926.724 3383.2 933.239V937.403ZM3373.92 930.765C3373.92 927.136 3373.12 924.415 3371.53 922.6C3369.96 920.759 3367.73 919.838 3364.85 919.838C3362.13 919.838 3359.8 920.827 3357.88 922.806C3355.98 924.758 3354.81 927.411 3354.37 930.765H3373.92ZM3415.81 921.817C3415.29 921.679 3414.78 921.583 3414.29 921.528C3413.82 921.446 3413.27 921.405 3412.64 921.405C3409.2 921.405 3406.56 922.669 3404.72 925.198C3402.88 927.727 3401.96 931.026 3401.96 935.094V956H3392.35V913.776H3401.96V921.899H3402.12C3403.11 918.985 3404.57 916.786 3406.49 915.302C3408.42 913.79 3410.69 913.034 3413.3 913.034C3414.04 913.034 3414.7 913.075 3415.28 913.158C3415.88 913.24 3416.46 913.364 3417.01 913.529L3415.81 921.817ZM3419.65 951.753L3424.02 944.207C3426.68 945.856 3429.17 947.025 3431.48 947.712C3433.79 948.372 3436.37 948.702 3439.23 948.702C3442.64 948.702 3445.32 947.973 3447.27 946.516C3449.25 945.032 3450.24 942.915 3450.24 940.166C3450.24 937.665 3449.42 935.699 3447.77 934.27C3446.15 932.813 3443.38 931.479 3439.48 930.27C3433.46 928.483 3429.04 926.27 3426.2 923.631C3423.37 920.992 3421.96 917.419 3421.96 912.91C3421.96 908.017 3423.78 903.962 3427.44 900.746C3431.1 897.502 3436.06 895.881 3442.33 895.881C3445.08 895.881 3447.78 896.183 3450.45 896.788C3453.12 897.393 3455.76 898.327 3458.37 899.592L3454.7 907.426C3452.42 906.244 3450.23 905.406 3448.14 904.911C3446.08 904.416 3443.98 904.169 3441.83 904.169C3438.7 904.169 3436.22 904.856 3434.41 906.23C3432.62 907.605 3431.73 909.543 3431.73 912.044C3431.73 914.271 3432.55 916.03 3434.2 917.322C3435.85 918.587 3438.68 919.838 3442.7 921.075C3448.86 922.916 3453.28 925.212 3455.97 927.961C3458.7 930.71 3460.06 934.49 3460.06 939.3C3460.06 944.468 3458.22 948.715 3454.53 952.042C3450.85 955.34 3445.6 956.99 3438.78 956.99C3435.37 956.99 3432.05 956.564 3428.8 955.711C3425.56 954.832 3422.51 953.512 3419.65 951.753ZM3507.11 956H3497.54V931.837C3497.54 928.016 3496.84 925.157 3495.44 923.26C3494.03 921.363 3491.92 920.415 3489.09 920.415C3486.25 920.415 3483.89 921.501 3481.99 923.672C3480.12 925.844 3479.19 928.621 3479.19 932.002V956H3469.58V893.489H3479.19V920.456H3479.35C3480.95 917.872 3482.87 915.948 3485.13 914.683C3487.38 913.419 3489.94 912.787 3492.8 912.787C3497.55 912.787 3501.13 914.23 3503.52 917.116C3505.91 919.975 3507.11 924.277 3507.11 930.022V956ZM3554.48 937.403H3525.66C3525.83 941.389 3526.98 944.427 3529.12 946.516C3531.27 948.578 3534.26 949.609 3538.11 949.609C3539.68 949.609 3541.47 949.293 3543.47 948.66C3545.48 948.028 3547.46 947.011 3549.41 945.609L3553.74 951.588C3551.13 953.485 3548.48 954.859 3545.78 955.711C3543.09 956.564 3540.12 956.99 3536.88 956.99C3530.31 956.99 3525.19 955.107 3521.54 951.341C3517.88 947.547 3516.04 942.255 3516.01 935.465C3516.01 928.703 3517.89 923.233 3521.66 919.054C3525.45 914.876 3530.31 912.787 3536.22 912.787C3541.88 912.787 3546.33 914.573 3549.58 918.147C3552.85 921.693 3554.48 926.724 3554.48 933.239V937.403ZM3545.21 930.765C3545.21 927.136 3544.41 924.415 3542.81 922.6C3541.25 920.759 3539.02 919.838 3536.13 919.838C3533.41 919.838 3531.09 920.827 3529.17 922.806C3527.27 924.758 3526.1 927.411 3525.66 930.765H3545.21ZM3563.6 956V893.489H3573.2V956H3563.6ZM3585.7 956V893.489H3595.31V956H3585.7ZM3628.95 951.052L3633.61 944.949C3635.59 946.489 3637.63 947.616 3639.71 948.33C3641.8 949.018 3643.99 949.361 3646.27 949.361C3649.76 949.361 3652.57 948.33 3654.68 946.269C3656.8 944.207 3657.86 941.568 3657.86 938.352C3657.86 934.778 3656.68 932.07 3654.31 930.229C3651.95 928.359 3648.48 927.425 3643.92 927.425C3642.35 927.425 3640.66 927.48 3638.85 927.59C3637.03 927.7 3635.3 927.851 3633.65 928.043L3635.76 896.87H3664.87V905.035H3643.47L3642.44 919.879C3643.4 919.824 3644.35 919.783 3645.28 919.755C3646.24 919.7 3647.11 919.673 3647.88 919.673C3654.04 919.673 3658.86 921.267 3662.35 924.456C3665.84 927.617 3667.59 931.988 3667.59 937.568C3667.59 943.314 3665.66 948.001 3661.82 951.629C3657.99 955.23 3652.92 957.031 3646.6 957.031C3643.19 957.031 3640.07 956.55 3637.24 955.588C3634.41 954.626 3631.65 953.114 3628.95 951.052ZM3681.94 956.948C3680.21 956.948 3678.76 956.399 3677.61 955.299C3676.45 954.199 3675.88 952.825 3675.88 951.176C3675.88 949.554 3676.45 948.193 3677.61 947.093C3678.76 945.966 3680.21 945.403 3681.94 945.403C3683.67 945.403 3685.11 945.966 3686.27 947.093C3687.45 948.193 3688.04 949.554 3688.04 951.176C3688.04 952.825 3687.45 954.199 3686.27 955.299C3685.11 956.399 3683.67 956.948 3681.94 956.948ZM3716.78 956H3707.21V907.88C3705.98 908.814 3704.23 909.79 3701.98 910.807C3699.72 911.797 3697.55 912.594 3695.46 913.199L3692.82 905.241C3696.26 904.306 3699.71 902.959 3703.17 901.2C3706.64 899.413 3709.52 897.53 3711.83 895.551H3716.78V956Z" fill="#787878"/>
<path d="M1833.49 1110V1050.87H1852.46C1858.26 1050.87 1862.77 1052.11 1865.99 1054.58C1869.23 1057.03 1870.85 1060.42 1870.85 1064.77C1870.85 1068.04 1869.92 1070.9 1868.05 1073.34C1866.21 1075.76 1863.74 1077.47 1860.67 1078.46V1078.62C1864.57 1079.09 1867.69 1080.59 1870.03 1083.12C1872.36 1085.64 1873.53 1088.85 1873.53 1092.72C1873.53 1097.95 1871.66 1102.14 1867.92 1105.3C1864.18 1108.43 1859.28 1110 1853.2 1110H1833.49ZM1843.31 1058.75V1075.73H1849.86C1853.16 1075.73 1855.76 1074.94 1857.66 1073.34C1859.58 1071.75 1860.54 1069.51 1860.54 1066.62C1860.54 1063.98 1859.65 1062.02 1857.86 1060.73C1856.1 1059.41 1853.46 1058.75 1849.95 1058.75H1843.31ZM1843.31 1083.61V1102.12H1851.72C1855.35 1102.12 1858.16 1101.27 1860.17 1099.57C1862.21 1097.86 1863.22 1095.54 1863.22 1092.6C1863.22 1089.66 1862.18 1087.43 1860.09 1085.92C1858 1084.38 1854.96 1083.61 1850.98 1083.61H1843.31ZM1919.22 1091.4H1890.4C1890.56 1095.39 1891.72 1098.43 1893.86 1100.52C1896 1102.58 1899 1103.61 1902.85 1103.61C1904.42 1103.61 1906.2 1103.29 1908.21 1102.66C1910.22 1102.03 1912.2 1101.01 1914.15 1099.61L1918.48 1105.59C1915.86 1107.48 1913.21 1108.86 1910.52 1109.71C1907.82 1110.56 1904.86 1110.99 1901.61 1110.99C1895.04 1110.99 1889.93 1109.11 1886.27 1105.34C1882.62 1101.55 1880.77 1096.26 1880.75 1089.47C1880.75 1082.7 1882.63 1077.23 1886.4 1073.05C1890.19 1068.88 1895.04 1066.79 1900.95 1066.79C1906.61 1066.79 1911.07 1068.57 1914.31 1072.15C1917.58 1075.69 1919.22 1080.72 1919.22 1087.24V1091.4ZM1909.94 1084.76C1909.94 1081.14 1909.14 1078.41 1907.55 1076.6C1905.98 1074.76 1903.76 1073.84 1900.87 1073.84C1898.15 1073.84 1895.83 1074.83 1893.9 1076.81C1892 1078.76 1890.84 1081.41 1890.4 1084.76H1909.94ZM1960.58 1110H1951.3V1103.65H1951.13C1949.7 1106.1 1947.93 1107.94 1945.81 1109.18C1943.7 1110.38 1941.27 1110.99 1938.52 1110.99C1934.7 1110.99 1931.52 1109.86 1928.99 1107.61C1926.46 1105.33 1925.2 1102.22 1925.2 1098.29C1925.2 1094.55 1926.46 1091.49 1928.99 1089.09C1931.52 1086.68 1935.27 1085.11 1940.25 1084.39L1951.34 1082.91V1082.04C1951.34 1079.18 1950.6 1077.11 1949.11 1075.82C1947.63 1074.52 1945.62 1073.88 1943.09 1073.88C1941.09 1073.88 1939.04 1074.24 1936.95 1074.95C1934.89 1075.67 1932.88 1076.78 1930.93 1078.29L1926.76 1072.56C1929.35 1070.58 1932.01 1069.12 1934.76 1068.19C1937.51 1067.25 1940.54 1066.79 1943.84 1066.79C1949.5 1066.79 1953.7 1068.19 1956.45 1070.99C1959.2 1073.77 1960.58 1077.95 1960.58 1083.53V1110ZM1951.34 1092.85V1089.26L1942.31 1090.46C1939.64 1090.84 1937.64 1091.57 1936.29 1092.64C1934.97 1093.69 1934.31 1095.22 1934.31 1097.26C1934.31 1099.32 1934.94 1100.93 1936.21 1102.08C1937.47 1103.24 1939.09 1103.81 1941.07 1103.81C1944.18 1103.81 1946.67 1102.78 1948.54 1100.72C1950.41 1098.63 1951.34 1096.01 1951.34 1092.85ZM2009.32 1110H1999.71V1103.44H1999.54C1998.06 1105.95 1996.23 1107.83 1994.06 1109.09C1991.89 1110.36 1989.39 1110.99 1986.55 1110.99C1981.61 1110.99 1977.88 1109.51 1975.38 1106.54C1972.91 1103.57 1971.67 1099.1 1971.67 1093.14V1067.78H1981.19V1092.02C1981.19 1095.82 1981.92 1098.66 1983.38 1100.56C1984.86 1102.43 1987.08 1103.36 1990.02 1103.36C1992.88 1103.36 1995.2 1102.33 1996.99 1100.27C1998.8 1098.21 1999.71 1095.46 1999.71 1092.02V1067.78H2009.32V1110ZM2044.78 1109.42C2043.54 1109.95 2042.25 1110.33 2040.9 1110.58C2039.55 1110.82 2038.11 1110.95 2036.57 1110.95C2032.67 1110.95 2029.66 1109.92 2027.54 1107.86C2025.45 1105.77 2024.41 1102.66 2024.41 1098.54V1075.28H2017.31V1067.78H2024.41V1057.51L2033.97 1054.62V1067.78H2044.08V1075.28H2033.97V1097.75C2033.97 1099.82 2034.34 1101.3 2035.09 1102.21C2035.86 1103.11 2037.04 1103.57 2038.63 1103.57C2039.4 1103.57 2040.13 1103.49 2040.82 1103.32C2041.53 1103.13 2042.17 1102.89 2042.71 1102.62L2044.78 1109.42ZM2057.15 1059.61C2055.39 1059.61 2053.93 1059.05 2052.78 1057.92C2051.62 1056.79 2051.04 1055.41 2051.04 1053.76C2051.04 1052.05 2051.62 1050.65 2052.78 1049.55C2053.93 1048.45 2055.39 1047.9 2057.15 1047.9C2058.93 1047.9 2060.4 1048.45 2061.56 1049.55C2062.71 1050.65 2063.29 1052.05 2063.29 1053.76C2063.29 1055.43 2062.71 1056.84 2061.56 1057.96C2060.4 1059.06 2058.93 1059.61 2057.15 1059.61ZM2061.89 1110H2052.28V1067.78H2061.89V1110ZM2097.23 1055.03C2096.46 1054.73 2095.76 1054.53 2095.12 1054.42C2094.49 1054.28 2093.8 1054.21 2093.06 1054.21C2091.03 1054.21 2089.49 1054.8 2088.44 1055.98C2087.43 1057.14 2086.92 1058.81 2086.92 1061.01V1067.78H2096.69V1075.28H2086.92V1110H2077.35V1075.28H2070.18V1067.78H2077.35V1060.52C2077.35 1056.23 2078.73 1052.84 2081.48 1050.33C2084.25 1047.81 2087.92 1046.54 2092.48 1046.54C2093.91 1046.54 2095.15 1046.64 2096.2 1046.83C2097.24 1047.02 2098.33 1047.3 2099.45 1047.65L2097.23 1055.03ZM2140.36 1110H2130.75V1103.44H2130.58C2129.1 1105.95 2127.27 1107.83 2125.1 1109.09C2122.93 1110.36 2120.43 1110.99 2117.6 1110.99C2112.65 1110.99 2108.92 1109.51 2106.42 1106.54C2103.95 1103.57 2102.71 1099.1 2102.71 1093.14V1067.78H2112.24V1092.02C2112.24 1095.82 2112.96 1098.66 2114.42 1100.56C2115.91 1102.43 2118.12 1103.36 2121.06 1103.36C2123.92 1103.36 2126.24 1102.33 2128.03 1100.27C2129.84 1098.21 2130.75 1095.46 2130.75 1092.02V1067.78H2140.36V1110ZM2152.81 1110V1047.49H2162.42V1110H2152.81ZM2261.38 1110H2251.81V1085.84C2251.81 1081.88 2251.15 1078.99 2249.83 1077.18C2248.54 1075.34 2246.45 1074.41 2243.57 1074.41C2241.01 1074.41 2238.87 1075.56 2237.13 1077.84C2235.43 1080.09 2234.58 1082.85 2234.58 1086.13V1110H2225.01V1085.26C2225.01 1081.63 2224.31 1078.92 2222.91 1077.14C2221.53 1075.32 2219.47 1074.41 2216.72 1074.41C2214.08 1074.41 2211.94 1075.5 2210.29 1077.67C2208.64 1079.82 2207.82 1082.66 2207.82 1086.21V1110H2198.21V1067.78H2207.82V1074.41H2207.98C2209.41 1072 2211.27 1070.13 2213.55 1068.81C2215.86 1067.46 2218.45 1066.79 2221.34 1066.79C2224.26 1066.79 2226.76 1067.52 2228.85 1068.97C2230.96 1070.43 2232.49 1072.48 2233.42 1075.12C2235.02 1072.34 2236.98 1070.26 2239.32 1068.89C2241.66 1067.49 2244.39 1066.79 2247.53 1066.79C2252.14 1066.79 2255.61 1068.22 2257.92 1071.07C2260.23 1073.91 2261.38 1078.17 2261.38 1083.86V1110ZM2291.73 1110.99C2285.13 1110.99 2279.89 1109.02 2276.02 1105.09C2272.17 1101.13 2270.25 1095.84 2270.25 1089.22C2270.27 1082.21 2272.28 1076.72 2276.27 1072.77C2280.25 1068.78 2285.68 1066.79 2292.55 1066.79C2299.18 1066.76 2304.35 1068.71 2308.06 1072.64C2311.8 1076.55 2313.66 1081.84 2313.66 1088.52C2313.66 1095.39 2311.69 1100.86 2307.73 1104.93C2303.8 1108.97 2298.46 1110.99 2291.73 1110.99ZM2292.18 1103.36C2296 1103.36 2298.9 1102.11 2300.88 1099.61C2302.89 1097.11 2303.89 1093.49 2303.89 1088.76C2303.89 1084.09 2302.89 1080.53 2300.88 1078.08C2298.88 1075.64 2295.96 1074.41 2292.14 1074.41C2288.37 1074.41 2285.41 1075.71 2283.23 1078.29C2281.09 1080.87 2280.02 1084.45 2280.02 1089.01C2280.02 1093.6 2281.09 1097.15 2283.23 1099.65C2285.38 1102.12 2288.36 1103.36 2292.18 1103.36ZM2352.09 1103.44C2350.58 1105.97 2348.67 1107.87 2346.36 1109.13C2344.05 1110.37 2341.35 1110.99 2338.24 1110.99C2332.96 1110.99 2328.72 1109.12 2325.5 1105.38C2322.31 1101.62 2320.72 1096.45 2320.72 1089.88C2320.72 1082.9 2322.48 1077.3 2325.99 1073.1C2329.54 1068.89 2334.21 1066.79 2340.01 1066.79C2342.84 1066.79 2345.26 1067.32 2347.27 1068.39C2349.28 1069.44 2350.89 1071.03 2352.09 1073.18H2352.26V1047.49H2361.87V1110H2352.26V1103.44H2352.09ZM2330.49 1089.51C2330.49 1093.85 2331.46 1097.24 2333.42 1099.69C2335.37 1102.14 2338.02 1103.36 2341.37 1103.36C2344.65 1103.36 2347.3 1102.14 2349.33 1099.69C2351.37 1097.24 2352.38 1094.1 2352.38 1090.25V1085.42C2352.38 1082.29 2351.41 1079.68 2349.46 1077.59C2347.5 1075.47 2345 1074.41 2341.95 1074.41C2338.38 1074.41 2335.57 1075.76 2333.54 1078.46C2331.51 1081.12 2330.49 1084.81 2330.49 1089.51ZM2410.07 1091.4H2381.25C2381.41 1095.39 2382.57 1098.43 2384.71 1100.52C2386.86 1102.58 2389.85 1103.61 2393.7 1103.61C2395.27 1103.61 2397.05 1103.29 2399.06 1102.66C2401.07 1102.03 2403.05 1101.01 2405 1099.61L2409.33 1105.59C2406.72 1107.48 2404.06 1108.86 2401.37 1109.71C2398.68 1110.56 2395.71 1110.99 2392.46 1110.99C2385.89 1110.99 2380.78 1109.11 2377.12 1105.34C2373.47 1101.55 2371.63 1096.26 2371.6 1089.47C2371.6 1082.7 2373.48 1077.23 2377.25 1073.05C2381.04 1068.88 2385.89 1066.79 2391.8 1066.79C2397.47 1066.79 2401.92 1068.57 2405.16 1072.15C2408.43 1075.69 2410.07 1080.72 2410.07 1087.24V1091.4ZM2400.79 1084.76C2400.79 1081.14 2400 1078.41 2398.4 1076.6C2396.83 1074.76 2394.61 1073.84 2391.72 1073.84C2389 1073.84 2386.68 1074.83 2384.75 1076.81C2382.86 1078.76 2381.69 1081.41 2381.25 1084.76H2400.79ZM2442.69 1075.82C2442.16 1075.68 2441.66 1075.58 2441.16 1075.53C2440.69 1075.45 2440.14 1075.4 2439.51 1075.4C2436.08 1075.4 2433.44 1076.67 2431.59 1079.2C2429.75 1081.73 2428.83 1085.03 2428.83 1089.09V1110H2419.22V1067.78H2428.83V1075.9H2429C2429.99 1072.99 2431.44 1070.79 2433.37 1069.3C2435.29 1067.79 2437.56 1067.03 2440.17 1067.03C2440.91 1067.03 2441.57 1067.08 2442.15 1067.16C2442.76 1067.24 2443.33 1067.36 2443.88 1067.53L2442.69 1075.82ZM2488.42 1110H2478.85V1086.21C2478.85 1082.28 2478.13 1079.34 2476.7 1077.38C2475.28 1075.4 2473.13 1074.41 2470.27 1074.41C2467.41 1074.41 2465.05 1075.5 2463.18 1077.67C2461.31 1079.84 2460.38 1082.59 2460.38 1085.92V1110H2450.77V1067.78H2460.38V1074.62H2460.54C2462.11 1072.01 2464.03 1070.06 2466.31 1068.77C2468.6 1067.45 2471.25 1066.79 2474.27 1066.79C2478.89 1066.79 2482.39 1068.26 2484.79 1071.2C2487.21 1074.14 2488.42 1078.47 2488.42 1084.19V1110ZM2597.69 1050.87L2581.48 1110H2570.35L2559.26 1069.18C2559.01 1068.22 2558.8 1067.21 2558.64 1066.17C2558.47 1065.1 2558.36 1064 2558.31 1062.87H2558.14C2558.06 1064.02 2557.92 1065.12 2557.73 1066.17C2557.56 1067.21 2557.34 1068.2 2557.07 1069.14L2545.81 1110H2534.47L2517.94 1050.87H2528.7L2539.38 1093.55C2539.6 1094.43 2539.78 1095.39 2539.92 1096.43C2540.08 1097.48 2540.19 1098.62 2540.25 1099.86H2540.49C2540.55 1098.95 2540.67 1097.97 2540.86 1096.93C2541.08 1095.86 2541.37 1094.7 2541.73 1093.47L2553.73 1050.87H2563.83L2575.05 1093.88C2575.27 1094.62 2575.46 1095.49 2575.63 1096.48C2575.79 1097.46 2575.93 1098.56 2576.04 1099.77H2576.2C2576.26 1098.87 2576.37 1097.92 2576.53 1096.93C2576.72 1095.91 2576.94 1094.83 2577.19 1093.67L2587.5 1050.87H2597.69ZM2615.79 1089.34V1110H2605.97V1050.87H2624.32C2631.14 1050.87 2636.34 1052.46 2639.91 1055.65C2643.51 1058.81 2645.31 1063.42 2645.31 1069.47C2645.31 1075.35 2643.29 1080.13 2639.25 1083.82C2635.21 1087.5 2629.77 1089.34 2622.92 1089.34H2615.79ZM2615.79 1058.91V1081.34H2622.14C2626.37 1081.34 2629.57 1080.37 2631.75 1078.41C2633.92 1076.44 2635 1073.59 2635 1069.88C2635 1066.22 2633.97 1063.49 2631.91 1061.67C2629.85 1059.83 2626.76 1058.91 2622.63 1058.91H2615.79ZM2687.29 1059.2H2665.19V1076.97H2685.56V1085.26H2665.19V1110H2655.37V1050.87H2687.29V1059.2ZM2752.27 1110H2742.99V1103.65H2742.83C2741.4 1106.1 2739.63 1107.94 2737.51 1109.18C2735.39 1110.38 2732.96 1110.99 2730.21 1110.99C2726.39 1110.99 2723.22 1109.86 2720.69 1107.61C2718.16 1105.33 2716.89 1102.22 2716.89 1098.29C2716.89 1094.55 2718.16 1091.49 2720.69 1089.09C2723.22 1086.68 2726.97 1085.11 2731.94 1084.39L2743.04 1082.91V1082.04C2743.04 1079.18 2742.29 1077.11 2740.81 1075.82C2739.33 1074.52 2737.32 1073.88 2734.79 1073.88C2732.78 1073.88 2730.73 1074.24 2728.65 1074.95C2726.58 1075.67 2724.58 1076.78 2722.63 1078.29L2718.46 1072.56C2721.04 1070.58 2723.71 1069.12 2726.46 1068.19C2729.21 1067.25 2732.23 1066.79 2735.53 1066.79C2741.19 1066.79 2745.4 1068.19 2748.15 1070.99C2750.9 1073.77 2752.27 1077.95 2752.27 1083.53V1110ZM2743.04 1092.85V1089.26L2734.01 1090.46C2731.34 1090.84 2729.33 1091.57 2727.99 1092.64C2726.67 1093.69 2726.01 1095.22 2726.01 1097.26C2726.01 1099.32 2726.64 1100.93 2727.9 1102.08C2729.17 1103.24 2730.79 1103.81 2732.77 1103.81C2735.88 1103.81 2738.36 1102.78 2740.23 1100.72C2742.1 1098.63 2743.04 1096.01 2743.04 1092.85ZM2773.92 1104.43H2773.76V1129.42H2764.15V1067.78H2773.76V1074.7H2773.92C2775.54 1072.06 2777.54 1070.09 2779.9 1068.77C2782.26 1067.45 2784.97 1066.79 2788.02 1066.79C2793.47 1066.79 2797.7 1068.67 2800.72 1072.44C2803.77 1076.2 2805.3 1081.27 2805.3 1087.65C2805.3 1094.72 2803.57 1100.38 2800.1 1104.64C2796.64 1108.87 2791.97 1110.99 2786.08 1110.99C2783.45 1110.99 2781.11 1110.45 2779.07 1109.38C2777.04 1108.28 2775.32 1106.63 2773.92 1104.43ZM2773.63 1087.28V1092.02C2773.63 1095.27 2774.61 1097.97 2776.56 1100.15C2778.51 1102.29 2781 1103.36 2784.02 1103.36C2787.62 1103.36 2790.43 1101.99 2792.43 1099.24C2794.44 1096.49 2795.44 1092.64 2795.44 1087.69C2795.44 1083.43 2794.52 1080.16 2792.68 1077.88C2790.84 1075.57 2788.26 1074.41 2784.93 1074.41C2781.55 1074.41 2778.81 1075.62 2776.72 1078.04C2774.66 1080.44 2773.63 1083.51 2773.63 1087.28ZM2824.8 1104.43H2824.64V1129.42H2815.03V1067.78H2824.64V1074.7H2824.8C2826.43 1072.06 2828.42 1070.09 2830.78 1068.77C2833.15 1067.45 2835.85 1066.79 2838.91 1066.79C2844.35 1066.79 2848.58 1068.67 2851.61 1072.44C2854.66 1076.2 2856.18 1081.27 2856.18 1087.65C2856.18 1094.72 2854.45 1100.38 2850.99 1104.64C2847.52 1108.87 2842.85 1110.99 2836.97 1110.99C2834.33 1110.99 2831.99 1110.45 2829.96 1109.38C2827.92 1108.28 2826.21 1106.63 2824.8 1104.43ZM2824.51 1087.28V1092.02C2824.51 1095.27 2825.49 1097.97 2827.44 1100.15C2829.39 1102.29 2831.88 1103.36 2834.91 1103.36C2838.51 1103.36 2841.31 1101.99 2843.32 1099.24C2845.32 1096.49 2846.33 1092.64 2846.33 1087.69C2846.33 1083.43 2845.41 1080.16 2843.56 1077.88C2841.72 1075.57 2839.14 1074.41 2835.81 1074.41C2832.43 1074.41 2829.7 1075.62 2827.61 1078.04C2825.55 1080.44 2824.51 1083.51 2824.51 1087.28ZM2861.83 1106.62L2866 1099.86C2867.65 1101.01 2869.39 1101.95 2871.23 1102.66C2873.1 1103.35 2875.12 1103.69 2877.29 1103.69C2879.66 1103.69 2881.49 1103.27 2882.78 1102.41C2884.1 1101.53 2884.76 1100.23 2884.76 1098.5C2884.76 1097.12 2884.21 1095.98 2883.11 1095.07C2882.04 1094.14 2880.19 1093.37 2877.58 1092.76C2872.31 1091.53 2868.59 1089.89 2866.45 1087.86C2864.33 1085.82 2863.27 1083.14 2863.27 1079.82C2863.27 1076 2864.76 1072.88 2867.73 1070.46C2870.7 1068.01 2874.59 1066.79 2879.4 1066.79C2881.79 1066.79 2884.07 1067.1 2886.24 1067.73C2888.41 1068.34 2890.53 1069.32 2892.59 1070.66L2888.72 1077.26C2886.9 1076.11 2885.24 1075.28 2883.73 1074.79C2882.22 1074.29 2880.66 1074.04 2879.07 1074.04C2876.81 1074.04 2875.05 1074.47 2873.79 1075.32C2872.55 1076.15 2871.93 1077.3 2871.93 1078.79C2871.93 1080.35 2872.57 1081.52 2873.83 1082.29C2875.12 1083.03 2877.28 1083.76 2880.3 1084.48C2884.87 1085.58 2888.21 1087.17 2890.32 1089.26C2892.44 1091.32 2893.5 1094.08 2893.5 1097.55C2893.5 1101.64 2892 1104.91 2889 1107.36C2886.04 1109.78 2882.01 1110.99 2876.92 1110.99C2874.17 1110.99 2871.54 1110.63 2869.01 1109.92C2866.5 1109.18 2864.11 1108.08 2861.83 1106.62ZM2929.58 1110.95C2927.85 1110.95 2926.4 1110.4 2925.25 1109.3C2924.1 1108.2 2923.52 1106.82 2923.52 1105.18C2923.52 1103.55 2924.1 1102.19 2925.25 1101.09C2926.4 1099.97 2927.85 1099.4 2929.58 1099.4C2931.31 1099.4 2932.75 1099.97 2933.91 1101.09C2935.09 1102.19 2935.68 1103.55 2935.68 1105.18C2935.68 1106.82 2935.09 1108.2 2933.91 1109.3C2932.75 1110.4 2931.31 1110.95 2929.58 1110.95ZM2949.95 1110.95C2948.22 1110.95 2946.77 1110.4 2945.62 1109.3C2944.46 1108.2 2943.89 1106.82 2943.89 1105.18C2943.89 1103.55 2944.46 1102.19 2945.62 1101.09C2946.77 1099.97 2948.22 1099.4 2949.95 1099.4C2951.68 1099.4 2953.12 1099.97 2954.28 1101.09C2955.46 1102.19 2956.05 1103.55 2956.05 1105.18C2956.05 1106.82 2955.46 1108.2 2954.28 1109.3C2953.12 1110.4 2951.68 1110.95 2949.95 1110.95ZM2970.32 1110.95C2968.59 1110.95 2967.14 1110.4 2965.99 1109.3C2964.83 1108.2 2964.26 1106.82 2964.26 1105.18C2964.26 1103.55 2964.83 1102.19 2965.99 1101.09C2967.14 1099.97 2968.59 1099.4 2970.32 1099.4C2972.05 1099.4 2973.49 1099.97 2974.65 1101.09C2975.83 1102.19 2976.42 1103.55 2976.42 1105.18C2976.42 1106.82 2975.83 1108.2 2974.65 1109.3C2973.49 1110.4 2972.05 1110.95 2970.32 1110.95Z" fill="#787878"/>
<path d="M3015.18 1062.25C3012.93 1062.25 3011.09 1061.56 3009.66 1060.19C3008.23 1058.79 3007.51 1057.06 3007.51 1054.99C3007.51 1052.85 3008.23 1051.1 3009.66 1049.76C3011.09 1048.41 3012.93 1047.74 3015.18 1047.74C3017.46 1047.74 3019.31 1048.41 3020.71 1049.76C3022.14 1051.1 3022.85 1052.85 3022.85 1054.99C3022.85 1057.14 3022.14 1058.88 3020.71 1060.23C3019.31 1061.58 3017.46 1062.25 3015.18 1062.25ZM3021.7 1110H3008.67V1067.78H3021.7V1110ZM3072.79 1110H3059.8V1085.75C3059.8 1083.06 3059.22 1080.92 3058.07 1079.32C3056.91 1077.7 3055.19 1076.89 3052.91 1076.89C3050.63 1076.89 3048.75 1077.74 3047.26 1079.45C3045.78 1081.15 3045.04 1083.31 3045.04 1085.92V1110H3032.01V1067.78H3045.04V1073.14H3045.2C3046.57 1071.21 3048.49 1069.67 3050.93 1068.52C3053.38 1067.34 3055.84 1066.75 3058.31 1066.75C3063.07 1066.75 3066.67 1068.23 3069.12 1071.2C3071.56 1074.17 3072.79 1078.36 3072.79 1083.78V1110ZM3108.12 1062.25C3105.87 1062.25 3104.03 1061.56 3102.6 1060.19C3101.17 1058.79 3100.45 1057.06 3100.45 1054.99C3100.45 1052.85 3101.17 1051.1 3102.6 1049.76C3104.03 1048.41 3105.87 1047.74 3108.12 1047.74C3110.4 1047.74 3112.25 1048.41 3113.65 1049.76C3115.08 1051.1 3115.79 1052.85 3115.79 1054.99C3115.79 1057.14 3115.08 1058.88 3113.65 1060.23C3112.25 1061.58 3110.4 1062.25 3108.12 1062.25ZM3114.64 1113.92C3114.64 1118.59 3113.15 1122.41 3110.19 1125.38C3107.24 1128.35 3103.24 1129.83 3098.19 1129.83C3096.04 1129.83 3093.94 1129.56 3091.88 1129.01C3089.82 1128.46 3087.9 1127.59 3086.15 1126.41L3091.84 1117.83C3092.66 1118.41 3093.5 1118.87 3094.35 1119.2C3095.18 1119.53 3096.07 1119.69 3097.03 1119.69C3098.49 1119.69 3099.62 1119.26 3100.41 1118.41C3101.21 1117.59 3101.61 1116.25 3101.61 1114.41V1067.78H3114.64V1113.92ZM3165.4 1109.96H3152.37V1104.6H3152.2C3150.88 1106.52 3149.03 1108.08 3146.64 1109.26C3144.27 1110.41 3141.89 1110.99 3139.5 1110.99C3134.61 1110.99 3130.9 1109.51 3128.37 1106.54C3125.87 1103.57 3124.62 1099.38 3124.62 1093.96V1067.73H3137.61V1091.98C3137.61 1094.67 3138.18 1096.83 3139.34 1098.45C3140.49 1100.05 3142.21 1100.85 3144.49 1100.85C3146.77 1100.85 3148.66 1099.99 3150.14 1098.29C3151.63 1096.59 3152.37 1094.43 3152.37 1091.82V1067.73H3165.4V1109.96ZM3172.82 1104.6L3178.96 1096.68C3181.11 1098.69 3183.09 1100.06 3184.9 1100.8C3186.72 1101.55 3188.57 1101.92 3190.47 1101.92C3192.36 1101.92 3193.81 1101.6 3194.8 1100.97C3195.81 1100.31 3196.32 1099.35 3196.32 1098.08C3196.32 1097.12 3195.84 1096.31 3194.88 1095.65C3193.92 1094.99 3192.36 1094.52 3190.22 1094.25C3184.61 1093.42 3180.61 1091.88 3178.22 1089.63C3175.83 1087.38 3174.63 1084.43 3174.63 1080.81C3174.63 1076.82 3176.09 1073.48 3179 1070.79C3181.95 1068.09 3185.92 1066.75 3190.92 1066.75C3193.89 1066.75 3196.69 1067.16 3199.33 1067.98C3201.97 1068.81 3204.23 1070.06 3206.1 1071.73L3199.79 1079.28C3198.17 1078.07 3196.64 1077.19 3195.21 1076.64C3193.81 1076.06 3192.34 1075.78 3190.8 1075.78C3189.07 1075.78 3187.8 1076.09 3187 1076.72C3186.23 1077.33 3185.85 1078.19 3185.85 1079.32C3185.85 1080.28 3186.34 1081.09 3187.33 1081.75C3188.32 1082.41 3190.07 1082.88 3192.57 1083.16C3197.52 1083.73 3201.27 1085.14 3203.83 1087.36C3206.41 1089.56 3207.7 1092.7 3207.7 1096.76C3207.7 1101.11 3206.05 1104.57 3202.76 1107.15C3199.48 1109.74 3195.32 1111.03 3190.26 1111.03C3186.83 1111.03 3183.58 1110.49 3180.53 1109.42C3177.48 1108.35 3174.91 1106.74 3172.82 1104.6ZM3243.37 1106.99C3242.08 1108.17 3240.49 1109.15 3238.59 1109.92C3236.69 1110.66 3234.63 1111.03 3232.4 1111.03C3227.57 1111.03 3223.98 1109.92 3221.64 1107.69C3219.3 1105.46 3218.14 1102.14 3218.14 1097.71V1077.38H3211.29V1067.78H3218.14V1057.01L3231.12 1054.7V1067.78H3241.27V1077.38H3231.12V1097.63C3231.12 1098.92 3231.4 1099.9 3231.95 1100.56C3232.53 1101.22 3233.32 1101.55 3234.34 1101.55C3234.95 1101.55 3235.55 1101.45 3236.16 1101.26C3236.79 1101.04 3237.45 1100.61 3238.13 1099.98L3243.37 1106.99ZM3309.26 1090.33C3309.26 1096.19 3307.37 1101.11 3303.57 1105.09C3299.81 1109.05 3294.9 1111.03 3288.85 1111.03C3282.42 1111.03 3277.42 1108.78 3273.84 1104.27C3270.3 1099.73 3268.52 1092.83 3268.52 1083.57C3268.52 1077.74 3269.2 1072.52 3270.54 1067.9C3271.92 1063.25 3273.91 1059.46 3276.52 1056.52C3278.56 1054.24 3280.91 1052.56 3283.57 1051.49C3286.24 1050.42 3289.16 1049.88 3292.32 1049.88C3295.97 1049.88 3299.23 1050.82 3302.09 1052.68C3304.98 1054.53 3307.17 1056.96 3308.69 1059.98L3299.61 1065.34C3298.87 1063.72 3297.87 1062.43 3296.6 1061.47C3295.34 1060.48 3293.77 1059.98 3291.9 1059.98C3290.53 1059.98 3289.24 1060.26 3288.03 1060.81C3286.85 1061.33 3285.76 1062.14 3284.77 1063.24C3283.4 1064.72 3282.37 1066.69 3281.68 1069.14C3281.02 1071.56 3280.66 1074.28 3280.61 1077.3H3280.98C3282.43 1075.54 3284.19 1074.22 3286.25 1073.34C3288.34 1072.44 3290.71 1071.98 3293.35 1071.98C3298.21 1071.98 3302.08 1073.67 3304.93 1077.05C3307.82 1080.44 3309.26 1084.86 3309.26 1090.33ZM3297.18 1091.16C3297.18 1088.32 3296.49 1086.06 3295.12 1084.35C3293.77 1082.65 3291.86 1081.8 3289.39 1081.8C3286.89 1081.8 3284.91 1082.74 3283.45 1084.64C3281.99 1086.51 3281.27 1088.7 3281.27 1091.2C3281.27 1094.08 3281.99 1096.42 3283.45 1098.21C3284.91 1099.97 3286.79 1100.85 3289.1 1100.85C3291.63 1100.85 3293.61 1099.95 3295.04 1098.17C3296.47 1096.35 3297.18 1094.01 3297.18 1091.16ZM3352.72 1050.87V1088.15H3358.29V1097.88H3352.72V1110H3340.35V1097.88H3315.98V1087.69C3318.13 1085.14 3320.36 1082.35 3322.66 1079.32C3325 1076.27 3327.24 1073.14 3329.39 1069.92C3331.56 1066.7 3333.56 1063.47 3335.41 1060.23C3337.28 1056.96 3338.86 1053.84 3340.15 1050.87H3352.72ZM3327.32 1088.15H3340.35V1067.82C3339.45 1069.6 3338.44 1071.42 3337.34 1073.26C3336.27 1075.07 3335.19 1076.86 3334.09 1078.62C3332.96 1080.35 3331.82 1082.03 3330.66 1083.65C3329.51 1085.25 3328.4 1086.74 3327.32 1088.15ZM3386.04 1111.03C3378.89 1111.03 3373.67 1108.56 3370.37 1103.61C3367.07 1098.66 3365.42 1091.25 3365.42 1081.38C3365.42 1071.13 3367.21 1063.32 3370.79 1057.96C3374.39 1052.57 3379.47 1049.88 3386.04 1049.88C3393.57 1049.88 3398.89 1052.4 3402 1057.43C3405.11 1062.43 3406.66 1069.96 3406.66 1080.02C3406.66 1090.03 3404.94 1097.7 3401.5 1103.03C3398.1 1108.36 3392.94 1111.03 3386.04 1111.03ZM3386 1059.82C3383.36 1059.82 3381.48 1061.59 3380.35 1065.14C3379.22 1068.66 3378.66 1073.96 3378.66 1081.05C3378.66 1087.71 3379.24 1092.71 3380.39 1096.06C3381.57 1099.39 3383.46 1101.05 3386.04 1101.05C3388.9 1101.05 3390.84 1099.33 3391.86 1095.9C3392.87 1092.46 3393.38 1087.31 3393.38 1080.44C3393.38 1073.56 3392.85 1068.41 3391.77 1064.97C3390.73 1061.54 3388.8 1059.82 3386 1059.82ZM3457.71 1110H3441.91L3428.6 1089.88H3428.43V1110H3415.4V1047.49H3428.43V1086.5H3428.6L3441.75 1067.78H3456.55L3441.83 1087.61L3457.71 1110ZM3476.67 1106.08H3476.51V1110H3463.48V1047.49H3476.51V1072.81H3476.67C3478.32 1070.77 3480.32 1069.26 3482.65 1068.27C3484.99 1067.25 3487.68 1066.75 3490.74 1066.75C3496.29 1066.75 3500.56 1068.61 3503.56 1072.35C3506.56 1076.09 3508.05 1081.2 3508.05 1087.69C3508.05 1094.73 3506.29 1100.38 3502.78 1104.64C3499.28 1108.9 3494.63 1111.03 3488.8 1111.03C3486.13 1111.03 3483.78 1110.62 3481.75 1109.79C3479.74 1108.97 3478.05 1107.73 3476.67 1106.08ZM3476.3 1087.28V1091.61C3476.3 1094.28 3477.13 1096.49 3478.78 1098.25C3480.43 1099.98 3482.56 1100.85 3485.17 1100.85C3488.19 1100.85 3490.53 1099.72 3492.18 1097.46C3493.86 1095.21 3494.69 1092.01 3494.69 1087.86C3494.69 1084.42 3493.94 1081.74 3492.43 1079.82C3490.91 1077.86 3488.73 1076.89 3485.87 1076.89C3483.15 1076.89 3480.87 1077.85 3479.02 1079.78C3477.21 1081.7 3476.3 1084.2 3476.3 1087.28ZM3521.5 1111.03C3519.35 1111.03 3517.56 1110.29 3516.14 1108.8C3514.71 1107.32 3513.99 1105.51 3513.99 1103.36C3513.99 1101.11 3514.72 1099.27 3516.18 1097.84C3517.66 1096.41 3519.5 1095.69 3521.7 1095.69C3523.93 1095.69 3525.74 1096.42 3527.15 1097.88C3528.57 1099.31 3529.29 1101.13 3529.29 1103.36C3529.29 1105.62 3528.56 1107.46 3527.1 1108.89C3525.67 1110.32 3523.81 1111.03 3521.5 1111.03Z" fill="#2671BE"/>
<g filter="url(#filter0_dd_144_1153)">
<path d="M344.698 336.236L170.372 529.844C134.268 569.942 137.505 631.715 177.603 667.819L677.758 1118.16C717.855 1154.26 779.629 1151.03 815.733 1110.93L990.059 917.321C1026.16 877.224 1022.93 815.45 982.828 779.346L482.673 329.005C442.575 292.901 380.802 296.138 344.698 336.236Z" fill="url(#paint0_linear_144_1153)" shape-rendering="crispEdges"/>
<path d="M344.698 336.236L170.372 529.844C134.268 569.942 137.505 631.715 177.603 667.819L677.758 1118.16C717.855 1154.26 779.629 1151.03 815.733 1110.93L990.059 917.321C1026.16 877.224 1022.93 815.45 982.828 779.346L482.673 329.005C442.575 292.901 380.802 296.138 344.698 336.236Z" stroke="white" stroke-opacity="0.9" stroke-width="12.9229" stroke-linejoin="round" shape-rendering="crispEdges"/>
</g>
<g filter="url(#filter1_dd_144_1153)">
<path d="M560.117 202.809L339.178 340.867C293.42 369.459 279.505 429.732 308.098 475.49L664.747 1046.25C693.339 1092.01 753.612 1105.92 799.37 1077.33L1020.31 939.27C1066.07 910.678 1079.98 850.405 1051.39 804.647L694.74 233.889C666.147 188.132 605.874 174.216 560.117 202.809Z" fill="url(#paint1_linear_144_1153)" shape-rendering="crispEdges"/>
<path d="M560.117 202.809L339.178 340.867C293.42 369.459 279.505 429.732 308.098 475.49L664.747 1046.25C693.339 1092.01 753.612 1105.92 799.37 1077.33L1020.31 939.27C1066.07 910.678 1079.98 850.405 1051.39 804.647L694.74 233.889C666.147 188.132 605.874 174.216 560.117 202.809Z" stroke="white" stroke-opacity="0.9" stroke-width="12.9229" stroke-linejoin="round" shape-rendering="crispEdges"/>
</g>
<g filter="url(#filter2_dd_144_1153)">
<path d="M803.968 133.929L553.535 205.74C501.668 220.612 471.679 274.715 486.551 326.581L672.062 973.534C686.935 1025.4 741.037 1055.39 792.904 1040.52L1043.34 968.707C1095.2 953.834 1125.19 899.732 1110.32 847.865L924.81 200.912C909.937 149.046 855.835 119.056 803.968 133.929Z" fill="url(#paint2_linear_144_1153)" shape-rendering="crispEdges"/>
<path d="M803.968 133.929L553.535 205.74C501.668 220.612 471.679 274.715 486.551 326.581L672.062 973.534C686.935 1025.4 741.037 1055.39 792.904 1040.52L1043.34 968.707C1095.2 953.834 1125.19 899.732 1110.32 847.865L924.81 200.912C909.937 149.046 855.835 119.056 803.968 133.929Z" stroke="white" stroke-opacity="0.9" stroke-width="12.9229" stroke-linejoin="round" shape-rendering="crispEdges"/>
</g>
<g filter="url(#filter3_dd_144_1153)">
<path d="M1057.36 134.932H796.834C742.877 134.932 699.137 178.672 699.137 232.629V905.653C699.137 959.61 742.877 1003.35 796.834 1003.35H1057.36C1111.32 1003.35 1155.06 959.61 1155.06 905.653V232.629C1155.06 178.672 1111.32 134.932 1057.36 134.932Z" fill="url(#paint3_linear_144_1153)" shape-rendering="crispEdges"/>
<path d="M1057.36 134.932H796.834C742.877 134.932 699.137 178.672 699.137 232.629V905.653C699.137 959.61 742.877 1003.35 796.834 1003.35H1057.36C1111.32 1003.35 1155.06 959.61 1155.06 905.653V232.629C1155.06 178.672 1111.32 134.932 1057.36 134.932Z" stroke="white" stroke-opacity="0.9" stroke-width="12.9229" stroke-linejoin="round" shape-rendering="crispEdges"/>
</g>
<g filter="url(#filter4_dd_144_1153)">
<path d="M1300.66 205.74L1050.23 133.929C998.359 119.056 944.256 149.046 929.384 200.912L743.873 847.865C729 899.732 758.99 953.834 810.856 968.707L1061.29 1040.52C1113.16 1055.39 1167.26 1025.4 1182.13 973.534L1367.64 326.581C1382.51 274.715 1352.52 220.612 1300.66 205.74Z" fill="url(#paint4_linear_144_1153)" shape-rendering="crispEdges"/>
<path d="M1300.66 205.74L1050.23 133.929C998.359 119.056 944.256 149.046 929.384 200.912L743.873 847.865C729 899.732 758.99 953.834 810.856 968.707L1061.29 1040.52C1113.16 1055.39 1167.26 1025.4 1182.13 973.534L1367.64 326.581C1382.51 274.715 1352.52 220.612 1300.66 205.74Z" stroke="white" stroke-opacity="0.9" stroke-width="12.9229" stroke-linejoin="round" shape-rendering="crispEdges"/>
</g>
<g filter="url(#filter5_dd_144_1153)">
<path d="M1515.02 340.867L1294.08 202.809C1248.32 174.217 1188.05 188.132 1159.45 233.889L802.805 804.647C774.212 850.405 788.127 910.678 833.885 939.27L1054.82 1077.33C1100.58 1105.92 1160.85 1092.01 1189.45 1046.25L1546.1 475.49C1574.69 429.732 1560.77 369.459 1515.02 340.867Z" fill="url(#paint5_linear_144_1153)" shape-rendering="crispEdges"/>
<path d="M1515.02 340.867L1294.08 202.809C1248.32 174.217 1188.05 188.132 1159.45 233.889L802.805 804.647C774.212 850.405 788.127 910.678 833.885 939.27L1054.82 1077.33C1100.58 1105.92 1160.85 1092.01 1189.45 1046.25L1546.1 475.49C1574.69 429.732 1560.77 369.459 1515.02 340.867Z" stroke="white" stroke-opacity="0.9" stroke-width="12.9229" stroke-linejoin="round" shape-rendering="crispEdges"/>
</g>
<g filter="url(#filter6_dd_144_1153)">
<path d="M1683.82 529.844L1509.5 336.236C1473.39 296.138 1411.62 292.901 1371.52 329.005L871.366 779.346C831.269 815.45 828.031 877.224 864.135 917.321L1038.46 1110.93C1074.57 1151.03 1136.34 1154.26 1176.44 1118.16L1676.59 667.819C1716.69 631.715 1719.93 569.942 1683.82 529.844Z" fill="url(#paint6_linear_144_1153)" shape-rendering="crispEdges"/>
<path d="M1683.82 529.844L1509.5 336.236C1473.39 296.138 1411.62 292.901 1371.52 329.005L871.366 779.346C831.269 815.45 828.031 877.224 864.135 917.321L1038.46 1110.93C1074.57 1151.03 1136.34 1154.26 1176.44 1118.16L1676.59 667.819C1716.69 631.715 1719.93 569.942 1683.82 529.844Z" stroke="white" stroke-opacity="0.9" stroke-width="12.9229" stroke-linejoin="round" shape-rendering="crispEdges"/>
</g>
<defs>
<filter id="filter0_dd_144_1153" x="41.8937" y="248.988" width="1076.64" height="1110.73" filterUnits="userSpaceOnUse" color-interpolation-filters="sRGB">
<feFlood flood-opacity="0" result="BackgroundImageFix"/>
<feColorMatrix in="SourceAlpha" type="matrix" values="0 0 0 0 0 0 0 0 0 0 0 0 0 0 0 0 0 0 127 0" result="hardAlpha"/>
<feMorphology radius="48.4609" operator="dilate" in="SourceAlpha" result="effect1_dropShadow_144_1153"/>
<feOffset dy="113.075"/>
<feGaussianBlur stdDeviation="24.2304"/>
<feComposite in2="hardAlpha" operator="out"/>
<feColorMatrix type="matrix" values="0 0 0 0 0 0 0 0 0 0 0 0 0 0 0 0 0 0 0.15 0"/>
<feBlend mode="normal" in2="BackgroundImageFix" result="effect1_dropShadow_144_1153"/>
<feColorMatrix in="SourceAlpha" type="matrix" values="0 0 0 0 0 0 0 0 0 0 0 0 0 0 0 0 0 0 127 0" result="hardAlpha"/>
<feMorphology radius="32.3073" operator="dilate" in="SourceAlpha" result="effect2_dropShadow_144_1153"/>
<feOffset dx="-6.46145" dy="32.3073"/>
<feGaussianBlur stdDeviation="24.2304"/>
<feComposite in2="hardAlpha" operator="out"/>
<feColorMatrix type="matrix" values="0 0 0 0 0 0 0 0 0 0 0 0 0 0 0 0 0 0 0.1 0"/>
<feBlend mode="normal" in2="effect1_dropShadow_144_1153" result="effect2_dropShadow_144_1153"/>
<feBlend mode="normal" in="SourceGraphic" in2="effect2_dropShadow_144_1153" result="shape"/>
</filter>
<filter id="filter1_dd_144_1153" x="189.856" y="133.028" width="979.776" height="1175.62" filterUnits="userSpaceOnUse" color-interpolation-filters="sRGB">
<feFlood flood-opacity="0" result="BackgroundImageFix"/>
<feColorMatrix in="SourceAlpha" type="matrix" values="0 0 0 0 0 0 0 0 0 0 0 0 0 0 0 0 0 0 127 0" result="hardAlpha"/>
<feMorphology radius="48.4609" operator="dilate" in="SourceAlpha" result="effect1_dropShadow_144_1153"/>
<feOffset dy="113.075"/>
<feGaussianBlur stdDeviation="24.2304"/>
<feComposite in2="hardAlpha" operator="out"/>
<feColorMatrix type="matrix" values="0 0 0 0 0 0 0 0 0 0 0 0 0 0 0 0 0 0 0.15 0"/>
<feBlend mode="normal" in2="BackgroundImageFix" result="effect1_dropShadow_144_1153"/>
<feColorMatrix in="SourceAlpha" type="matrix" values="0 0 0 0 0 0 0 0 0 0 0 0 0 0 0 0 0 0 127 0" result="hardAlpha"/>
<feMorphology radius="32.3073" operator="dilate" in="SourceAlpha" result="effect2_dropShadow_144_1153"/>
<feOffset dx="-6.46145" dy="32.3073"/>
<feGaussianBlur stdDeviation="24.2304"/>
<feComposite in2="hardAlpha" operator="out"/>
<feColorMatrix type="matrix" values="0 0 0 0 0 0 0 0 0 0 0 0 0 0 0 0 0 0 0.1 0"/>
<feBlend mode="normal" in2="effect1_dropShadow_144_1153" result="effect2_dropShadow_144_1153"/>
<feBlend mode="normal" in="SourceGraphic" in2="effect2_dropShadow_144_1153" result="shape"/>
</filter>
<filter id="filter2_dd_144_1153" x="379.357" y="75.1951" width="838.158" height="1185.59" filterUnits="userSpaceOnUse" color-interpolation-filters="sRGB">
<feFlood flood-opacity="0" result="BackgroundImageFix"/>
<feColorMatrix in="SourceAlpha" type="matrix" values="0 0 0 0 0 0 0 0 0 0 0 0 0 0 0 0 0 0 127 0" result="hardAlpha"/>
<feMorphology radius="48.4609" operator="dilate" in="SourceAlpha" result="effect1_dropShadow_144_1153"/>
<feOffset dy="113.075"/>
<feGaussianBlur stdDeviation="24.2304"/>
<feComposite in2="hardAlpha" operator="out"/>
<feColorMatrix type="matrix" values="0 0 0 0 0 0 0 0 0 0 0 0 0 0 0 0 0 0 0.15 0"/>
<feBlend mode="normal" in2="BackgroundImageFix" result="effect1_dropShadow_144_1153"/>
<feColorMatrix in="SourceAlpha" type="matrix" values="0 0 0 0 0 0 0 0 0 0 0 0 0 0 0 0 0 0 127 0" result="hardAlpha"/>
<feMorphology radius="32.3073" operator="dilate" in="SourceAlpha" result="effect2_dropShadow_144_1153"/>
<feOffset dx="-6.46145" dy="32.3073"/>
<feGaussianBlur stdDeviation="24.2304"/>
<feComposite in2="hardAlpha" operator="out"/>
<feColorMatrix type="matrix" values="0 0 0 0 0 0 0 0 0 0 0 0 0 0 0 0 0 0 0.1 0"/>
<feBlend mode="normal" in2="effect1_dropShadow_144_1153" result="effect2_dropShadow_144_1153"/>
<feBlend mode="normal" in="SourceGraphic" in2="effect2_dropShadow_144_1153" result="shape"/>
</filter>
<filter id="filter3_dd_144_1153" x="595.754" y="80.0093" width="662.686" height="1139.8" filterUnits="userSpaceOnUse" color-interpolation-filters="sRGB">
<feFlood flood-opacity="0" result="BackgroundImageFix"/>
<feColorMatrix in="SourceAlpha" type="matrix" values="0 0 0 0 0 0 0 0 0 0 0 0 0 0 0 0 0 0 127 0" result="hardAlpha"/>
<feMorphology radius="48.4609" operator="dilate" in="SourceAlpha" result="effect1_dropShadow_144_1153"/>
<feOffset dy="113.075"/>
<feGaussianBlur stdDeviation="24.2304"/>
<feComposite in2="hardAlpha" operator="out"/>
<feColorMatrix type="matrix" values="0 0 0 0 0 0 0 0 0 0 0 0 0 0 0 0 0 0 0.15 0"/>
<feBlend mode="normal" in2="BackgroundImageFix" result="effect1_dropShadow_144_1153"/>
<feColorMatrix in="SourceAlpha" type="matrix" values="0 0 0 0 0 0 0 0 0 0 0 0 0 0 0 0 0 0 127 0" result="hardAlpha"/>
<feMorphology radius="32.3073" operator="dilate" in="SourceAlpha" result="effect2_dropShadow_144_1153"/>
<feOffset dx="-6.46145" dy="32.3073"/>
<feGaussianBlur stdDeviation="24.2304"/>
<feComposite in2="hardAlpha" operator="out"/>
<feColorMatrix type="matrix" values="0 0 0 0 0 0 0 0 0 0 0 0 0 0 0 0 0 0 0.1 0"/>
<feBlend mode="normal" in2="effect1_dropShadow_144_1153" result="effect2_dropShadow_144_1153"/>
<feBlend mode="normal" in="SourceGraphic" in2="effect2_dropShadow_144_1153" result="shape"/>
</filter>
<filter id="filter4_dd_144_1153" x="636.678" y="75.1951" width="838.158" height="1185.59" filterUnits="userSpaceOnUse" color-interpolation-filters="sRGB">
<feFlood flood-opacity="0" result="BackgroundImageFix"/>
<feColorMatrix in="SourceAlpha" type="matrix" values="0 0 0 0 0 0 0 0 0 0 0 0 0 0 0 0 0 0 127 0" result="hardAlpha"/>
<feMorphology radius="48.4609" operator="dilate" in="SourceAlpha" result="effect1_dropShadow_144_1153"/>
<feOffset dy="113.075"/>
<feGaussianBlur stdDeviation="24.2304"/>
<feComposite in2="hardAlpha" operator="out"/>
<feColorMatrix type="matrix" values="0 0 0 0 0 0 0 0 0 0 0 0 0 0 0 0 0 0 0.15 0"/>
<feBlend mode="normal" in2="BackgroundImageFix" result="effect1_dropShadow_144_1153"/>
<feColorMatrix in="SourceAlpha" type="matrix" values="0 0 0 0 0 0 0 0 0 0 0 0 0 0 0 0 0 0 127 0" result="hardAlpha"/>
<feMorphology radius="32.3073" operator="dilate" in="SourceAlpha" result="effect2_dropShadow_144_1153"/>
<feOffset dx="-6.46145" dy="32.3073"/>
<feGaussianBlur stdDeviation="24.2304"/>
<feComposite in2="hardAlpha" operator="out"/>
<feColorMatrix type="matrix" values="0 0 0 0 0 0 0 0 0 0 0 0 0 0 0 0 0 0 0.1 0"/>
<feBlend mode="normal" in2="effect1_dropShadow_144_1153" result="effect2_dropShadow_144_1153"/>
<feBlend mode="normal" in="SourceGraphic" in2="effect2_dropShadow_144_1153" result="shape"/>
</filter>
<filter id="filter5_dd_144_1153" x="684.562" y="133.028" width="979.776" height="1175.62" filterUnits="userSpaceOnUse" color-interpolation-filters="sRGB">
<feFlood flood-opacity="0" result="BackgroundImageFix"/>
<feColorMatrix in="SourceAlpha" type="matrix" values="0 0 0 0 0 0 0 0 0 0 0 0 0 0 0 0 0 0 127 0" result="hardAlpha"/>
<feMorphology radius="48.4609" operator="dilate" in="SourceAlpha" result="effect1_dropShadow_144_1153"/>
<feOffset dy="113.075"/>
<feGaussianBlur stdDeviation="24.2304"/>
<feComposite in2="hardAlpha" operator="out"/>
<feColorMatrix type="matrix" values="0 0 0 0 0 0 0 0 0 0 0 0 0 0 0 0 0 0 0.15 0"/>
<feBlend mode="normal" in2="BackgroundImageFix" result="effect1_dropShadow_144_1153"/>
<feColorMatrix in="SourceAlpha" type="matrix" values="0 0 0 0 0 0 0 0 0 0 0 0 0 0 0 0 0 0 127 0" result="hardAlpha"/>
<feMorphology radius="32.3073" operator="dilate" in="SourceAlpha" result="effect2_dropShadow_144_1153"/>
<feOffset dx="-6.46145" dy="32.3073"/>
<feGaussianBlur stdDeviation="24.2304"/>
<feComposite in2="hardAlpha" operator="out"/>
<feColorMatrix type="matrix" values="0 0 0 0 0 0 0 0 0 0 0 0 0 0 0 0 0 0 0.1 0"/>
<feBlend mode="normal" in2="effect1_dropShadow_144_1153" result="effect2_dropShadow_144_1153"/>
<feBlend mode="normal" in="SourceGraphic" in2="effect2_dropShadow_144_1153" result="shape"/>
</filter>
<filter id="filter6_dd_144_1153" x="735.657" y="248.987" width="1076.64" height="1110.73" filterUnits="userSpaceOnUse" color-interpolation-filters="sRGB">
<feFlood flood-opacity="0" result="BackgroundImageFix"/>
<feColorMatrix in="SourceAlpha" type="matrix" values="0 0 0 0 0 0 0 0 0 0 0 0 0 0 0 0 0 0 127 0" result="hardAlpha"/>
<feMorphology radius="48.4609" operator="dilate" in="SourceAlpha" result="effect1_dropShadow_144_1153"/>
<feOffset dy="113.075"/>
<feGaussianBlur stdDeviation="24.2304"/>
<feComposite in2="hardAlpha" operator="out"/>
<feColorMatrix type="matrix" values="0 0 0 0 0 0 0 0 0 0 0 0 0 0 0 0 0 0 0.15 0"/>
<feBlend mode="normal" in2="BackgroundImageFix" result="effect1_dropShadow_144_1153"/>
<feColorMatrix in="SourceAlpha" type="matrix" values="0 0 0 0 0 0 0 0 0 0 0 0 0 0 0 0 0 0 127 0" result="hardAlpha"/>
<feMorphology radius="32.3073" operator="dilate" in="SourceAlpha" result="effect2_dropShadow_144_1153"/>
<feOffset dx="-6.46145" dy="32.3073"/>
<feGaussianBlur stdDeviation="24.2304"/>
<feComposite in2="hardAlpha" operator="out"/>
<feColorMatrix type="matrix" values="0 0 0 0 0 0 0 0 0 0 0 0 0 0 0 0 0 0 0.1 0"/>
<feBlend mode="normal" in2="effect1_dropShadow_144_1153" result="effect2_dropShadow_144_1153"/>
<feBlend mode="normal" in="SourceGraphic" in2="effect2_dropShadow_144_1153" result="shape"/>
</filter>
<linearGradient id="paint0_linear_144_1153" x1="105" y1="602.447" x2="750.361" y2="1183.53" gradientUnits="userSpaceOnUse">
<stop stop-color="#FFC0C0"/>
<stop offset="0.18" stop-color="#FF7A7A"/>
<stop offset="1" stop-color="#EF2730"/>
</linearGradient>
<linearGradient id="paint1_linear_144_1153" x1="256.326" y1="392.638" x2="716.518" y2="1129.1" gradientUnits="userSpaceOnUse">
<stop stop-color="#FFE0B0"/>
<stop offset="0.18" stop-color="#FFB454"/>
<stop offset="1" stop-color="#F77F00"/>
</linearGradient>
<linearGradient id="paint2_linear_144_1153" x1="459.622" y1="232.669" x2="698.991" y2="1067.45" gradientUnits="userSpaceOnUse">
<stop stop-color="#FFF3B0"/>
<stop offset="0.18" stop-color="#FFE14D"/>
<stop offset="1" stop-color="#F5B800"/>
</linearGradient>
<linearGradient id="paint3_linear_144_1153" x1="699.137" y1="134.932" x2="699.137" y2="1003.35" gradientUnits="userSpaceOnUse">
<stop stop-color="#C2F7D4"/>
<stop offset="0.18" stop-color="#5CE08A"/>
<stop offset="1" stop-color="#1BB257"/>
</linearGradient>
<linearGradient id="paint4_linear_144_1153" x1="956.312" y1="107" x2="716.944" y2="941.778" gradientUnits="userSpaceOnUse">
<stop stop-color="#C4F2FB"/>
<stop offset="0.18" stop-color="#4FD8F0"/>
<stop offset="1" stop-color="#12AECE"/>
</linearGradient>
<linearGradient id="paint5_linear_144_1153" x1="1211.23" y1="151.038" x2="751.033" y2="887.499" gradientUnits="userSpaceOnUse">
<stop stop-color="#BFD6FF"/>
<stop offset="0.18" stop-color="#5B9BFF"/>
<stop offset="1" stop-color="#1F5FE0"/>
</linearGradient>
<linearGradient id="paint6_linear_144_1153" x1="1444.12" y1="263.633" x2="798.763" y2="844.718" gradientUnits="userSpaceOnUse">
<stop stop-color="#C9A9FF"/>
<stop offset="0.18" stop-color="#9D6BFF"/>
<stop offset="1" stop-color="#B026C8"/>
</linearGradient>
</defs>
</svg>
