<svg width="4800" height="2520" viewBox="0 0 4800 2520" fill="none" xmlns="http://www.w3.org/2000/svg">
<rect width="4800" height="2520" fill="#EFEFEF"/>
<path d="M1867.3 1548V1488.87H1886.27C1892.07 1488.87 1896.57 1490.11 1899.79 1492.58C1903.03 1495.03 1904.66 1498.42 1904.66 1502.77C1904.66 1506.04 1903.72 1508.9 1901.85 1511.34C1900.01 1513.76 1897.55 1515.47 1894.47 1516.46V1516.62C1898.38 1517.09 1901.5 1518.59 1903.83 1521.12C1906.17 1523.64 1907.34 1526.85 1907.34 1530.72C1907.34 1535.95 1905.47 1540.14 1901.73 1543.3C1897.99 1546.43 1893.08 1548 1887.01 1548H1867.3ZM1877.11 1496.75V1513.73H1883.67C1886.97 1513.73 1889.56 1512.94 1891.46 1511.34C1893.39 1509.75 1894.35 1507.51 1894.35 1504.62C1894.35 1501.98 1893.45 1500.02 1891.67 1498.73C1889.91 1497.41 1887.27 1496.75 1883.75 1496.75H1877.11ZM1877.11 1521.61V1540.12H1885.52C1889.15 1540.12 1891.97 1539.27 1893.98 1537.57C1896.01 1535.86 1897.03 1533.54 1897.03 1530.6C1897.03 1527.66 1895.98 1525.43 1893.89 1523.92C1891.81 1522.38 1888.77 1521.61 1884.78 1521.61H1877.11ZM1954.14 1548H1944.53V1541.44H1944.37C1942.88 1543.95 1941.05 1545.83 1938.88 1547.09C1936.71 1548.36 1934.21 1548.99 1931.38 1548.99C1926.43 1548.99 1922.7 1547.51 1920.2 1544.54C1917.73 1541.57 1916.49 1537.1 1916.49 1531.14V1505.78H1926.02V1530.02C1926.02 1533.82 1926.74 1536.66 1928.2 1538.56C1929.69 1540.43 1931.9 1541.36 1934.84 1541.36C1937.7 1541.36 1940.02 1540.33 1941.81 1538.27C1943.62 1536.21 1944.53 1533.46 1944.53 1530.02V1505.78H1954.14V1548ZM1971.46 1497.61C1969.7 1497.61 1968.24 1497.05 1967.09 1495.92C1965.93 1494.79 1965.35 1493.41 1965.35 1491.76C1965.35 1490.05 1965.93 1488.65 1967.09 1487.55C1968.24 1486.45 1969.7 1485.9 1971.46 1485.9C1973.24 1485.9 1974.71 1486.45 1975.87 1487.55C1977.02 1488.65 1977.6 1490.05 1977.6 1491.76C1977.6 1493.43 1977.02 1494.84 1975.87 1495.96C1974.71 1497.06 1973.24 1497.61 1971.46 1497.61ZM1976.2 1548H1966.59V1505.78H1976.2V1548ZM1988.69 1548V1485.49H1998.3V1548H1988.69ZM2033.8 1547.42C2032.57 1547.95 2031.27 1548.33 2029.93 1548.58C2028.58 1548.82 2027.14 1548.95 2025.6 1548.95C2021.69 1548.95 2018.68 1547.92 2016.57 1545.86C2014.48 1543.77 2013.43 1540.66 2013.43 1536.54V1513.28H2006.34V1505.78H2013.43V1495.51L2023 1492.62V1505.78H2033.1V1513.28H2023V1535.75C2023 1537.82 2023.37 1539.3 2024.11 1540.21C2024.88 1541.11 2026.06 1541.57 2027.66 1541.57C2028.43 1541.57 2029.16 1541.49 2029.84 1541.32C2030.56 1541.13 2031.19 1540.89 2031.74 1540.62L2033.8 1547.42ZM2087.41 1493.03C2086.64 1492.73 2085.94 1492.53 2085.3 1492.42C2084.67 1492.28 2083.98 1492.21 2083.24 1492.21C2081.21 1492.21 2079.67 1492.8 2078.62 1493.98C2077.61 1495.14 2077.1 1496.81 2077.1 1499.01V1505.78H2086.87V1513.28H2077.1V1548H2067.53V1513.28H2060.36V1505.78H2067.53V1498.52C2067.53 1494.23 2068.91 1490.84 2071.65 1488.33C2074.43 1485.81 2078.1 1484.54 2082.66 1484.54C2084.09 1484.54 2085.33 1484.64 2086.38 1484.83C2087.42 1485.02 2088.51 1485.3 2089.63 1485.65L2087.41 1493.03ZM2112.44 1548.99C2105.84 1548.99 2100.6 1547.02 2096.73 1543.09C2092.88 1539.13 2090.95 1533.84 2090.95 1527.22C2090.98 1520.21 2092.99 1514.72 2096.97 1510.77C2100.96 1506.78 2106.39 1504.79 2113.26 1504.79C2119.89 1504.76 2125.05 1506.71 2128.76 1510.64C2132.5 1514.55 2134.37 1519.84 2134.37 1526.52C2134.37 1533.39 2132.39 1538.86 2128.43 1542.93C2124.5 1546.97 2119.17 1548.99 2112.44 1548.99ZM2112.89 1541.36C2116.71 1541.36 2119.61 1540.11 2121.59 1537.61C2123.6 1535.11 2124.6 1531.49 2124.6 1526.76C2124.6 1522.09 2123.6 1518.53 2121.59 1516.08C2119.58 1513.64 2116.67 1512.41 2112.85 1512.41C2109.08 1512.41 2106.11 1513.71 2103.94 1516.29C2101.8 1518.87 2100.73 1522.45 2100.73 1527.01C2100.73 1531.6 2101.8 1535.15 2103.94 1537.65C2106.09 1540.12 2109.07 1541.36 2112.89 1541.36ZM2167.65 1513.82C2167.13 1513.68 2166.62 1513.58 2166.12 1513.53C2165.66 1513.45 2165.11 1513.4 2164.47 1513.4C2161.04 1513.4 2158.4 1514.67 2156.56 1517.2C2154.71 1519.73 2153.79 1523.03 2153.79 1527.09V1548H2144.19V1505.78H2153.79V1513.9H2153.96C2154.95 1510.99 2156.4 1508.79 2158.33 1507.3C2160.25 1505.79 2162.52 1505.03 2165.13 1505.03C2165.88 1505.03 2166.53 1505.08 2167.11 1505.16C2167.72 1505.24 2168.29 1505.36 2168.84 1505.53L2167.65 1513.82ZM2202.61 1548.95C2200.88 1548.95 2199.44 1548.4 2198.29 1547.3C2197.13 1546.2 2196.55 1544.82 2196.55 1543.18C2196.55 1541.55 2197.13 1540.19 2198.29 1539.09C2199.44 1537.97 2200.88 1537.4 2202.61 1537.4C2204.35 1537.4 2205.79 1537.97 2206.94 1539.09C2208.13 1540.19 2208.72 1541.55 2208.72 1543.18C2208.72 1544.82 2208.13 1546.2 2206.94 1547.3C2205.79 1548.4 2204.35 1548.95 2202.61 1548.95ZM2270.28 1548H2259.52L2231.85 1505.36C2231.3 1504.54 2230.83 1503.78 2230.45 1503.1C2230.06 1502.38 2229.73 1501.72 2229.46 1501.12H2229.25C2229.36 1501.94 2229.44 1503.08 2229.5 1504.54C2229.55 1506 2229.58 1507.78 2229.58 1509.9V1548H2220.1V1488.87H2231.52L2258.36 1530.56C2258.94 1531.44 2259.45 1532.25 2259.89 1532.99C2260.33 1533.71 2260.7 1534.35 2261 1534.93H2261.17C2261.03 1534.13 2260.93 1533.03 2260.88 1531.63C2260.82 1530.23 2260.8 1528.51 2260.8 1526.48V1488.87H2270.28V1548ZM2318.11 1548H2284.92V1488.87H2316.79V1497.2H2294.73V1513.94H2315.18V1522.23H2294.73V1539.67H2318.11V1548ZM2366.48 1497.2H2349.53V1548H2339.68V1497.2H2322.77V1488.87H2366.48V1497.2ZM2430.39 1497.2H2408.29V1514.97H2428.66V1523.26H2408.29V1548H2398.48V1488.87H2430.39V1497.2ZM2463.38 1513.82C2462.86 1513.68 2462.35 1513.58 2461.85 1513.53C2461.39 1513.45 2460.84 1513.4 2460.2 1513.4C2456.77 1513.4 2454.13 1514.67 2452.29 1517.2C2450.45 1519.73 2449.52 1523.03 2449.52 1527.09V1548H2439.92V1505.78H2449.52V1513.9H2449.69C2450.68 1510.99 2452.14 1508.79 2454.06 1507.3C2455.98 1505.79 2458.25 1505.03 2460.86 1505.03C2461.61 1505.03 2462.27 1505.08 2462.84 1505.16C2463.45 1505.24 2464.03 1505.36 2464.58 1505.53L2463.38 1513.82ZM2503.38 1548H2494.1V1541.65H2493.93C2492.5 1544.1 2490.73 1545.94 2488.61 1547.18C2486.5 1548.38 2484.07 1548.99 2481.32 1548.99C2477.5 1548.99 2474.32 1547.86 2471.79 1545.61C2469.26 1543.33 2468 1540.22 2468 1536.29C2468 1532.55 2469.26 1529.49 2471.79 1527.09C2474.32 1524.68 2478.07 1523.11 2483.05 1522.39L2494.14 1520.91V1520.04C2494.14 1517.18 2493.4 1515.11 2491.91 1513.82C2490.43 1512.52 2488.42 1511.88 2485.89 1511.88C2483.89 1511.88 2481.84 1512.24 2479.75 1512.95C2477.69 1513.67 2475.68 1514.78 2473.73 1516.29L2469.56 1510.56C2472.15 1508.58 2474.82 1507.12 2477.56 1506.19C2480.31 1505.25 2483.34 1504.79 2486.64 1504.79C2492.3 1504.79 2496.5 1506.19 2499.25 1508.99C2502 1511.77 2503.38 1515.95 2503.38 1521.53V1548ZM2494.14 1530.85V1527.26L2485.11 1528.46C2482.44 1528.84 2480.44 1529.57 2479.09 1530.64C2477.77 1531.69 2477.11 1533.22 2477.11 1535.26C2477.11 1537.32 2477.74 1538.93 2479.01 1540.08C2480.27 1541.24 2481.89 1541.81 2483.87 1541.81C2486.98 1541.81 2489.47 1540.78 2491.34 1538.72C2493.21 1536.63 2494.14 1534.01 2494.14 1530.85ZM2578.46 1548H2568.9V1523.84C2568.9 1519.88 2568.24 1516.99 2566.92 1515.18C2565.63 1513.34 2563.54 1512.41 2560.65 1512.41C2558.09 1512.41 2555.95 1513.56 2554.22 1515.84C2552.51 1518.09 2551.66 1520.85 2551.66 1524.13V1548H2542.1V1523.26C2542.1 1519.63 2541.39 1516.92 2539.99 1515.14C2538.62 1513.32 2536.56 1512.41 2533.81 1512.41C2531.17 1512.41 2529.02 1513.5 2527.38 1515.67C2525.73 1517.82 2524.9 1520.66 2524.9 1524.21V1548H2515.29V1505.78H2524.9V1512.41H2525.07C2526.5 1510 2528.35 1508.13 2530.63 1506.81C2532.94 1505.46 2535.54 1504.79 2538.43 1504.79C2541.34 1504.79 2543.84 1505.52 2545.93 1506.97C2548.05 1508.43 2549.57 1510.48 2550.51 1513.12C2552.1 1510.34 2554.07 1508.26 2556.4 1506.89C2558.74 1505.49 2561.48 1504.79 2564.61 1504.79C2569.23 1504.79 2572.69 1506.22 2575 1509.07C2577.31 1511.91 2578.46 1516.17 2578.46 1521.86V1548ZM2625.8 1529.4H2596.98C2597.14 1533.39 2598.3 1536.43 2600.44 1538.52C2602.59 1540.58 2605.58 1541.61 2609.43 1541.61C2611 1541.61 2612.78 1541.29 2614.79 1540.66C2616.8 1540.03 2618.78 1539.01 2620.73 1537.61L2625.06 1543.59C2622.45 1545.48 2619.79 1546.86 2617.1 1547.71C2614.41 1548.56 2611.44 1548.99 2608.19 1548.99C2601.62 1548.99 2596.51 1547.11 2592.85 1543.34C2589.2 1539.55 2587.36 1534.26 2587.33 1527.47C2587.33 1520.7 2589.21 1515.23 2592.98 1511.05C2596.77 1506.88 2601.62 1504.79 2607.53 1504.79C2613.2 1504.79 2617.65 1506.57 2620.89 1510.15C2624.17 1513.69 2625.8 1518.72 2625.8 1525.24V1529.4ZM2616.52 1522.76C2616.52 1519.14 2615.73 1516.41 2614.13 1514.6C2612.56 1512.76 2610.34 1511.84 2607.45 1511.84C2604.73 1511.84 2602.41 1512.83 2600.48 1514.81C2598.59 1516.76 2597.42 1519.41 2596.98 1522.76H2616.52ZM2691.69 1505.78L2679.28 1548H2669.26L2661.63 1520.21C2661.41 1519.41 2661.26 1518.67 2661.18 1517.98C2661.1 1517.27 2661.03 1516.5 2660.97 1515.67H2660.77C2660.71 1516.55 2660.62 1517.34 2660.48 1518.02C2660.34 1518.68 2660.16 1519.38 2659.94 1520.13L2651.74 1548H2641.92L2629.51 1505.78H2639.41L2646.83 1535.63C2646.97 1536.18 2647.09 1536.81 2647.2 1537.53C2647.31 1538.21 2647.39 1538.98 2647.45 1539.84H2647.74C2647.79 1539.07 2647.88 1538.32 2647.98 1537.61C2648.12 1536.89 2648.29 1536.19 2648.48 1535.51L2657.1 1505.78H2666.09L2673.8 1535.67C2673.91 1536.11 2674 1536.69 2674.09 1537.4C2674.2 1538.09 2674.31 1538.93 2674.42 1539.92H2674.7C2674.76 1539.26 2674.84 1538.57 2674.95 1537.86C2675.06 1537.14 2675.21 1536.41 2675.41 1535.67L2682.58 1505.78H2691.69ZM2717.59 1548.99C2710.99 1548.99 2705.75 1547.02 2701.88 1543.09C2698.03 1539.13 2696.11 1533.84 2696.11 1527.22C2696.13 1520.21 2698.14 1514.72 2702.13 1510.77C2706.11 1506.78 2711.54 1504.79 2718.41 1504.79C2725.04 1504.76 2730.21 1506.71 2733.92 1510.64C2737.66 1514.55 2739.52 1519.84 2739.52 1526.52C2739.52 1533.39 2737.55 1538.86 2733.59 1542.93C2729.66 1546.97 2724.32 1548.99 2717.59 1548.99ZM2718.04 1541.36C2721.86 1541.36 2724.76 1540.11 2726.74 1537.61C2728.75 1535.11 2729.75 1531.49 2729.75 1526.76C2729.75 1522.09 2728.75 1518.53 2726.74 1516.08C2724.74 1513.64 2721.82 1512.41 2718 1512.41C2714.23 1512.41 2711.27 1513.71 2709.09 1516.29C2706.95 1518.87 2705.88 1522.45 2705.88 1527.01C2705.88 1531.6 2706.95 1535.15 2709.09 1537.65C2711.24 1540.12 2714.22 1541.36 2718.04 1541.36ZM2772.8 1513.82C2772.28 1513.68 2771.77 1513.58 2771.28 1513.53C2770.81 1513.45 2770.26 1513.4 2769.63 1513.4C2766.19 1513.4 2763.55 1514.67 2761.71 1517.2C2759.87 1519.73 2758.95 1523.03 2758.95 1527.09V1548H2749.34V1505.78H2758.95V1513.9H2759.11C2760.1 1510.99 2761.56 1508.79 2763.48 1507.3C2765.41 1505.79 2767.67 1505.03 2770.29 1505.03C2771.03 1505.03 2771.69 1505.08 2772.26 1505.16C2772.87 1505.24 2773.45 1505.36 2774 1505.53L2772.8 1513.82ZM2818.9 1548H2806.61L2790.33 1527.42H2790.16V1548H2780.55V1485.49H2790.16V1525.2H2790.33L2805.71 1505.78H2817.58L2799.97 1525.9L2818.9 1548ZM2881.7 1488.58V1527.22H2887.93V1535.09H2881.7V1548.33H2872.09V1535.09H2844.63V1527.22C2847.16 1524.44 2849.72 1521.45 2852.3 1518.23C2854.91 1514.99 2857.41 1511.69 2859.8 1508.33C2862.2 1504.98 2864.41 1501.63 2866.44 1498.27C2868.51 1494.89 2870.24 1491.66 2871.64 1488.58H2881.7ZM2854.36 1527.22H2872.09V1501.9C2870.44 1504.7 2868.84 1507.32 2867.27 1509.73C2865.7 1512.15 2864.19 1514.39 2862.73 1516.46C2861.22 1518.55 2859.76 1520.47 2858.36 1522.23C2856.99 1523.99 2855.65 1525.65 2854.36 1527.22ZM2900.79 1548.95C2899.06 1548.95 2897.62 1548.4 2896.46 1547.3C2895.31 1546.2 2894.73 1544.82 2894.73 1543.18C2894.73 1541.55 2895.31 1540.19 2896.46 1539.09C2897.62 1537.97 2899.06 1537.4 2900.79 1537.4C2902.52 1537.4 2903.97 1537.97 2905.12 1539.09C2906.3 1540.19 2906.89 1541.55 2906.89 1543.18C2906.89 1544.82 2906.3 1546.2 2905.12 1547.3C2903.97 1548.4 2902.52 1548.95 2900.79 1548.95ZM2952.58 1494.4C2947.72 1503.27 2943.55 1511.89 2940.09 1520.25C2936.65 1528.61 2934.19 1537.86 2932.71 1548H2922.93C2924.39 1538.41 2926.98 1529.28 2930.69 1520.62C2934.4 1511.96 2938.29 1504.1 2942.36 1497.03H2914.65V1488.87H2952.58V1494.4ZM2966.44 1548.95C2964.7 1548.95 2963.26 1548.4 2962.11 1547.3C2960.95 1546.2 2960.38 1544.82 2960.38 1543.18C2960.38 1541.55 2960.95 1540.19 2962.11 1539.09C2963.26 1537.97 2964.7 1537.4 2966.44 1537.4C2968.17 1537.4 2969.61 1537.97 2970.77 1539.09C2971.95 1540.19 2972.54 1541.55 2972.54 1543.18C2972.54 1544.82 2971.95 1546.2 2970.77 1547.3C2969.61 1548.4 2968.17 1548.95 2966.44 1548.95ZM2981.69 1548V1544.37C2981.69 1541.62 2982.06 1539.18 2982.81 1537.03C2983.58 1534.89 2984.66 1532.91 2986.06 1531.09C2987.44 1529.28 2989.1 1527.58 2991.05 1525.98C2993.01 1524.36 2995.16 1522.68 2997.53 1520.95C2999.48 1519.58 3001.13 1518.26 3002.48 1516.99C3003.85 1515.7 3005 1514.44 3005.94 1513.2C3006.82 1512.07 3007.48 1510.82 3007.92 1509.45C3008.36 1508.04 3008.58 1506.55 3008.58 1504.95C3008.58 1502.26 3007.78 1500.04 3006.19 1498.31C3004.59 1496.58 3002.34 1495.72 2999.42 1495.72C2997.25 1495.72 2994.97 1496.18 2992.58 1497.12C2990.19 1498.02 2987.91 1499.44 2985.73 1501.36L2980.66 1495.47C2983.58 1492.86 2986.64 1490.95 2989.86 1489.74C2993.07 1488.5 2996.63 1487.88 3000.54 1487.88C3006.15 1487.88 3010.5 1489.46 3013.61 1492.62C3016.71 1495.78 3018.27 1499.52 3018.27 1503.84C3018.27 1506.61 3017.91 1509.03 3017.2 1511.1C3016.48 1513.13 3015.52 1514.96 3014.31 1516.58C3013.07 1518.31 3011.6 1519.93 3009.9 1521.45C3008.22 1522.96 3006.34 1524.46 3004.25 1525.94C3002.13 1527.42 3000.3 1528.76 2998.76 1529.94C2997.22 1531.09 2995.96 1532.19 2994.97 1533.24C2993.95 1534.31 2993.2 1535.37 2992.7 1536.41C2992.24 1537.46 2992 1538.58 2992 1539.79H3019.46V1548H2981.69ZM3085.27 1548H3076V1541.65H3075.83C3074.4 1544.1 3072.63 1545.94 3070.51 1547.18C3068.39 1548.38 3065.96 1548.99 3063.21 1548.99C3059.39 1548.99 3056.22 1547.86 3053.69 1545.61C3051.16 1543.33 3049.89 1540.22 3049.89 1536.29C3049.89 1532.55 3051.16 1529.49 3053.69 1527.09C3056.22 1524.68 3059.97 1523.11 3064.94 1522.39L3076.04 1520.91V1520.04C3076.04 1517.18 3075.29 1515.11 3073.81 1513.82C3072.33 1512.52 3070.32 1511.88 3067.79 1511.88C3065.78 1511.88 3063.74 1512.24 3061.65 1512.95C3059.58 1513.67 3057.58 1514.78 3055.63 1516.29L3051.46 1510.56C3054.05 1508.58 3056.71 1507.12 3059.46 1506.19C3062.21 1505.25 3065.23 1504.79 3068.53 1504.79C3074.2 1504.79 3078.4 1506.19 3081.15 1508.99C3083.9 1511.77 3085.27 1515.95 3085.27 1521.53V1548ZM3076.04 1530.85V1527.26L3067.01 1528.46C3064.34 1528.84 3062.33 1529.57 3060.99 1530.64C3059.67 1531.69 3059.01 1533.22 3059.01 1535.26C3059.01 1537.32 3059.64 1538.93 3060.9 1540.08C3062.17 1541.24 3063.79 1541.81 3065.77 1541.81C3068.88 1541.81 3071.36 1540.78 3073.23 1538.72C3075.1 1536.63 3076.04 1534.01 3076.04 1530.85ZM3134.8 1548H3125.23V1524.21C3125.23 1520.28 3124.51 1517.34 3123.09 1515.38C3121.66 1513.4 3119.51 1512.41 3116.65 1512.41C3113.79 1512.41 3111.43 1513.5 3109.56 1515.67C3107.69 1517.84 3106.76 1520.59 3106.76 1523.92V1548H3097.15V1505.78H3106.76V1512.62H3106.92C3108.49 1510.01 3110.41 1508.06 3112.69 1506.77C3114.98 1505.45 3117.63 1504.79 3120.65 1504.79C3125.27 1504.79 3128.78 1506.26 3131.17 1509.2C3133.59 1512.14 3134.8 1516.47 3134.8 1522.19V1548ZM3175.12 1541.44C3173.61 1543.97 3171.7 1545.87 3169.39 1547.13C3167.08 1548.37 3164.37 1548.99 3161.27 1548.99C3155.99 1548.99 3151.74 1547.12 3148.53 1543.38C3145.34 1539.62 3143.74 1534.45 3143.74 1527.88C3143.74 1520.9 3145.5 1515.3 3149.02 1511.1C3152.57 1506.89 3157.24 1504.79 3163.04 1504.79C3165.87 1504.79 3168.29 1505.32 3170.3 1506.39C3172.3 1507.44 3173.91 1509.03 3175.12 1511.18H3175.29V1485.49H3184.9V1548H3175.29V1541.44H3175.12ZM3153.52 1527.51C3153.52 1531.85 3154.49 1535.24 3156.44 1537.69C3158.4 1540.14 3161.05 1541.36 3164.4 1541.36C3167.67 1541.36 3170.33 1540.14 3172.36 1537.69C3174.39 1535.24 3175.41 1532.1 3175.41 1528.25V1523.42C3175.41 1520.29 3174.44 1517.68 3172.48 1515.59C3170.53 1513.47 3168.03 1512.41 3164.98 1512.41C3161.41 1512.41 3158.6 1513.76 3156.57 1516.46C3154.53 1519.12 3153.52 1522.81 3153.52 1527.51ZM3231.49 1527.34V1548H3221.68V1488.87H3240.03C3246.84 1488.87 3252.04 1490.46 3255.61 1493.65C3259.21 1496.81 3261.01 1501.42 3261.01 1507.47C3261.01 1513.35 3258.99 1518.13 3254.95 1521.82C3250.91 1525.5 3245.47 1527.34 3238.62 1527.34H3231.49ZM3231.49 1496.91V1519.34H3237.84C3242.07 1519.34 3245.28 1518.37 3247.45 1516.41C3249.62 1514.44 3250.7 1511.59 3250.7 1507.88C3250.7 1504.22 3249.67 1501.49 3247.61 1499.67C3245.55 1497.83 3242.46 1496.91 3238.33 1496.91H3231.49ZM3285.63 1548.99C3279.03 1548.99 3273.8 1547.02 3269.92 1543.09C3266.07 1539.13 3264.15 1533.84 3264.15 1527.22C3264.17 1520.21 3266.18 1514.72 3270.17 1510.77C3274.15 1506.78 3279.58 1504.79 3286.45 1504.79C3293.08 1504.76 3298.25 1506.71 3301.96 1510.64C3305.7 1514.55 3307.57 1519.84 3307.57 1526.52C3307.57 1533.39 3305.59 1538.86 3301.63 1542.93C3297.7 1546.97 3292.37 1548.99 3285.63 1548.99ZM3286.08 1541.36C3289.9 1541.36 3292.8 1540.11 3294.78 1537.61C3296.79 1535.11 3297.79 1531.49 3297.79 1526.76C3297.79 1522.09 3296.79 1518.53 3294.78 1516.08C3292.78 1513.64 3289.86 1512.41 3286.04 1512.41C3282.28 1512.41 3279.31 1513.71 3277.14 1516.29C3274.99 1518.87 3273.92 1522.45 3273.92 1527.01C3273.92 1531.6 3274.99 1535.15 3277.14 1537.65C3279.28 1540.12 3282.26 1541.36 3286.08 1541.36ZM3374.12 1505.78L3361.71 1548H3351.69L3344.06 1520.21C3343.84 1519.41 3343.69 1518.67 3343.61 1517.98C3343.52 1517.27 3343.45 1516.5 3343.4 1515.67H3343.19C3343.14 1516.55 3343.04 1517.34 3342.9 1518.02C3342.77 1518.68 3342.59 1519.38 3342.37 1520.13L3334.16 1548H3324.35L3311.94 1505.78H3321.83L3329.26 1535.63C3329.39 1536.18 3329.52 1536.81 3329.63 1537.53C3329.74 1538.21 3329.82 1538.98 3329.87 1539.84H3330.16C3330.22 1539.07 3330.3 1538.32 3330.41 1537.61C3330.55 1536.89 3330.71 1536.19 3330.91 1535.51L3339.52 1505.78H3348.51L3356.22 1535.67C3356.33 1536.11 3356.43 1536.69 3356.51 1537.4C3356.62 1538.09 3356.73 1538.93 3356.84 1539.92H3357.13C3357.19 1539.26 3357.27 1538.57 3357.38 1537.86C3357.49 1537.14 3357.64 1536.41 3357.83 1535.67L3365.01 1505.78H3374.12ZM3417 1529.4H3388.18C3388.34 1533.39 3389.5 1536.43 3391.64 1538.52C3393.79 1540.58 3396.78 1541.61 3400.63 1541.61C3402.2 1541.61 3403.99 1541.29 3405.99 1540.66C3408 1540.03 3409.98 1539.01 3411.93 1537.61L3416.26 1543.59C3413.65 1545.48 3411 1546.86 3408.3 1547.71C3405.61 1548.56 3402.64 1548.99 3399.4 1548.99C3392.83 1548.99 3387.71 1547.11 3384.06 1543.34C3380.4 1539.55 3378.56 1534.26 3378.53 1527.47C3378.53 1520.7 3380.41 1515.23 3384.18 1511.05C3387.97 1506.88 3392.83 1504.79 3398.74 1504.79C3404.4 1504.79 3408.85 1506.57 3412.1 1510.15C3415.37 1513.69 3417 1518.72 3417 1525.24V1529.4ZM3407.72 1522.76C3407.72 1519.14 3406.93 1516.41 3405.33 1514.6C3403.77 1512.76 3401.54 1511.84 3398.65 1511.84C3395.93 1511.84 3393.61 1512.83 3391.68 1514.81C3389.79 1516.76 3388.62 1519.41 3388.18 1522.76H3407.72ZM3449.62 1513.82C3449.1 1513.68 3448.59 1513.58 3448.09 1513.53C3447.63 1513.45 3447.08 1513.4 3446.44 1513.4C3443.01 1513.4 3440.37 1514.67 3438.53 1517.2C3436.68 1519.73 3435.76 1523.03 3435.76 1527.09V1548H3426.16V1505.78H3435.76V1513.9H3435.93C3436.92 1510.99 3438.38 1508.79 3440.3 1507.3C3442.22 1505.79 3444.49 1505.03 3447.1 1505.03C3447.85 1505.03 3448.51 1505.08 3449.08 1505.16C3449.69 1505.24 3450.26 1505.36 3450.81 1505.53L3449.62 1513.82ZM3453.45 1543.75L3457.82 1536.21C3460.49 1537.86 3462.98 1539.02 3465.29 1539.71C3467.6 1540.37 3470.18 1540.7 3473.04 1540.7C3476.45 1540.7 3479.13 1539.97 3481.08 1538.52C3483.06 1537.03 3484.05 1534.92 3484.05 1532.17C3484.05 1529.66 3483.22 1527.7 3481.57 1526.27C3479.95 1524.81 3477.19 1523.48 3473.29 1522.27C3467.27 1520.48 3462.84 1518.27 3460.01 1515.63C3457.18 1512.99 3455.76 1509.42 3455.76 1504.91C3455.76 1500.02 3457.59 1495.96 3461.25 1492.75C3464.9 1489.5 3469.86 1487.88 3476.13 1487.88C3478.88 1487.88 3481.59 1488.18 3484.26 1488.79C3486.92 1489.39 3489.56 1490.33 3492.17 1491.59L3488.5 1499.43C3486.22 1498.24 3484.04 1497.41 3481.95 1496.91C3479.88 1496.42 3477.78 1496.17 3475.64 1496.17C3472.5 1496.17 3470.03 1496.86 3468.22 1498.23C3466.43 1499.6 3465.53 1501.54 3465.53 1504.04C3465.53 1506.27 3466.36 1508.03 3468.01 1509.32C3469.66 1510.59 3472.49 1511.84 3476.5 1513.07C3482.66 1514.92 3487.09 1517.21 3489.78 1519.96C3492.5 1522.71 3493.86 1526.49 3493.86 1531.3C3493.86 1536.47 3492.02 1540.72 3488.34 1544.04C3484.65 1547.34 3479.4 1548.99 3472.59 1548.99C3469.18 1548.99 3465.85 1548.56 3462.61 1547.71C3459.36 1546.83 3456.31 1545.51 3453.45 1543.75ZM3540.91 1548H3531.34V1523.84C3531.34 1520.02 3530.64 1517.16 3529.24 1515.26C3527.84 1513.36 3525.72 1512.41 3522.89 1512.41C3520.06 1512.41 3517.7 1513.5 3515.8 1515.67C3513.93 1517.84 3513 1520.62 3513 1524V1548H3503.39V1485.49H3513V1512.46H3513.16C3514.75 1509.87 3516.68 1507.95 3518.93 1506.68C3521.19 1505.42 3523.74 1504.79 3526.6 1504.79C3531.36 1504.79 3534.93 1506.23 3537.32 1509.12C3539.72 1511.98 3540.91 1516.28 3540.91 1522.02V1548ZM3588.29 1529.4H3559.47C3559.63 1533.39 3560.79 1536.43 3562.93 1538.52C3565.07 1540.58 3568.07 1541.61 3571.92 1541.61C3573.49 1541.61 3575.27 1541.29 3577.28 1540.66C3579.29 1540.03 3581.27 1539.01 3583.22 1537.61L3587.55 1543.59C3584.94 1545.48 3582.28 1546.86 3579.59 1547.71C3576.89 1548.56 3573.93 1548.99 3570.68 1548.99C3564.11 1548.99 3559 1547.11 3555.34 1543.34C3551.69 1539.55 3549.85 1534.26 3549.82 1527.47C3549.82 1520.7 3551.7 1515.23 3555.47 1511.05C3559.26 1506.88 3564.11 1504.79 3570.02 1504.79C3575.69 1504.79 3580.14 1506.57 3583.38 1510.15C3586.65 1513.69 3588.29 1518.72 3588.29 1525.24V1529.4ZM3579.01 1522.76C3579.01 1519.14 3578.21 1516.41 3576.62 1514.6C3575.05 1512.76 3572.83 1511.84 3569.94 1511.84C3567.22 1511.84 3564.9 1512.83 3562.97 1514.81C3561.07 1516.76 3559.91 1519.41 3559.47 1522.76H3579.01ZM3597.4 1548V1485.49H3607.01V1548H3597.4ZM3619.5 1548V1485.49H3629.11V1548H3619.5ZM3662.76 1543.05L3667.42 1536.95C3669.4 1538.49 3671.43 1539.62 3673.52 1540.33C3675.61 1541.02 3677.79 1541.36 3680.08 1541.36C3683.57 1541.36 3686.37 1540.33 3688.49 1538.27C3690.6 1536.21 3691.66 1533.57 3691.66 1530.35C3691.66 1526.78 3690.48 1524.07 3688.12 1522.23C3685.75 1520.36 3682.29 1519.42 3677.73 1519.42C3676.16 1519.42 3674.47 1519.48 3672.65 1519.59C3670.84 1519.7 3669.11 1519.85 3667.46 1520.04L3669.56 1488.87H3698.67V1497.03H3677.27L3676.24 1511.88C3677.2 1511.82 3678.15 1511.78 3679.09 1511.76C3680.05 1511.7 3680.91 1511.67 3681.68 1511.67C3687.84 1511.67 3692.67 1513.27 3696.16 1516.46C3699.65 1519.62 3701.39 1523.99 3701.39 1529.57C3701.39 1535.31 3699.47 1540 3695.62 1543.63C3691.8 1547.23 3686.73 1549.03 3680.41 1549.03C3677 1549.03 3673.88 1548.55 3671.05 1547.59C3668.21 1546.63 3665.45 1545.11 3662.76 1543.05ZM3715.74 1548.95C3714.01 1548.95 3712.57 1548.4 3711.41 1547.3C3710.26 1546.2 3709.68 1544.82 3709.68 1543.18C3709.68 1541.55 3710.26 1540.19 3711.41 1539.09C3712.57 1537.97 3714.01 1537.4 3715.74 1537.4C3717.48 1537.4 3718.92 1537.97 3720.07 1539.09C3721.26 1540.19 3721.85 1541.55 3721.85 1543.18C3721.85 1544.82 3721.26 1546.2 3720.07 1547.3C3718.92 1548.4 3717.48 1548.95 3715.74 1548.95ZM3750.59 1548H3741.02V1499.88C3739.78 1500.81 3738.04 1501.79 3735.78 1502.81C3733.53 1503.8 3731.36 1504.59 3729.27 1505.2L3726.63 1497.24C3730.07 1496.31 3733.52 1494.96 3736.98 1493.2C3740.44 1491.41 3743.33 1489.53 3745.64 1487.55H3750.59V1548ZM1867.3 1772V1712.87H1886.27C1892.07 1712.87 1896.57 1714.11 1899.79 1716.58C1903.03 1719.03 1904.66 1722.42 1904.66 1726.77C1904.66 1730.04 1903.72 1732.9 1901.85 1735.34C1900.01 1737.76 1897.55 1739.47 1894.47 1740.46V1740.62C1898.38 1741.09 1901.5 1742.59 1903.83 1745.12C1906.17 1747.64 1907.34 1750.85 1907.34 1754.72C1907.34 1759.95 1905.47 1764.14 1901.73 1767.3C1897.99 1770.43 1893.08 1772 1887.01 1772H1867.3ZM1877.11 1720.75V1737.73H1883.67C1886.97 1737.73 1889.56 1736.94 1891.46 1735.34C1893.39 1733.75 1894.35 1731.51 1894.35 1728.62C1894.35 1725.98 1893.45 1724.02 1891.67 1722.73C1889.91 1721.41 1887.27 1720.75 1883.75 1720.75H1877.11ZM1877.11 1745.61V1764.12H1885.52C1889.15 1764.12 1891.97 1763.27 1893.98 1761.57C1896.01 1759.86 1897.03 1757.54 1897.03 1754.6C1897.03 1751.66 1895.98 1749.43 1893.89 1747.92C1891.81 1746.38 1888.77 1745.61 1884.78 1745.61H1877.11ZM1953.02 1753.4H1924.2C1924.37 1757.39 1925.52 1760.43 1927.67 1762.52C1929.81 1764.58 1932.81 1765.61 1936.65 1765.61C1938.22 1765.61 1940.01 1765.29 1942.01 1764.66C1944.02 1764.03 1946 1763.01 1947.95 1761.61L1952.28 1767.59C1949.67 1769.48 1947.02 1770.86 1944.32 1771.71C1941.63 1772.56 1938.66 1772.99 1935.42 1772.99C1928.85 1772.99 1923.73 1771.11 1920.08 1767.34C1916.42 1763.55 1914.58 1758.26 1914.55 1751.47C1914.55 1744.7 1916.44 1739.23 1920.2 1735.05C1924 1730.88 1928.85 1728.79 1934.76 1728.79C1940.42 1728.79 1944.87 1730.57 1948.12 1734.15C1951.39 1737.69 1953.02 1742.72 1953.02 1749.24V1753.4ZM1943.75 1746.76C1943.75 1743.14 1942.95 1740.41 1941.36 1738.6C1939.79 1736.76 1937.56 1735.84 1934.68 1735.84C1931.95 1735.84 1929.63 1736.83 1927.71 1738.81C1925.81 1740.76 1924.64 1743.41 1924.2 1746.76H1943.75ZM1994.38 1772H1985.1V1765.65H1984.94C1983.51 1768.1 1981.74 1769.94 1979.62 1771.18C1977.5 1772.38 1975.07 1772.99 1972.32 1772.99C1968.5 1772.99 1965.33 1771.86 1962.8 1769.61C1960.27 1767.33 1959 1764.22 1959 1760.29C1959 1756.55 1960.27 1753.49 1962.8 1751.09C1965.33 1748.68 1969.08 1747.11 1974.05 1746.39L1985.15 1744.91V1744.04C1985.15 1741.18 1984.4 1739.11 1982.92 1737.82C1981.43 1736.52 1979.43 1735.88 1976.9 1735.88C1974.89 1735.88 1972.84 1736.24 1970.75 1736.95C1968.69 1737.67 1966.69 1738.78 1964.73 1740.29L1960.57 1734.56C1963.15 1732.58 1965.82 1731.12 1968.57 1730.19C1971.32 1729.25 1974.34 1728.79 1977.64 1728.79C1983.3 1728.79 1987.51 1730.19 1990.26 1732.99C1993.01 1735.77 1994.38 1739.95 1994.38 1745.53V1772ZM1985.15 1754.85V1751.26L1976.12 1752.46C1973.45 1752.84 1971.44 1753.57 1970.1 1754.64C1968.78 1755.69 1968.12 1757.22 1968.12 1759.26C1968.12 1761.32 1968.75 1762.93 1970.01 1764.08C1971.28 1765.24 1972.9 1765.81 1974.88 1765.81C1977.98 1765.81 1980.47 1764.78 1982.34 1762.72C1984.21 1760.63 1985.15 1758.01 1985.15 1754.85ZM2043.12 1772H2033.51V1765.44H2033.35C2031.86 1767.95 2030.04 1769.83 2027.86 1771.09C2025.69 1772.36 2023.19 1772.99 2020.36 1772.99C2015.41 1772.99 2011.69 1771.51 2009.19 1768.54C2006.71 1765.57 2005.47 1761.1 2005.47 1755.14V1729.78H2015V1754.02C2015 1757.82 2015.73 1760.66 2017.18 1762.56C2018.67 1764.43 2020.88 1765.36 2023.82 1765.36C2026.68 1765.36 2029.01 1764.33 2030.79 1762.27C2032.61 1760.21 2033.51 1757.46 2033.51 1754.02V1729.78H2043.12V1772ZM2078.58 1771.42C2077.35 1771.95 2076.05 1772.33 2074.71 1772.58C2073.36 1772.82 2071.92 1772.95 2070.38 1772.95C2066.47 1772.95 2063.46 1771.92 2061.35 1769.86C2059.26 1767.77 2058.21 1764.66 2058.21 1760.54V1737.28H2051.12V1729.78H2058.21V1719.51L2067.78 1716.62V1729.78H2077.88V1737.28H2067.78V1759.75C2067.78 1761.82 2068.15 1763.3 2068.89 1764.21C2069.66 1765.11 2070.84 1765.57 2072.44 1765.57C2073.21 1765.57 2073.94 1765.49 2074.62 1765.32C2075.34 1765.13 2075.97 1764.89 2076.52 1764.62L2078.58 1771.42ZM2090.95 1721.61C2089.19 1721.61 2087.74 1721.05 2086.58 1719.92C2085.43 1718.79 2084.85 1717.41 2084.85 1715.76C2084.85 1714.05 2085.43 1712.65 2086.58 1711.55C2087.74 1710.45 2089.19 1709.9 2090.95 1709.9C2092.74 1709.9 2094.21 1710.45 2095.36 1711.55C2096.52 1712.65 2097.1 1714.05 2097.1 1715.76C2097.1 1717.43 2096.52 1718.84 2095.36 1719.96C2094.21 1721.06 2092.74 1721.61 2090.95 1721.61ZM2095.69 1772H2086.09V1729.78H2095.69V1772ZM2131.03 1717.03C2130.26 1716.73 2129.56 1716.53 2128.93 1716.42C2128.3 1716.28 2127.61 1716.21 2126.87 1716.21C2124.83 1716.21 2123.29 1716.8 2122.25 1717.98C2121.23 1719.14 2120.72 1720.81 2120.72 1723.01V1729.78H2130.5V1737.28H2120.72V1772H2111.16V1737.28H2103.98V1729.78H2111.16V1722.52C2111.16 1718.23 2112.53 1714.84 2115.28 1712.33C2118.06 1709.81 2121.73 1708.54 2126.29 1708.54C2127.72 1708.54 2128.96 1708.64 2130 1708.83C2131.05 1709.02 2132.13 1709.3 2133.26 1709.65L2131.03 1717.03ZM2174.16 1772H2164.56V1765.44H2164.39C2162.91 1767.95 2161.08 1769.83 2158.91 1771.09C2156.73 1772.36 2154.23 1772.99 2151.4 1772.99C2146.45 1772.99 2142.73 1771.51 2140.23 1768.54C2137.75 1765.57 2136.52 1761.1 2136.52 1755.14V1729.78H2146.04V1754.02C2146.04 1757.82 2146.77 1760.66 2148.23 1762.56C2149.71 1764.43 2151.92 1765.36 2154.87 1765.36C2157.72 1765.36 2160.05 1764.33 2161.83 1762.27C2163.65 1760.21 2164.56 1757.46 2164.56 1754.02V1729.78H2174.16V1772ZM2186.62 1772V1709.49H2196.22V1772H2186.62ZM2295.19 1772H2285.62V1747.84C2285.62 1743.88 2284.96 1740.99 2283.64 1739.18C2282.35 1737.34 2280.26 1736.41 2277.37 1736.41C2274.82 1736.41 2272.67 1737.56 2270.94 1739.84C2269.24 1742.09 2268.38 1744.85 2268.38 1748.13V1772H2258.82V1747.26C2258.82 1743.63 2258.12 1740.92 2256.71 1739.14C2255.34 1737.32 2253.28 1736.41 2250.53 1736.41C2247.89 1736.41 2245.75 1737.5 2244.1 1739.67C2242.45 1741.82 2241.62 1744.66 2241.62 1748.21V1772H2232.01V1729.78H2241.62V1736.41H2241.79C2243.22 1734 2245.07 1732.13 2247.35 1730.81C2249.66 1729.46 2252.26 1728.79 2255.15 1728.79C2258.06 1728.79 2260.56 1729.52 2262.65 1730.97C2264.77 1732.43 2266.29 1734.48 2267.23 1737.12C2268.82 1734.34 2270.79 1732.26 2273.13 1730.89C2275.46 1729.49 2278.2 1728.79 2281.33 1728.79C2285.95 1728.79 2289.41 1730.22 2291.72 1733.07C2294.03 1735.91 2295.19 1740.17 2295.19 1745.86V1772ZM2325.53 1772.99C2318.94 1772.99 2313.7 1771.02 2309.82 1767.09C2305.98 1763.13 2304.05 1757.84 2304.05 1751.22C2304.08 1744.21 2306.08 1738.72 2310.07 1734.77C2314.06 1730.78 2319.49 1728.79 2326.36 1728.79C2332.98 1728.76 2338.15 1730.71 2341.86 1734.64C2345.6 1738.55 2347.47 1743.84 2347.47 1750.52C2347.47 1757.39 2345.49 1762.86 2341.53 1766.93C2337.6 1770.97 2332.27 1772.99 2325.53 1772.99ZM2325.99 1765.36C2329.81 1765.36 2332.71 1764.11 2334.69 1761.61C2336.69 1759.11 2337.7 1755.49 2337.7 1750.76C2337.7 1746.09 2336.69 1742.53 2334.69 1740.08C2332.68 1737.64 2329.77 1736.41 2325.95 1736.41C2322.18 1736.41 2319.21 1737.71 2317.04 1740.29C2314.9 1742.87 2313.82 1746.45 2313.82 1751.01C2313.82 1755.6 2314.9 1759.15 2317.04 1761.65C2319.18 1764.12 2322.17 1765.36 2325.99 1765.36ZM2385.9 1765.44C2384.39 1767.97 2382.48 1769.87 2380.17 1771.13C2377.86 1772.37 2375.15 1772.99 2372.05 1772.99C2366.77 1772.99 2362.52 1771.12 2359.3 1767.38C2356.12 1763.62 2354.52 1758.45 2354.52 1751.88C2354.52 1744.9 2356.28 1739.3 2359.8 1735.1C2363.35 1730.89 2368.02 1728.79 2373.82 1728.79C2376.65 1728.79 2379.07 1729.32 2381.08 1730.39C2383.08 1731.44 2384.69 1733.03 2385.9 1735.18H2386.07V1709.49H2395.67V1772H2386.07V1765.44H2385.9ZM2364.29 1751.51C2364.29 1755.85 2365.27 1759.24 2367.22 1761.69C2369.17 1764.14 2371.83 1765.36 2375.18 1765.36C2378.45 1765.36 2381.1 1764.14 2383.14 1761.69C2385.17 1759.24 2386.19 1756.1 2386.19 1752.25V1747.42C2386.19 1744.29 2385.21 1741.68 2383.26 1739.59C2381.31 1737.47 2378.81 1736.41 2375.76 1736.41C2372.18 1736.41 2369.38 1737.76 2367.35 1740.46C2365.31 1743.12 2364.29 1746.81 2364.29 1751.51ZM2443.88 1753.4H2415.05C2415.22 1757.39 2416.37 1760.43 2418.52 1762.52C2420.66 1764.58 2423.66 1765.61 2427.51 1765.61C2429.07 1765.61 2430.86 1765.29 2432.87 1764.66C2434.87 1764.03 2436.85 1763.01 2438.8 1761.61L2443.13 1767.59C2440.52 1769.48 2437.87 1770.86 2435.18 1771.71C2432.48 1772.56 2429.51 1772.99 2426.27 1772.99C2419.7 1772.99 2414.59 1771.11 2410.93 1767.34C2407.27 1763.55 2405.43 1758.26 2405.4 1751.47C2405.4 1744.7 2407.29 1739.23 2411.05 1735.05C2414.85 1730.88 2419.7 1728.79 2425.61 1728.79C2431.27 1728.79 2435.73 1730.57 2438.97 1734.15C2442.24 1737.69 2443.88 1742.72 2443.88 1749.24V1753.4ZM2434.6 1746.76C2434.6 1743.14 2433.8 1740.41 2432.21 1738.6C2430.64 1736.76 2428.41 1735.84 2425.53 1735.84C2422.81 1735.84 2420.48 1736.83 2418.56 1738.81C2416.66 1740.76 2415.49 1743.41 2415.05 1746.76H2434.6ZM2476.49 1737.82C2475.97 1737.68 2475.46 1737.58 2474.97 1737.53C2474.5 1737.45 2473.95 1737.4 2473.32 1737.4C2469.88 1737.4 2467.24 1738.67 2465.4 1741.2C2463.56 1743.73 2462.64 1747.03 2462.64 1751.09V1772H2453.03V1729.78H2462.64V1737.9H2462.8C2463.79 1734.99 2465.25 1732.79 2467.17 1731.3C2469.1 1729.79 2471.37 1729.03 2473.98 1729.03C2474.72 1729.03 2475.38 1729.08 2475.96 1729.16C2476.56 1729.24 2477.14 1729.36 2477.69 1729.53L2476.49 1737.82ZM2522.22 1772H2512.65V1748.21C2512.65 1744.28 2511.94 1741.34 2510.51 1739.38C2509.08 1737.4 2506.94 1736.41 2504.08 1736.41C2501.22 1736.41 2498.85 1737.5 2496.99 1739.67C2495.12 1741.84 2494.18 1744.59 2494.18 1747.92V1772H2484.57V1729.78H2494.18V1736.62H2494.35C2495.91 1734.01 2497.84 1732.06 2500.12 1730.77C2502.4 1729.45 2505.05 1728.79 2508.08 1728.79C2512.7 1728.79 2516.2 1730.26 2518.59 1733.2C2521.01 1736.14 2522.22 1740.47 2522.22 1746.19V1772ZM2631.49 1712.87L2615.29 1772H2604.15L2593.06 1731.18C2592.81 1730.22 2592.61 1729.21 2592.44 1728.17C2592.28 1727.1 2592.17 1726 2592.11 1724.87H2591.95C2591.87 1726.02 2591.73 1727.12 2591.54 1728.17C2591.37 1729.21 2591.15 1730.2 2590.88 1731.14L2579.62 1772H2568.28L2551.74 1712.87H2562.51L2573.19 1755.55C2573.41 1756.43 2573.58 1757.39 2573.72 1758.43C2573.89 1759.48 2574 1760.62 2574.05 1761.86H2574.3C2574.35 1760.95 2574.48 1759.97 2574.67 1758.93C2574.89 1757.86 2575.18 1756.7 2575.54 1755.47L2587.54 1712.87H2597.64L2608.85 1755.88C2609.07 1756.62 2609.27 1757.49 2609.43 1758.48C2609.6 1759.46 2609.73 1760.56 2609.84 1761.77H2610.01C2610.06 1760.87 2610.17 1759.92 2610.34 1758.93C2610.53 1757.91 2610.75 1756.83 2611 1755.67L2621.31 1712.87H2631.49ZM2649.59 1751.34V1772H2639.78V1712.87H2658.13C2664.95 1712.87 2670.14 1714.46 2673.72 1717.65C2677.32 1720.81 2679.12 1725.42 2679.12 1731.47C2679.12 1737.35 2677.1 1742.13 2673.06 1745.82C2669.01 1749.5 2663.57 1751.34 2656.73 1751.34H2649.59ZM2649.59 1720.91V1743.34H2655.94C2660.18 1743.34 2663.38 1742.37 2665.55 1740.41C2667.72 1738.44 2668.81 1735.59 2668.81 1731.88C2668.81 1728.22 2667.78 1725.49 2665.72 1723.67C2663.65 1721.83 2660.56 1720.91 2656.44 1720.91H2649.59ZM2721.09 1721.2H2698.99V1738.97H2719.36V1747.26H2698.99V1772H2689.18V1712.87H2721.09V1721.2ZM2786.08 1772H2776.8V1765.65H2776.64C2775.21 1768.1 2773.43 1769.94 2771.32 1771.18C2769.2 1772.38 2766.77 1772.99 2764.02 1772.99C2760.2 1772.99 2757.02 1771.86 2754.49 1769.61C2751.96 1767.33 2750.7 1764.22 2750.7 1760.29C2750.7 1756.55 2751.96 1753.49 2754.49 1751.09C2757.02 1748.68 2760.77 1747.11 2765.75 1746.39L2776.84 1744.91V1744.04C2776.84 1741.18 2776.1 1739.11 2774.62 1737.82C2773.13 1736.52 2771.12 1735.88 2768.59 1735.88C2766.59 1735.88 2764.54 1736.24 2762.45 1736.95C2760.39 1737.67 2758.38 1738.78 2756.43 1740.29L2752.27 1734.56C2754.85 1732.58 2757.52 1731.12 2760.27 1730.19C2763.01 1729.25 2766.04 1728.79 2769.34 1728.79C2775 1728.79 2779.21 1730.19 2781.95 1732.99C2784.7 1735.77 2786.08 1739.95 2786.08 1745.53V1772ZM2776.84 1754.85V1751.26L2767.81 1752.46C2765.15 1752.84 2763.14 1753.57 2761.79 1754.64C2760.47 1755.69 2759.81 1757.22 2759.81 1759.26C2759.81 1761.32 2760.44 1762.93 2761.71 1764.08C2762.97 1765.24 2764.6 1765.81 2766.57 1765.81C2769.68 1765.81 2772.17 1764.78 2774.04 1762.72C2775.91 1760.63 2776.84 1758.01 2776.84 1754.85ZM2807.73 1766.43H2807.56V1791.42H2797.95V1729.78H2807.56V1736.7H2807.73C2809.35 1734.06 2811.34 1732.09 2813.71 1730.77C2816.07 1729.45 2818.78 1728.79 2821.83 1728.79C2827.27 1728.79 2831.5 1730.67 2834.53 1734.44C2837.58 1738.2 2839.11 1743.27 2839.11 1749.65C2839.11 1756.72 2837.37 1762.38 2833.91 1766.64C2830.45 1770.87 2825.77 1772.99 2819.89 1772.99C2817.25 1772.99 2814.91 1772.45 2812.88 1771.38C2810.85 1770.28 2809.13 1768.63 2807.73 1766.43ZM2807.44 1749.28V1754.02C2807.44 1757.27 2808.41 1759.97 2810.37 1762.15C2812.32 1764.29 2814.8 1765.36 2817.83 1765.36C2821.43 1765.36 2824.23 1763.99 2826.24 1761.24C2828.25 1758.49 2829.25 1754.64 2829.25 1749.69C2829.25 1745.43 2828.33 1742.16 2826.49 1739.88C2824.65 1737.57 2822.06 1736.41 2818.74 1736.41C2815.35 1736.41 2812.62 1737.62 2810.53 1740.04C2808.47 1742.44 2807.44 1745.51 2807.44 1749.28ZM2858.61 1766.43H2858.44V1791.42H2848.84V1729.78H2858.44V1736.7H2858.61C2860.23 1734.06 2862.22 1732.09 2864.59 1730.77C2866.95 1729.45 2869.66 1728.79 2872.71 1728.79C2878.15 1728.79 2882.39 1730.67 2885.41 1734.44C2888.46 1738.2 2889.99 1743.27 2889.99 1749.65C2889.99 1756.72 2888.26 1762.38 2884.79 1766.64C2881.33 1770.87 2876.66 1772.99 2870.77 1772.99C2868.13 1772.99 2865.8 1772.45 2863.76 1771.38C2861.73 1770.28 2860.01 1768.63 2858.61 1766.43ZM2858.32 1749.28V1754.02C2858.32 1757.27 2859.3 1759.97 2861.25 1762.15C2863.2 1764.29 2865.69 1765.36 2868.71 1765.36C2872.31 1765.36 2875.12 1763.99 2877.12 1761.24C2879.13 1758.49 2880.13 1754.64 2880.13 1749.69C2880.13 1745.43 2879.21 1742.16 2877.37 1739.88C2875.53 1737.57 2872.94 1736.41 2869.62 1736.41C2866.24 1736.41 2863.5 1737.62 2861.41 1740.04C2859.35 1742.44 2858.32 1745.51 2858.32 1749.28ZM2895.64 1768.62L2899.8 1761.86C2901.45 1763.01 2903.2 1763.95 2905.04 1764.66C2906.91 1765.35 2908.93 1765.69 2911.1 1765.69C2913.46 1765.69 2915.29 1765.27 2916.58 1764.41C2917.9 1763.53 2918.56 1762.23 2918.56 1760.5C2918.56 1759.12 2918.01 1757.98 2916.91 1757.07C2915.84 1756.14 2914 1755.37 2911.39 1754.76C2906.11 1753.53 2902.4 1751.89 2900.26 1749.86C2898.14 1747.82 2897.08 1745.14 2897.08 1741.82C2897.08 1738 2898.56 1734.88 2901.53 1732.46C2904.5 1730.01 2908.39 1728.79 2913.2 1728.79C2915.59 1728.79 2917.88 1729.1 2920.05 1729.73C2922.22 1730.34 2924.34 1731.32 2926.4 1732.66L2922.52 1739.26C2920.71 1738.11 2919.04 1737.28 2917.53 1736.79C2916.02 1736.29 2914.47 1736.04 2912.87 1736.04C2910.62 1736.04 2908.86 1736.47 2907.6 1737.32C2906.36 1738.15 2905.74 1739.3 2905.74 1740.79C2905.74 1742.35 2906.37 1743.52 2907.64 1744.29C2908.93 1745.03 2911.09 1745.76 2914.11 1746.48C2918.67 1747.58 2922.01 1749.17 2924.13 1751.26C2926.25 1753.32 2927.31 1756.08 2927.31 1759.55C2927.31 1763.64 2925.81 1766.91 2922.81 1769.36C2919.84 1771.78 2915.81 1772.99 2910.73 1772.99C2907.98 1772.99 2905.34 1772.63 2902.81 1771.92C2900.31 1771.18 2897.92 1770.08 2895.64 1768.62ZM2963.39 1772.95C2961.65 1772.95 2960.21 1772.4 2959.06 1771.3C2957.9 1770.2 2957.32 1768.82 2957.32 1767.18C2957.32 1765.55 2957.9 1764.19 2959.06 1763.09C2960.21 1761.97 2961.65 1761.4 2963.39 1761.4C2965.12 1761.4 2966.56 1761.97 2967.71 1763.09C2968.9 1764.19 2969.49 1765.55 2969.49 1767.18C2969.49 1768.82 2968.9 1770.2 2967.71 1771.3C2966.56 1772.4 2965.12 1772.95 2963.39 1772.95ZM2983.75 1772.95C2982.02 1772.95 2980.58 1772.4 2979.43 1771.3C2978.27 1770.2 2977.69 1768.82 2977.69 1767.18C2977.69 1765.55 2978.27 1764.19 2979.43 1763.09C2980.58 1761.97 2982.02 1761.4 2983.75 1761.4C2985.49 1761.4 2986.93 1761.97 2988.08 1763.09C2989.27 1764.19 2989.86 1765.55 2989.86 1767.18C2989.86 1768.82 2989.27 1770.2 2988.08 1771.3C2986.93 1772.4 2985.49 1772.95 2983.75 1772.95ZM3004.12 1772.95C3002.39 1772.95 3000.95 1772.4 2999.79 1771.3C2998.64 1770.2 2998.06 1768.82 2998.06 1767.18C2998.06 1765.55 2998.64 1764.19 2999.79 1763.09C3000.95 1761.97 3002.39 1761.4 3004.12 1761.4C3005.86 1761.4 3007.3 1761.97 3008.45 1763.09C3009.64 1764.19 3010.23 1765.55 3010.23 1767.18C3010.23 1768.82 3009.64 1770.2 3008.45 1771.3C3007.3 1772.4 3005.86 1772.95 3004.12 1772.95Z" fill="#787878"/>
<path d="M3048.99 1724.25C3046.73 1724.25 3044.89 1723.56 3043.46 1722.19C3042.03 1720.79 3041.32 1719.06 3041.32 1716.99C3041.32 1714.85 3042.03 1713.1 3043.46 1711.76C3044.89 1710.41 3046.73 1709.74 3048.99 1709.74C3051.27 1709.74 3053.11 1710.41 3054.51 1711.76C3055.94 1713.1 3056.66 1714.85 3056.66 1716.99C3056.66 1719.14 3055.94 1720.88 3054.51 1722.23C3053.11 1723.58 3051.27 1724.25 3048.99 1724.25ZM3055.5 1772H3042.47V1729.78H3055.5V1772ZM3106.59 1772H3093.6V1747.75C3093.6 1745.06 3093.03 1742.92 3091.87 1741.32C3090.72 1739.7 3089 1738.89 3086.72 1738.89C3084.43 1738.89 3082.55 1739.74 3081.07 1741.45C3079.58 1743.15 3078.84 1745.31 3078.84 1747.92V1772H3065.81V1729.78H3078.84V1735.14H3079.01C3080.38 1733.21 3082.29 1731.67 3084.74 1730.52C3087.18 1729.34 3089.64 1728.75 3092.12 1728.75C3096.87 1728.75 3100.48 1730.23 3102.92 1733.2C3105.37 1736.17 3106.59 1740.36 3106.59 1745.78V1772ZM3141.93 1724.25C3139.67 1724.25 3137.83 1723.56 3136.4 1722.19C3134.97 1720.79 3134.26 1719.06 3134.26 1716.99C3134.26 1714.85 3134.97 1713.1 3136.4 1711.76C3137.83 1710.41 3139.67 1709.74 3141.93 1709.74C3144.21 1709.74 3146.05 1710.41 3147.45 1711.76C3148.88 1713.1 3149.6 1714.85 3149.6 1716.99C3149.6 1719.14 3148.88 1720.88 3147.45 1722.23C3146.05 1723.58 3144.21 1724.25 3141.93 1724.25ZM3148.44 1775.92C3148.44 1780.59 3146.96 1784.41 3143.99 1787.38C3141.05 1790.35 3137.05 1791.83 3131.99 1791.83C3129.85 1791.83 3127.74 1791.56 3125.68 1791.01C3123.62 1790.46 3121.71 1789.59 3119.95 1788.41L3125.64 1779.83C3126.47 1780.41 3127.3 1780.87 3128.16 1781.2C3128.98 1781.53 3129.87 1781.69 3130.84 1781.69C3132.29 1781.69 3133.42 1781.26 3134.22 1780.41C3135.02 1779.59 3135.41 1778.25 3135.41 1776.41V1729.78H3148.44V1775.92ZM3199.2 1771.96H3186.17V1766.6H3186.01C3184.69 1768.52 3182.83 1770.08 3180.44 1771.26C3178.08 1772.41 3175.7 1772.99 3173.31 1772.99C3168.42 1772.99 3164.7 1771.51 3162.18 1768.54C3159.67 1765.57 3158.42 1761.38 3158.42 1755.96V1729.73H3171.41V1753.98C3171.41 1756.67 3171.99 1758.83 3173.14 1760.45C3174.3 1762.05 3176.02 1762.85 3178.3 1762.85C3180.58 1762.85 3182.46 1761.99 3183.95 1760.29C3185.43 1758.59 3186.17 1756.43 3186.17 1753.82V1729.73H3199.2V1771.96ZM3206.63 1766.6L3212.77 1758.68C3214.91 1760.69 3216.89 1762.06 3218.71 1762.8C3220.52 1763.55 3222.38 1763.92 3224.27 1763.92C3226.17 1763.92 3227.61 1763.6 3228.6 1762.97C3229.62 1762.31 3230.13 1761.35 3230.13 1760.08C3230.13 1759.12 3229.65 1758.31 3228.69 1757.65C3227.72 1756.99 3226.17 1756.52 3224.03 1756.25C3218.42 1755.42 3214.42 1753.88 3212.03 1751.63C3209.64 1749.38 3208.44 1746.43 3208.44 1742.81C3208.44 1738.82 3209.9 1735.48 3212.81 1732.79C3215.75 1730.09 3219.72 1728.75 3224.73 1728.75C3227.7 1728.75 3230.5 1729.16 3233.14 1729.98C3235.78 1730.81 3238.03 1732.06 3239.9 1733.73L3233.59 1741.28C3231.97 1740.07 3230.45 1739.19 3229.02 1738.64C3227.61 1738.06 3226.14 1737.78 3224.6 1737.78C3222.87 1737.78 3221.61 1738.09 3220.81 1738.72C3220.04 1739.33 3219.66 1740.19 3219.66 1741.32C3219.66 1742.28 3220.15 1743.09 3221.14 1743.75C3222.13 1744.41 3223.88 1744.88 3226.38 1745.16C3231.32 1745.73 3235.08 1747.14 3237.63 1749.36C3240.22 1751.56 3241.51 1754.7 3241.51 1758.76C3241.51 1763.11 3239.86 1766.57 3236.56 1769.15C3233.29 1771.74 3229.13 1773.03 3224.07 1773.03C3220.63 1773.03 3217.39 1772.49 3214.34 1771.42C3211.28 1770.35 3208.71 1768.74 3206.63 1766.6ZM3277.18 1768.99C3275.89 1770.17 3274.29 1771.15 3272.39 1771.92C3270.5 1772.66 3268.44 1773.03 3266.21 1773.03C3261.37 1773.03 3257.78 1771.92 3255.45 1769.69C3253.11 1767.46 3251.94 1764.14 3251.94 1759.71V1739.38H3245.1V1729.78H3251.94V1719.01L3264.93 1716.7V1729.78H3275.07V1739.38H3264.93V1759.63C3264.93 1760.92 3265.21 1761.9 3265.76 1762.56C3266.33 1763.22 3267.13 1763.55 3268.15 1763.55C3268.75 1763.55 3269.36 1763.45 3269.96 1763.26C3270.59 1763.04 3271.25 1762.61 3271.94 1761.98L3277.18 1768.99ZM3343.07 1752.33C3343.07 1758.19 3341.17 1763.11 3337.38 1767.09C3333.61 1771.05 3328.71 1773.03 3322.66 1773.03C3316.23 1773.03 3311.22 1770.78 3307.65 1766.27C3304.1 1761.73 3302.33 1754.83 3302.33 1745.57C3302.33 1739.74 3303 1734.52 3304.35 1729.9C3305.72 1725.25 3307.72 1721.46 3310.33 1718.52C3312.36 1716.24 3314.71 1714.56 3317.38 1713.49C3320.05 1712.42 3322.96 1711.88 3326.12 1711.88C3329.78 1711.88 3333.04 1712.82 3335.89 1714.68C3338.78 1716.53 3340.98 1718.96 3342.49 1721.98L3333.42 1727.34C3332.68 1725.72 3331.67 1724.43 3330.41 1723.47C3329.15 1722.48 3327.58 1721.98 3325.71 1721.98C3324.34 1721.98 3323.04 1722.26 3321.83 1722.81C3320.65 1723.33 3319.57 1724.14 3318.58 1725.24C3317.2 1726.72 3316.17 1728.69 3315.48 1731.14C3314.82 1733.56 3314.47 1736.28 3314.41 1739.3H3314.78C3316.24 1737.54 3318 1736.22 3320.06 1735.34C3322.15 1734.44 3324.51 1733.98 3327.15 1733.98C3332.02 1733.98 3335.88 1735.67 3338.74 1739.05C3341.63 1742.44 3343.07 1746.86 3343.07 1752.33ZM3330.99 1753.16C3330.99 1750.32 3330.3 1748.06 3328.93 1746.35C3327.58 1744.65 3325.67 1743.8 3323.19 1743.8C3320.69 1743.8 3318.71 1744.74 3317.26 1746.64C3315.8 1748.51 3315.07 1750.7 3315.07 1753.2C3315.07 1756.08 3315.8 1758.42 3317.26 1760.21C3318.71 1761.97 3320.6 1762.85 3322.91 1762.85C3325.43 1762.85 3327.41 1761.95 3328.84 1760.17C3330.27 1758.35 3330.99 1756.01 3330.99 1753.16ZM3386.53 1712.87V1750.15H3392.1V1759.88H3386.53V1772H3374.16V1759.88H3349.79V1749.69C3351.93 1747.14 3354.16 1744.35 3356.47 1741.32C3358.81 1738.27 3361.05 1735.14 3363.19 1731.92C3365.36 1728.7 3367.37 1725.47 3369.21 1722.23C3371.08 1718.96 3372.66 1715.84 3373.95 1712.87H3386.53ZM3361.13 1750.15H3374.16V1729.82C3373.25 1731.6 3372.25 1733.42 3371.15 1735.26C3370.08 1737.07 3368.99 1738.86 3367.89 1740.62C3366.77 1742.35 3365.62 1744.03 3364.47 1745.65C3363.32 1747.25 3362.2 1748.74 3361.13 1750.15ZM3419.85 1773.03C3412.7 1773.03 3407.48 1770.56 3404.18 1765.61C3400.88 1760.66 3399.23 1753.25 3399.23 1743.38C3399.23 1733.13 3401.02 1725.32 3404.59 1719.96C3408.19 1714.57 3413.28 1711.88 3419.85 1711.88C3427.38 1711.88 3432.7 1714.4 3435.8 1719.43C3438.91 1724.43 3440.46 1731.96 3440.46 1742.02C3440.46 1752.03 3438.75 1759.7 3435.31 1765.03C3431.9 1770.36 3426.75 1773.03 3419.85 1773.03ZM3419.81 1721.82C3417.17 1721.82 3415.28 1723.59 3414.16 1727.14C3413.03 1730.66 3412.47 1735.96 3412.47 1743.05C3412.47 1749.71 3413.04 1754.71 3414.2 1758.06C3415.38 1761.39 3417.26 1763.05 3419.85 1763.05C3422.71 1763.05 3424.64 1761.33 3425.66 1757.9C3426.68 1754.46 3427.19 1749.31 3427.19 1742.44C3427.19 1735.56 3426.65 1730.41 3425.58 1726.97C3424.53 1723.54 3422.61 1721.82 3419.81 1721.82ZM3491.51 1772H3475.72L3462.4 1751.88H3462.24V1772H3449.21V1709.49H3462.24V1748.5H3462.4L3475.55 1729.78H3490.36L3475.64 1749.61L3491.51 1772ZM3510.48 1768.08H3510.32V1772H3497.29V1709.49H3510.32V1734.81H3510.48C3512.13 1732.77 3514.12 1731.26 3516.46 1730.27C3518.8 1729.25 3521.49 1728.75 3524.54 1728.75C3530.09 1728.75 3534.37 1730.61 3537.36 1734.35C3540.36 1738.09 3541.86 1743.2 3541.86 1749.69C3541.86 1756.73 3540.1 1762.38 3536.58 1766.64C3533.09 1770.9 3528.43 1773.03 3522.6 1773.03C3519.94 1773.03 3517.59 1772.62 3515.55 1771.79C3513.55 1770.97 3511.85 1769.73 3510.48 1768.08ZM3510.11 1749.28V1753.61C3510.11 1756.28 3510.93 1758.49 3512.58 1760.25C3514.23 1761.98 3516.36 1762.85 3518.97 1762.85C3522 1762.85 3524.33 1761.72 3525.98 1759.46C3527.66 1757.21 3528.5 1754.01 3528.5 1749.86C3528.5 1746.42 3527.74 1743.74 3526.23 1741.82C3524.72 1739.86 3522.53 1738.89 3519.68 1738.89C3516.95 1738.89 3514.67 1739.85 3512.83 1741.78C3511.02 1743.7 3510.11 1746.2 3510.11 1749.28ZM3555.3 1773.03C3553.16 1773.03 3551.37 1772.29 3549.94 1770.8C3548.51 1769.32 3547.8 1767.51 3547.8 1765.36C3547.8 1763.11 3548.53 1761.27 3549.98 1759.84C3551.47 1758.41 3553.31 1757.69 3555.51 1757.69C3557.73 1757.69 3559.55 1758.42 3560.95 1759.88C3562.38 1761.31 3563.09 1763.13 3563.09 1765.36C3563.09 1767.62 3562.37 1769.46 3560.91 1770.89C3559.48 1772.32 3557.61 1773.03 3555.3 1773.03Z" fill="#202020"/>
<path d="M1920.86 1351.88H1889.57V1373.22H1918.33V1389.67H1889.57V1424H1869.59V1335.31H1920.86V1351.88ZM1932.37 1424V1330.23H1951.91V1424H1932.37ZM2027.31 1423.94H2007.77V1415.9H2007.52C2005.54 1418.78 2002.76 1421.11 1999.17 1422.89C1995.62 1424.62 1992.06 1425.48 1988.47 1425.48C1981.13 1425.48 1975.56 1423.26 1971.77 1418.8C1968.02 1414.35 1966.14 1408.06 1966.14 1399.94V1360.6H1985.62V1396.97C1985.62 1401.01 1986.49 1404.25 1988.22 1406.68C1989.95 1409.07 1992.53 1410.27 1995.95 1410.27C1999.37 1410.27 2002.2 1408.99 2004.43 1406.43C2006.65 1403.88 2007.77 1400.64 2007.77 1396.72V1360.6H2027.31V1423.94ZM2099.49 1397.9H2058.17C2058.46 1401.98 2059.87 1405.24 2062.38 1407.67C2064.94 1410.06 2068.28 1411.26 2072.4 1411.26C2074.92 1411.26 2077.2 1410.64 2079.27 1409.4C2081.37 1408.17 2083.25 1406.31 2084.89 1403.84L2099.24 1412C2095.62 1416.7 2091.55 1420.14 2087.06 1422.33C2082.56 1424.47 2077.58 1425.55 2072.09 1425.55C2061.62 1425.55 2053.45 1422.72 2047.6 1417.07C2041.74 1411.38 2038.82 1403.47 2038.82 1393.32C2038.82 1382.81 2041.87 1374.48 2047.97 1368.33C2054.07 1362.19 2061.58 1359.12 2070.48 1359.12C2079.72 1359.12 2086.85 1361.86 2091.88 1367.34C2096.96 1372.83 2099.49 1381.08 2099.49 1392.08V1397.9ZM2081.37 1385.53C2081.37 1381.2 2080.44 1377.96 2078.59 1375.82C2076.77 1373.63 2074.32 1372.54 2071.23 1372.54C2067.51 1372.54 2064.5 1373.78 2062.19 1376.25C2059.93 1378.72 2058.55 1381.82 2058.05 1385.53H2081.37ZM2172.66 1424H2153.18V1387.63C2153.18 1383.59 2152.31 1380.37 2150.58 1377.98C2148.85 1375.55 2146.27 1374.33 2142.85 1374.33C2139.43 1374.33 2136.6 1375.61 2134.38 1378.17C2132.15 1380.72 2131.04 1383.96 2131.04 1387.88V1424H2111.49V1360.66H2131.04V1368.7H2131.28C2133.34 1365.82 2136.21 1363.51 2139.88 1361.78C2143.55 1360 2147.24 1359.12 2150.95 1359.12C2158.09 1359.12 2163.49 1361.34 2167.16 1365.8C2170.83 1370.25 2172.66 1376.54 2172.66 1384.66V1424ZM2229.38 1419.48C2227.44 1421.26 2225.05 1422.72 2222.2 1423.88C2219.36 1424.99 2216.27 1425.55 2212.93 1425.55C2205.67 1425.55 2200.29 1423.88 2196.78 1420.54C2193.28 1417.2 2191.53 1412.21 2191.53 1405.57V1375.08H2181.26V1360.66H2191.53V1344.52L2211.01 1341.06V1360.66H2226.22V1375.08H2211.01V1405.44C2211.01 1407.38 2211.42 1408.85 2212.25 1409.84C2213.11 1410.83 2214.31 1411.32 2215.83 1411.32C2216.74 1411.32 2217.65 1411.18 2218.55 1410.89C2219.5 1410.56 2220.49 1409.92 2221.52 1408.97L2229.38 1419.48ZM2270.76 1424V1335.31H2302.18C2317.93 1335.31 2329.74 1338.91 2337.62 1346.13C2345.49 1353.3 2349.43 1364.11 2349.43 1378.54C2349.43 1392.35 2345.12 1403.38 2336.51 1411.63C2327.93 1419.88 2316.49 1424 2302.18 1424H2270.76ZM2290.74 1351.88V1407.42H2300.63C2309.29 1407.42 2316.07 1404.87 2320.98 1399.75C2325.93 1394.6 2328.4 1387.61 2328.4 1378.79C2328.4 1370.42 2325.95 1363.84 2321.04 1359.06C2316.18 1354.27 2309.33 1351.88 2300.51 1351.88H2290.74ZM2417.9 1397.9H2376.58C2376.87 1401.98 2378.28 1405.24 2380.79 1407.67C2383.35 1410.06 2386.69 1411.26 2390.81 1411.26C2393.33 1411.26 2395.61 1410.64 2397.68 1409.4C2399.78 1408.17 2401.66 1406.31 2403.3 1403.84L2417.65 1412C2414.03 1416.7 2409.96 1420.14 2405.47 1422.33C2400.97 1424.47 2395.99 1425.55 2390.5 1425.55C2380.03 1425.55 2371.86 1422.72 2366.01 1417.07C2360.15 1411.38 2357.23 1403.47 2357.23 1393.32C2357.23 1382.81 2360.28 1374.48 2366.38 1368.33C2372.48 1362.19 2379.99 1359.12 2388.89 1359.12C2398.13 1359.12 2405.26 1361.86 2410.29 1367.34C2415.37 1372.83 2417.9 1381.08 2417.9 1392.08V1397.9ZM2399.78 1385.53C2399.78 1381.2 2398.85 1377.96 2397 1375.82C2395.18 1373.63 2392.73 1372.54 2389.64 1372.54C2385.92 1372.54 2382.91 1373.78 2380.61 1376.25C2378.34 1378.72 2376.96 1381.82 2376.46 1385.53H2399.78ZM2425.76 1415.9L2434.97 1404.02C2438.19 1407.03 2441.16 1409.09 2443.88 1410.21C2446.6 1411.32 2449.38 1411.88 2452.23 1411.88C2455.07 1411.88 2457.24 1411.4 2458.72 1410.45C2460.25 1409.46 2461.01 1408.02 2461.01 1406.12C2461.01 1404.68 2460.29 1403.47 2458.85 1402.48C2457.4 1401.49 2455.07 1400.79 2451.86 1400.37C2443.45 1399.14 2437.45 1396.83 2433.86 1393.45C2430.27 1390.06 2428.48 1385.65 2428.48 1380.21C2428.48 1374.23 2430.66 1369.22 2435.03 1365.18C2439.45 1361.14 2445.4 1359.12 2452.91 1359.12C2457.36 1359.12 2461.57 1359.74 2465.53 1360.97C2469.49 1362.21 2472.87 1364.09 2475.67 1366.6L2466.21 1377.92C2463.77 1376.11 2461.49 1374.79 2459.34 1373.96C2457.24 1373.1 2455.03 1372.66 2452.72 1372.66C2450.13 1372.66 2448.23 1373.14 2447.03 1374.09C2445.88 1374.99 2445.3 1376.29 2445.3 1377.98C2445.3 1379.43 2446.04 1380.64 2447.53 1381.63C2449.01 1382.62 2451.63 1383.32 2455.38 1383.73C2462.81 1384.6 2468.43 1386.7 2472.27 1390.04C2476.14 1393.34 2478.08 1398.04 2478.08 1404.15C2478.08 1410.66 2475.61 1415.86 2470.66 1419.73C2465.75 1423.61 2459.51 1425.55 2451.92 1425.55C2446.77 1425.55 2441.9 1424.74 2437.32 1423.13C2432.75 1421.53 2428.89 1419.11 2425.76 1415.9ZM2498.68 1352.38C2495.3 1352.38 2492.54 1351.35 2490.39 1349.28C2488.25 1347.18 2487.17 1344.58 2487.17 1341.49C2487.17 1338.27 2488.25 1335.66 2490.39 1333.64C2492.54 1331.61 2495.3 1330.6 2498.68 1330.6C2502.1 1330.6 2504.86 1331.61 2506.97 1333.64C2509.11 1335.66 2510.18 1338.27 2510.18 1341.49C2510.18 1344.71 2509.11 1347.33 2506.97 1349.35C2504.86 1351.37 2502.1 1352.38 2498.68 1352.38ZM2508.45 1424H2488.91V1360.66H2508.45V1424ZM2587 1418.74C2587 1429.63 2583.79 1438.18 2577.35 1444.41C2570.96 1450.64 2562.01 1453.75 2550.51 1453.75C2543.38 1453.75 2537.4 1452.53 2532.57 1450.1C2527.79 1447.71 2523.83 1444.39 2520.7 1440.14L2534.24 1430.31C2536.22 1433.15 2538.47 1435.36 2540.99 1436.93C2543.54 1438.54 2546.82 1439.34 2550.82 1439.34C2555.93 1439.34 2559.97 1437.81 2562.94 1434.76C2565.95 1431.75 2567.46 1427.44 2567.46 1421.84V1416.89H2567.21C2564.94 1419.77 2562.12 1421.94 2558.74 1423.38C2555.4 1424.82 2551.48 1425.55 2546.99 1425.55C2539.4 1425.55 2533.03 1422.82 2527.87 1417.38C2522.72 1411.9 2520.14 1404.15 2520.14 1394.13C2520.14 1382.95 2523.15 1374.33 2529.17 1368.27C2535.19 1362.17 2542.3 1359.12 2550.51 1359.12C2553.69 1359.12 2556.78 1359.74 2559.79 1360.97C2562.8 1362.21 2565.27 1364.07 2567.21 1366.54H2567.46V1360.66H2587V1418.74ZM2567.71 1393.57V1388.56C2567.71 1384.64 2566.45 1381.3 2563.93 1378.54C2561.42 1375.74 2558.18 1374.33 2554.22 1374.33C2549.77 1374.33 2546.28 1376 2543.77 1379.34C2541.25 1382.68 2540 1387.28 2540 1393.14C2540 1398.54 2541.17 1402.76 2543.52 1405.82C2545.87 1408.83 2549.29 1410.33 2553.79 1410.33C2557.62 1410.33 2560.9 1408.85 2563.62 1405.88C2566.34 1402.91 2567.71 1398.81 2567.71 1393.57ZM2663.27 1424H2643.78V1387.63C2643.78 1383.59 2642.92 1380.37 2641.18 1377.98C2639.45 1375.55 2636.88 1374.33 2633.45 1374.33C2630.03 1374.33 2627.21 1375.61 2624.98 1378.17C2622.75 1380.72 2621.64 1383.96 2621.64 1387.88V1424H2602.09V1360.66H2621.64V1368.7H2621.89C2623.95 1365.82 2626.81 1363.51 2630.48 1361.78C2634.15 1360 2637.84 1359.12 2641.56 1359.12C2648.69 1359.12 2654.09 1361.34 2657.76 1365.8C2661.43 1370.25 2663.27 1376.54 2663.27 1384.66V1424ZM2764.21 1409.34C2761.36 1414.66 2757.49 1418.7 2752.58 1421.46C2747.71 1424.19 2742.13 1425.55 2735.82 1425.55C2725.67 1425.55 2717.74 1422.64 2712 1416.83C2706.31 1410.97 2703.47 1403.32 2703.47 1393.88C2703.47 1383.12 2706.62 1374.64 2712.93 1368.46C2719.24 1362.27 2727.45 1359.18 2737.55 1359.18C2743.78 1359.18 2749.26 1360.64 2754 1363.57C2758.74 1366.46 2761.94 1370.68 2763.59 1376.25L2747.75 1382.13C2746.52 1379.45 2745.01 1377.49 2743.24 1376.25C2741.51 1374.97 2739.36 1374.33 2736.81 1374.33C2732.97 1374.33 2729.76 1375.82 2727.16 1378.79C2724.6 1381.71 2723.32 1386.31 2723.32 1392.58C2723.32 1398.52 2724.54 1402.87 2726.97 1405.63C2729.41 1408.39 2732.5 1409.77 2736.25 1409.77C2739.1 1409.77 2741.49 1409.18 2743.42 1407.98C2745.4 1406.74 2747.22 1404.78 2748.87 1402.1L2764.21 1409.34ZM2806.2 1425.55C2795.94 1425.55 2787.65 1422.58 2781.34 1416.64C2775.07 1410.7 2771.96 1402.68 2772 1392.58C2772.04 1382.52 2775.2 1374.44 2781.46 1368.33C2787.77 1362.19 2796.31 1359.12 2807.07 1359.12C2817.67 1359.12 2825.98 1362.17 2832 1368.27C2838.02 1374.37 2841.03 1382.11 2841.03 1391.47C2841.03 1401.61 2837.77 1409.84 2831.25 1416.14C2824.74 1422.41 2816.39 1425.55 2806.2 1425.55ZM2806.82 1410.33C2811.61 1410.33 2815.17 1408.6 2817.52 1405.14C2819.91 1401.67 2821.11 1397.24 2821.11 1391.84C2821.11 1386.44 2819.91 1382.17 2817.52 1379.03C2815.13 1375.9 2811.52 1374.33 2806.7 1374.33C2802 1374.33 2798.35 1376.02 2795.75 1379.41C2793.15 1382.75 2791.85 1387.05 2791.85 1392.33C2791.85 1397.61 2793.09 1401.94 2795.57 1405.32C2798.08 1408.66 2801.83 1410.33 2806.82 1410.33ZM2913.64 1424H2894.16V1387.63C2894.16 1383.59 2893.29 1380.37 2891.56 1377.98C2889.83 1375.55 2887.25 1374.33 2883.83 1374.33C2880.4 1374.33 2877.58 1375.61 2875.35 1378.17C2873.13 1380.72 2872.01 1383.96 2872.01 1387.88V1424H2852.47V1360.66H2872.01V1368.7H2872.26C2874.32 1365.82 2877.19 1363.51 2880.86 1361.78C2884.53 1360 2888.22 1359.12 2891.93 1359.12C2899.06 1359.12 2904.46 1361.34 2908.13 1365.8C2911.8 1370.25 2913.64 1376.54 2913.64 1384.66V1424ZM2970.36 1419.48C2968.42 1421.26 2966.03 1422.72 2963.18 1423.88C2960.34 1424.99 2957.24 1425.55 2953.9 1425.55C2946.65 1425.55 2941.27 1423.88 2937.76 1420.54C2934.26 1417.2 2932.5 1412.21 2932.5 1405.57V1375.08H2922.24V1360.66H2932.5V1344.52L2951.99 1341.06V1360.66H2967.2V1375.08H2951.99V1405.44C2951.99 1407.38 2952.4 1408.85 2953.22 1409.84C2954.09 1410.83 2955.29 1411.32 2956.81 1411.32C2957.72 1411.32 2958.63 1411.18 2959.53 1410.89C2960.48 1410.56 2961.47 1409.92 2962.5 1408.97L2970.36 1419.48ZM3020.7 1377.74C3019.34 1377.28 3018 1376.95 3016.68 1376.75C3015.36 1376.5 3014.07 1376.37 3012.79 1376.37C3008.91 1376.37 3005.76 1377.94 3003.32 1381.08C3000.89 1384.17 2999.67 1388.39 2999.67 1393.75V1424H2980.13V1360.66H2999.67V1371.92H2999.92C3001.45 1367.8 3003.61 1364.71 3006.42 1362.64C3009.22 1360.58 3012.58 1359.55 3016.5 1359.55C3018.02 1359.55 3019.47 1359.67 3020.83 1359.92C3022.23 1360.13 3023.61 1360.5 3024.97 1361.04L3020.7 1377.74ZM3063.26 1425.55C3052.99 1425.55 3044.7 1422.58 3038.39 1416.64C3032.13 1410.7 3029.01 1402.68 3029.05 1392.58C3029.1 1382.52 3032.25 1374.44 3038.52 1368.33C3044.83 1362.19 3053.36 1359.12 3064.12 1359.12C3074.72 1359.12 3083.03 1362.17 3089.05 1368.27C3095.07 1374.37 3098.08 1382.11 3098.08 1391.47C3098.08 1401.61 3094.82 1409.84 3088.31 1416.14C3081.79 1422.41 3073.44 1425.55 3063.26 1425.55ZM3063.88 1410.33C3068.66 1410.33 3072.23 1408.6 3074.58 1405.14C3076.97 1401.67 3078.16 1397.24 3078.16 1391.84C3078.16 1386.44 3076.97 1382.17 3074.58 1379.03C3072.18 1375.9 3068.58 1374.33 3063.75 1374.33C3059.05 1374.33 3055.4 1376.02 3052.8 1379.41C3050.21 1382.75 3048.91 1387.05 3048.91 1392.33C3048.91 1397.61 3050.15 1401.94 3052.62 1405.32C3055.13 1408.66 3058.89 1410.33 3063.88 1410.33ZM3109.52 1424V1330.23H3129.07V1424H3109.52ZM3140.14 1415.9L3149.35 1404.02C3152.57 1407.03 3155.54 1409.09 3158.26 1410.21C3160.98 1411.32 3163.77 1411.88 3166.61 1411.88C3169.46 1411.88 3171.62 1411.4 3173.11 1410.45C3174.63 1409.46 3175.39 1408.02 3175.39 1406.12C3175.39 1404.68 3174.67 1403.47 3173.23 1402.48C3171.79 1401.49 3169.46 1400.79 3166.24 1400.37C3157.83 1399.14 3151.83 1396.83 3148.24 1393.45C3144.65 1390.06 3142.86 1385.65 3142.86 1380.21C3142.86 1374.23 3145.05 1369.22 3149.42 1365.18C3153.83 1361.14 3159.79 1359.12 3167.29 1359.12C3171.74 1359.12 3175.95 1359.74 3179.91 1360.97C3183.87 1362.21 3187.25 1364.09 3190.05 1366.6L3180.59 1377.92C3178.16 1376.11 3175.87 1374.79 3173.72 1373.96C3171.62 1373.1 3169.41 1372.66 3167.11 1372.66C3164.51 1372.66 3162.61 1373.14 3161.42 1374.09C3160.26 1374.99 3159.68 1376.29 3159.68 1377.98C3159.68 1379.43 3160.43 1380.64 3161.91 1381.63C3163.39 1382.62 3166.01 1383.32 3169.77 1383.73C3177.19 1384.6 3182.82 1386.7 3186.65 1390.04C3190.53 1393.34 3192.46 1398.04 3192.46 1404.15C3192.46 1410.66 3189.99 1415.86 3185.04 1419.73C3180.14 1423.61 3173.89 1425.55 3166.3 1425.55C3161.15 1425.55 3156.28 1424.74 3151.7 1423.13C3147.13 1421.53 3143.27 1419.11 3140.14 1415.9ZM3271.76 1346.5C3270.48 1345.63 3269.24 1345 3268.05 1344.58C3266.89 1344.17 3265.72 1343.96 3264.52 1343.96C3262.38 1343.96 3260.73 1344.64 3259.57 1346.01C3258.46 1347.37 3257.9 1349.45 3257.9 1352.25V1360.66H3272.38V1375.08H3257.9V1424H3238.42V1375.08H3227.78V1360.66H3238.42V1352.62C3238.42 1344.91 3240.52 1339.02 3244.73 1334.93C3248.93 1330.81 3255.06 1328.75 3263.1 1328.75C3265.94 1328.75 3268.64 1329.08 3271.2 1329.74C3273.8 1330.36 3276.44 1331.35 3279.12 1332.71L3271.76 1346.5ZM3311.65 1425.55C3301.38 1425.55 3293.1 1422.58 3286.79 1416.64C3280.52 1410.7 3277.41 1402.68 3277.45 1392.58C3277.49 1382.52 3280.64 1374.44 3286.91 1368.33C3293.22 1362.19 3301.76 1359.12 3312.52 1359.12C3323.12 1359.12 3331.42 1362.17 3337.44 1368.27C3343.46 1374.37 3346.47 1382.11 3346.47 1391.47C3346.47 1401.61 3343.22 1409.84 3336.7 1416.14C3330.19 1422.41 3321.84 1425.55 3311.65 1425.55ZM3312.27 1410.33C3317.05 1410.33 3320.62 1408.6 3322.97 1405.14C3325.36 1401.67 3326.56 1397.24 3326.56 1391.84C3326.56 1386.44 3325.36 1382.17 3322.97 1379.03C3320.58 1375.9 3316.97 1374.33 3312.15 1374.33C3307.45 1374.33 3303.8 1376.02 3301.2 1379.41C3298.6 1382.75 3297.3 1387.05 3297.3 1392.33C3297.3 1397.61 3298.54 1401.94 3301.01 1405.32C3303.53 1408.66 3307.28 1410.33 3312.27 1410.33ZM3398.49 1377.74C3397.13 1377.28 3395.79 1376.95 3394.47 1376.75C3393.15 1376.5 3391.85 1376.37 3390.57 1376.37C3386.7 1376.37 3383.54 1377.94 3381.11 1381.08C3378.68 1384.17 3377.46 1388.39 3377.46 1393.75V1424H3357.92V1360.66H3377.46V1371.92H3377.71C3379.23 1367.8 3381.4 1364.71 3384.2 1362.64C3387.01 1360.58 3390.37 1359.55 3394.29 1359.55C3395.81 1359.55 3397.25 1359.67 3398.61 1359.92C3400.02 1360.13 3401.4 1360.5 3402.76 1361.04L3398.49 1377.74ZM3558.75 1335.31L3535.8 1424H3513.16L3498.44 1368.21C3498.07 1366.85 3497.78 1365.72 3497.58 1364.81C3497.41 1363.86 3497.21 1362.66 3496.96 1361.22H3496.71C3496.46 1362.66 3496.22 1363.88 3495.97 1364.87C3495.76 1365.82 3495.49 1366.93 3495.16 1368.21L3480.07 1424H3456.51L3433.68 1335.31H3455.21L3468.01 1393.38C3468.26 1394.58 3468.47 1395.61 3468.63 1396.48C3468.8 1397.3 3469.02 1398.64 3469.31 1400.5H3469.68C3470.01 1398.64 3470.26 1397.34 3470.42 1396.6C3470.59 1395.86 3470.9 1394.7 3471.35 1393.14L3487.43 1335.31H3508.83L3523.37 1393.88C3523.66 1395.07 3523.88 1396.06 3524.05 1396.85C3524.21 1397.59 3524.46 1398.76 3524.79 1400.37H3525.04C3525.33 1398.68 3525.53 1397.49 3525.66 1396.79C3525.78 1396.04 3526.01 1394.95 3526.34 1393.51L3538.83 1335.31H3558.75ZM3576.87 1352.38C3573.49 1352.38 3570.73 1351.35 3568.58 1349.28C3566.44 1347.18 3565.37 1344.58 3565.37 1341.49C3565.37 1338.27 3566.44 1335.66 3568.58 1333.64C3570.73 1331.61 3573.49 1330.6 3576.87 1330.6C3580.29 1330.6 3583.06 1331.61 3585.16 1333.64C3587.3 1335.66 3588.37 1338.27 3588.37 1341.49C3588.37 1344.71 3587.3 1347.33 3585.16 1349.35C3583.06 1351.37 3580.29 1352.38 3576.87 1352.38ZM3586.64 1424H3567.1V1360.66H3586.64V1424ZM3663.28 1424H3643.79V1387.63C3643.79 1383.59 3642.93 1380.37 3641.2 1377.98C3639.46 1375.55 3636.89 1374.33 3633.46 1374.33C3630.04 1374.33 3627.22 1375.61 3624.99 1378.17C3622.76 1380.72 3621.65 1383.96 3621.65 1387.88V1424H3602.11V1360.66H3621.65V1368.7H3621.9C3623.96 1365.82 3626.83 1363.51 3630.5 1361.78C3634.17 1360 3637.86 1359.12 3641.57 1359.12C3648.7 1359.12 3654.1 1361.34 3657.77 1365.8C3661.44 1370.25 3663.28 1376.54 3663.28 1384.66V1424ZM3720.74 1415.77C3718.47 1419.03 3715.66 1421.48 3712.32 1423.13C3708.98 1424.74 3705.09 1425.55 3700.63 1425.55C3692.59 1425.55 3686.1 1422.76 3681.15 1417.2C3676.24 1411.59 3673.79 1403.77 3673.79 1393.75C3673.79 1383.28 3676.49 1374.89 3681.89 1368.58C3687.34 1362.27 3694.8 1359.12 3704.28 1359.12C3707.83 1359.12 3711.13 1359.92 3714.18 1361.53C3717.27 1363.1 3719.46 1364.89 3720.74 1366.91H3720.98V1330.23H3740.53V1424H3720.98V1415.77H3720.74ZM3693.65 1393.2C3693.65 1398.68 3694.86 1402.91 3697.29 1405.88C3699.73 1408.85 3703.11 1410.33 3707.44 1410.33C3711.56 1410.33 3714.9 1408.76 3717.46 1405.63C3720.06 1402.5 3721.35 1398.35 3721.35 1393.2V1388.44C3721.35 1384.39 3720.12 1381.03 3717.64 1378.35C3715.17 1375.67 3711.93 1374.33 3707.93 1374.33C3703.44 1374.33 3699.93 1376.02 3697.42 1379.41C3694.9 1382.75 3693.65 1387.34 3693.65 1393.2ZM3786.17 1425.55C3775.91 1425.55 3767.62 1422.58 3761.31 1416.64C3755.04 1410.7 3751.93 1402.68 3751.97 1392.58C3752.01 1382.52 3755.17 1374.44 3761.43 1368.33C3767.74 1362.19 3776.28 1359.12 3787.04 1359.12C3797.64 1359.12 3805.95 1362.17 3811.97 1368.27C3817.99 1374.37 3821 1382.11 3821 1391.47C3821 1401.61 3817.74 1409.84 3811.22 1416.14C3804.71 1422.41 3796.36 1425.55 3786.17 1425.55ZM3786.79 1410.33C3791.58 1410.33 3795.14 1408.6 3797.49 1405.14C3799.89 1401.67 3801.08 1397.24 3801.08 1391.84C3801.08 1386.44 3799.89 1382.17 3797.49 1379.03C3795.1 1375.9 3791.49 1374.33 3786.67 1374.33C3781.97 1374.33 3778.32 1376.02 3775.72 1379.41C3773.12 1382.75 3771.83 1387.05 3771.83 1392.33C3771.83 1397.61 3773.06 1401.94 3775.54 1405.32C3778.05 1408.66 3781.8 1410.33 3786.79 1410.33ZM3924.78 1360.66L3906.54 1424H3886L3876.66 1387.88C3876.42 1386.93 3876.19 1386.02 3875.98 1385.16C3875.82 1384.25 3875.67 1383.28 3875.55 1382.25H3875.18C3875.01 1383.28 3874.83 1384.23 3874.62 1385.1C3874.46 1385.92 3874.25 1386.77 3874 1387.63L3863.98 1424H3843.7L3825.82 1360.66H3845.24L3854.33 1399.82C3854.54 1400.64 3854.71 1401.57 3854.83 1402.6C3854.99 1403.59 3855.16 1404.68 3855.32 1405.88H3855.7C3855.9 1404.64 3856.11 1403.51 3856.31 1402.48C3856.52 1401.4 3856.75 1400.43 3856.99 1399.57L3867.76 1360.66H3886.37L3896.02 1399.82C3896.11 1400.23 3896.25 1400.97 3896.46 1402.04C3896.66 1403.07 3896.87 1404.39 3897.07 1406H3897.51C3897.71 1404.48 3897.88 1403.32 3898 1402.54C3898.17 1401.71 3898.35 1400.81 3898.56 1399.82L3907.16 1360.66H3924.78ZM3929.24 1415.9L3938.45 1404.02C3941.67 1407.03 3944.64 1409.09 3947.36 1410.21C3950.08 1411.32 3952.86 1411.88 3955.71 1411.88C3958.55 1411.88 3960.72 1411.4 3962.2 1410.45C3963.73 1409.46 3964.49 1408.02 3964.49 1406.12C3964.49 1404.68 3963.77 1403.47 3962.33 1402.48C3960.88 1401.49 3958.55 1400.79 3955.34 1400.37C3946.93 1399.14 3940.93 1396.83 3937.34 1393.45C3933.75 1390.06 3931.96 1385.65 3931.96 1380.21C3931.96 1374.23 3934.14 1369.22 3938.51 1365.18C3942.93 1361.14 3948.88 1359.12 3956.39 1359.12C3960.84 1359.12 3965.05 1359.74 3969.01 1360.97C3972.97 1362.21 3976.35 1364.09 3979.15 1366.6L3969.69 1377.92C3967.25 1376.11 3964.97 1374.79 3962.82 1373.96C3960.72 1373.1 3958.51 1372.66 3956.2 1372.66C3953.61 1372.66 3951.71 1373.14 3950.51 1374.09C3949.36 1374.99 3948.78 1376.29 3948.78 1377.98C3948.78 1379.43 3949.52 1380.64 3951.01 1381.63C3952.49 1382.62 3955.11 1383.32 3958.86 1383.73C3966.29 1384.6 3971.91 1386.7 3975.75 1390.04C3979.62 1393.34 3981.56 1398.04 3981.56 1404.15C3981.56 1410.66 3979.09 1415.86 3974.14 1419.73C3969.23 1423.61 3962.99 1425.55 3955.4 1425.55C3950.25 1425.55 3945.38 1424.74 3940.8 1423.13C3936.23 1421.53 3932.37 1419.11 3929.24 1415.9Z" fill="black"/>
<path d="M2088.81 977.453H1954.04V1069.34H2077.89V1140.18H1954.04V1288H1868.02V906.075H2088.81V977.453ZM2138.35 1288V884.236H2222.51V1288H2138.35ZM2547.17 1287.73H2463.01V1253.11H2461.94C2453.42 1265.54 2441.44 1275.57 2425.99 1283.21C2410.72 1290.66 2395.36 1294.39 2379.91 1294.39C2348.31 1294.39 2324.34 1284.8 2308 1265.63C2291.84 1246.45 2283.76 1219.37 2283.76 1184.4V1015.01H2367.66V1171.61C2367.66 1189.01 2371.39 1202.95 2378.85 1213.43C2386.3 1223.72 2397.4 1228.87 2412.14 1228.87C2426.88 1228.87 2439.04 1223.37 2448.63 1212.36C2458.21 1201.35 2463.01 1187.41 2463.01 1170.55V1015.01H2547.17V1287.73ZM2857.98 1175.61H2680.07C2681.31 1193.18 2687.35 1207.21 2698.18 1217.69C2709.19 1227.99 2723.57 1233.13 2741.33 1233.13C2752.16 1233.13 2762.01 1230.47 2770.89 1225.14C2779.95 1219.82 2788.03 1211.83 2795.13 1201.17L2856.92 1236.33C2841.29 1256.57 2823.8 1271.4 2804.45 1280.81C2785.1 1290.04 2763.61 1294.66 2740 1294.66C2694.9 1294.66 2659.74 1282.5 2634.53 1258.17C2609.32 1233.67 2596.71 1199.58 2596.71 1155.9C2596.71 1110.62 2609.85 1074.75 2636.13 1048.3C2662.4 1021.84 2694.72 1008.61 2733.07 1008.61C2772.85 1008.61 2803.56 1020.42 2825.22 1044.04C2847.06 1067.65 2857.98 1103.16 2857.98 1150.57V1175.61ZM2779.95 1122.34C2779.95 1103.7 2775.95 1089.76 2767.96 1080.52C2760.15 1071.11 2749.59 1066.41 2736.27 1066.41C2720.29 1066.41 2707.33 1071.74 2697.38 1082.39C2687.62 1093.04 2681.67 1106.36 2679.54 1122.34H2779.95ZM3173.06 1288H3089.16V1131.39C3089.16 1113.99 3085.43 1100.14 3077.98 1089.85C3070.52 1079.37 3059.42 1074.13 3044.68 1074.13C3029.95 1074.13 3017.78 1079.64 3008.2 1090.65C2998.61 1101.65 2993.81 1115.59 2993.81 1132.46V1288H2909.65V1015.27H2993.81V1049.9H2994.88C3003.76 1037.47 3016.1 1027.52 3031.9 1020.07C3047.7 1012.43 3063.59 1008.61 3079.57 1008.61C3110.29 1008.61 3133.55 1018.2 3149.35 1037.38C3165.16 1056.55 3173.06 1083.63 3173.06 1118.61V1288ZM3479.88 1224.88C3467.62 1247.78 3450.93 1265.18 3429.81 1277.08C3408.85 1288.8 3384.79 1294.66 3357.63 1294.66C3313.95 1294.66 3279.77 1282.14 3255.09 1257.11C3230.59 1231.89 3218.34 1198.96 3218.34 1158.29C3218.34 1111.95 3231.92 1075.46 3259.08 1048.83C3286.25 1022.2 3321.58 1008.88 3365.09 1008.88C3391.9 1008.88 3415.51 1015.18 3435.93 1027.79C3456.35 1040.22 3470.11 1058.42 3477.21 1082.39L3409.03 1107.69C3403.7 1096.15 3397.22 1087.72 3389.59 1082.39C3382.13 1076.88 3372.9 1074.13 3361.89 1074.13C3345.38 1074.13 3331.53 1080.52 3320.34 1093.31C3309.33 1105.92 3303.83 1125.71 3303.83 1152.7C3303.83 1178.27 3309.07 1197 3319.54 1208.9C3330.02 1220.79 3343.34 1226.74 3359.49 1226.74C3371.74 1226.74 3382.04 1224.17 3390.39 1219.02C3398.91 1213.69 3406.72 1205.26 3413.83 1193.72L3479.88 1224.88ZM3774.71 1175.61H3596.8C3598.04 1193.18 3604.08 1207.21 3614.91 1217.69C3625.92 1227.99 3640.3 1233.13 3658.05 1233.13C3668.89 1233.13 3678.74 1230.47 3687.62 1225.14C3696.67 1219.82 3704.75 1211.83 3711.85 1201.17L3773.64 1236.33C3758.02 1256.57 3740.53 1271.4 3721.18 1280.81C3701.82 1290.04 3680.34 1294.66 3656.72 1294.66C3611.62 1294.66 3576.47 1282.5 3551.25 1258.17C3526.04 1233.67 3513.43 1199.58 3513.43 1155.9C3513.43 1110.62 3526.57 1074.75 3552.85 1048.3C3579.13 1021.84 3611.45 1008.61 3649.8 1008.61C3689.57 1008.61 3720.29 1020.42 3741.95 1044.04C3763.79 1067.65 3774.71 1103.16 3774.71 1150.57V1175.61ZM3696.67 1122.34C3696.67 1103.7 3692.68 1089.76 3684.69 1080.52C3676.88 1071.11 3666.31 1066.41 3652.99 1066.41C3637.01 1066.41 3624.05 1071.74 3614.11 1082.39C3604.34 1093.04 3598.4 1106.36 3596.26 1122.34H3696.67Z" fill="black"/>
<path d="M3844.89 1292.86C3834.79 1292.86 3826.37 1289.36 3819.64 1282.37C3812.91 1275.38 3809.54 1266.83 3809.54 1256.73C3809.54 1246.12 3812.97 1237.44 3819.84 1230.71C3826.83 1223.98 3835.5 1220.61 3845.86 1220.61C3856.35 1220.61 3864.89 1224.04 3871.49 1230.9C3878.23 1237.64 3881.59 1246.25 3881.59 1256.73C3881.59 1267.35 3878.16 1276.02 3871.3 1282.76C3864.57 1289.49 3855.76 1292.86 3844.89 1292.86Z" fill="#6B6B6B"/>
<path d="M4293.5 1009.51L4221.45 1288H4150.37L4104.15 1112.83C4102.98 1108.56 4102.08 1105 4101.43 1102.15C4100.91 1099.17 4100.27 1095.42 4099.49 1090.88H4098.71C4097.93 1095.42 4097.16 1099.23 4096.38 1102.34C4095.73 1105.32 4094.89 1108.82 4093.86 1112.83L4046.47 1288H3972.48L3900.82 1009.51H3968.4L4008.6 1191.87C4009.38 1195.62 4010.03 1198.86 4010.54 1201.58C4011.06 1204.17 4011.77 1208.38 4012.68 1214.2H4013.84C4014.88 1208.38 4015.66 1204.3 4016.18 1201.97C4016.69 1199.64 4017.66 1196.01 4019.09 1191.09L4069.58 1009.51H4136.78L4182.41 1193.42C4183.32 1197.18 4184.03 1200.29 4184.55 1202.74C4185.07 1205.08 4185.84 1208.77 4186.88 1213.81H4187.66C4188.56 1208.51 4189.21 1204.75 4189.6 1202.55C4189.99 1200.22 4190.7 1196.79 4191.73 1192.26L4230.96 1009.51H4293.5ZM4389.24 1197.31V1288H4326.51V1009.51H4423.42C4458.12 1009.51 4484.53 1017.09 4502.65 1032.23C4520.91 1047.38 4530.04 1069.78 4530.04 1099.43C4530.04 1130.24 4519.81 1154.26 4499.35 1171.48C4479.03 1188.7 4451.71 1197.31 4417.4 1197.31H4389.24ZM4389.24 1057.68V1149.15H4415.46C4430.99 1149.15 4442.97 1145.07 4451.38 1136.91C4459.8 1128.75 4464.01 1117.04 4464.01 1101.76C4464.01 1087.65 4459.86 1076.77 4451.58 1069.13C4443.42 1061.49 4431.7 1057.68 4416.43 1057.68H4389.24ZM4727.93 1061.56H4629.66V1128.56H4719.97V1180.22H4629.66V1288H4566.93V1009.51H4727.93V1061.56Z" fill="#4D9BFF"/>
<g filter="url(#filter0_dd_144_1153)">
<path d="M317.698 951.941L143.372 1145.55C107.268 1185.65 110.505 1247.42 150.603 1283.52L650.758 1733.87C690.855 1769.97 752.629 1766.73 788.733 1726.63L963.059 1533.03C999.163 1492.93 995.925 1431.16 955.828 1395.05L455.673 944.71C415.575 908.606 353.802 911.843 317.698 951.941Z" fill="url(#paint0_linear_144_1153)" shape-rendering="crispEdges"/>
<path d="M317.698 951.941L143.372 1145.55C107.268 1185.65 110.505 1247.42 150.603 1283.52L650.758 1733.87C690.855 1769.97 752.629 1766.73 788.733 1726.63L963.059 1533.03C999.163 1492.93 995.925 1431.16 955.828 1395.05L455.673 944.71C415.575 908.606 353.802 911.843 317.698 951.941Z" stroke="white" stroke-opacity="0.9" stroke-width="12.9229" stroke-linejoin="round" shape-rendering="crispEdges"/>
</g>
<g filter="url(#filter1_dd_144_1153)">
<path d="M533.117 818.514L312.178 956.572C266.42 985.164 252.505 1045.44 281.098 1091.2L637.747 1661.95C666.339 1707.71 726.612 1721.63 772.37 1693.03L993.308 1554.98C1039.07 1526.38 1052.98 1466.11 1024.39 1420.35L667.74 849.595C639.147 803.837 578.874 789.922 533.117 818.514Z" fill="url(#paint1_linear_144_1153)" shape-rendering="crispEdges"/>
<path d="M533.117 818.514L312.178 956.572C266.42 985.164 252.505 1045.44 281.098 1091.2L637.747 1661.95C666.339 1707.71 726.612 1721.63 772.37 1693.03L993.308 1554.98C1039.07 1526.38 1052.98 1466.11 1024.39 1420.35L667.74 849.595C639.147 803.837 578.874 789.922 533.117 818.514Z" stroke="white" stroke-opacity="0.9" stroke-width="12.9229" stroke-linejoin="round" shape-rendering="crispEdges"/>
</g>
<g filter="url(#filter2_dd_144_1153)">
<path d="M776.968 749.634L526.535 821.445C474.668 836.317 444.679 890.42 459.551 942.286L645.062 1589.24C659.935 1641.11 714.037 1671.09 765.904 1656.22L1016.34 1584.41C1068.2 1569.54 1098.19 1515.44 1083.32 1463.57L897.81 816.618C882.937 764.751 828.835 734.762 776.968 749.634Z" fill="url(#paint2_linear_144_1153)" shape-rendering="crispEdges"/>
<path d="M776.968 749.634L526.535 821.445C474.668 836.317 444.679 890.42 459.551 942.286L645.062 1589.24C659.935 1641.11 714.037 1671.09 765.904 1656.22L1016.34 1584.41C1068.2 1569.54 1098.19 1515.44 1083.32 1463.57L897.81 816.618C882.937 764.751 828.835 734.762 776.968 749.634Z" stroke="white" stroke-opacity="0.9" stroke-width="12.9229" stroke-linejoin="round" shape-rendering="crispEdges"/>
</g>
<g filter="url(#filter3_dd_144_1153)">
<path d="M1030.36 750.637H769.834C715.877 750.637 672.137 794.377 672.137 848.334V1521.36C672.137 1575.32 715.877 1619.06 769.834 1619.06H1030.36C1084.32 1619.06 1128.06 1575.32 1128.06 1521.36V848.334C1128.06 794.377 1084.32 750.637 1030.36 750.637Z" fill="url(#paint3_linear_144_1153)" shape-rendering="crispEdges"/>
<path d="M1030.36 750.637H769.834C715.877 750.637 672.137 794.377 672.137 848.334V1521.36C672.137 1575.32 715.877 1619.06 769.834 1619.06H1030.36C1084.32 1619.06 1128.06 1575.32 1128.06 1521.36V848.334C1128.06 794.377 1084.32 750.637 1030.36 750.637Z" stroke="white" stroke-opacity="0.9" stroke-width="12.9229" stroke-linejoin="round" shape-rendering="crispEdges"/>
</g>
<g filter="url(#filter4_dd_144_1153)">
<path d="M1273.66 821.445L1023.22 749.634C971.358 734.762 917.256 764.751 902.383 816.618L716.873 1463.57C702 1515.44 731.99 1569.54 783.856 1584.41L1034.29 1656.22C1086.16 1671.09 1140.26 1641.11 1155.13 1589.24L1340.64 942.286C1355.51 890.42 1325.52 836.317 1273.66 821.445Z" fill="url(#paint4_linear_144_1153)" shape-rendering="crispEdges"/>
<path d="M1273.66 821.445L1023.22 749.634C971.358 734.762 917.256 764.751 902.383 816.618L716.873 1463.57C702 1515.44 731.99 1569.54 783.856 1584.41L1034.29 1656.22C1086.16 1671.09 1140.26 1641.11 1155.13 1589.24L1340.64 942.286C1355.51 890.42 1325.52 836.317 1273.66 821.445Z" stroke="white" stroke-opacity="0.9" stroke-width="12.9229" stroke-linejoin="round" shape-rendering="crispEdges"/>
</g>
<g filter="url(#filter5_dd_144_1153)">
<path d="M1488.02 956.572L1267.08 818.514C1221.32 789.922 1161.05 803.837 1132.45 849.595L775.805 1420.35C747.212 1466.11 761.127 1526.38 806.885 1554.98L1027.82 1693.03C1073.58 1721.63 1133.85 1707.71 1162.45 1661.95L1519.1 1091.2C1547.69 1045.44 1533.77 985.165 1488.02 956.572Z" fill="url(#paint5_linear_144_1153)" shape-rendering="crispEdges"/>
<path d="M1488.02 956.572L1267.08 818.514C1221.32 789.922 1161.05 803.837 1132.45 849.595L775.805 1420.35C747.212 1466.11 761.127 1526.38 806.885 1554.98L1027.82 1693.03C1073.58 1721.63 1133.85 1707.71 1162.45 1661.95L1519.1 1091.2C1547.69 1045.44 1533.77 985.165 1488.02 956.572Z" stroke="white" stroke-opacity="0.9" stroke-width="12.9229" stroke-linejoin="round" shape-rendering="crispEdges"/>
</g>
<g filter="url(#filter6_dd_144_1153)">
<path d="M1656.82 1145.55L1482.5 951.941C1446.39 911.843 1384.62 908.606 1344.52 944.71L844.366 1395.05C804.269 1431.16 801.031 1492.93 837.135 1533.03L1011.46 1726.63C1047.57 1766.73 1109.34 1769.97 1149.44 1733.87L1649.59 1283.52C1689.69 1247.42 1692.93 1185.65 1656.82 1145.55Z" fill="url(#paint6_linear_144_1153)" shape-rendering="crispEdges"/>
<path d="M1656.82 1145.55L1482.5 951.941C1446.39 911.843 1384.62 908.606 1344.52 944.71L844.366 1395.05C804.269 1431.16 801.031 1492.93 837.135 1533.03L1011.46 1726.63C1047.57 1766.73 1109.34 1769.97 1149.44 1733.87L1649.59 1283.52C1689.69 1247.42 1692.93 1185.65 1656.82 1145.55Z" stroke="white" stroke-opacity="0.9" stroke-width="12.9229" stroke-linejoin="round" shape-rendering="crispEdges"/>
</g>
<defs>
<filter id="filter0_dd_144_1153" x="14.8938" y="864.693" width="1076.64" height="1110.73" filterUnits="userSpaceOnUse" color-interpolation-filters="sRGB">
<feFlood flood-opacity="0" result="BackgroundImageFix"/>
<feColorMatrix in="SourceAlpha" type="matrix" values="0 0 0 0 0 0 0 0 0 0 0 0 0 0 0 0 0 0 127 0" result="hardAlpha"/>
<feMorphology radius="48.4609" operator="dilate" in="SourceAlpha" result="effect1_dropShadow_144_1153"/>
<feOffset dy="113.075"/>
<feGaussianBlur stdDeviation="24.2304"/>
<feComposite in2="hardAlpha" operator="out"/>
<feColorMatrix type="matrix" values="0 0 0 0 0 0 0 0 0 0 0 0 0 0 0 0 0 0 0.15 0"/>
<feBlend mode="normal" in2="BackgroundImageFix" result="effect1_dropShadow_144_1153"/>
<feColorMatrix in="SourceAlpha" type="matrix" values="0 0 0 0 0 0 0 0 0 0 0 0 0 0 0 0 0 0 127 0" result="hardAlpha"/>
<feMorphology radius="32.3073" operator="dilate" in="SourceAlpha" result="effect2_dropShadow_144_1153"/>
<feOffset dx="-6.46145" dy="32.3073"/>
<feGaussianBlur stdDeviation="24.2304"/>
<feComposite in2="hardAlpha" operator="out"/>
<feColorMatrix type="matrix" values="0 0 0 0 0 0 0 0 0 0 0 0 0 0 0 0 0 0 0.1 0"/>
<feBlend mode="normal" in2="effect1_dropShadow_144_1153" result="effect2_dropShadow_144_1153"/>
<feBlend mode="normal" in="SourceGraphic" in2="effect2_dropShadow_144_1153" result="shape"/>
</filter>
<filter id="filter1_dd_144_1153" x="162.856" y="748.733" width="979.776" height="1175.62" filterUnits="userSpaceOnUse" color-interpolation-filters="sRGB">
<feFlood flood-opacity="0" result="BackgroundImageFix"/>
<feColorMatrix in="SourceAlpha" type="matrix" values="0 0 0 0 0 0 0 0 0 0 0 0 0 0 0 0 0 0 127 0" result="hardAlpha"/>
<feMorphology radius="48.4609" operator="dilate" in="SourceAlpha" result="effect1_dropShadow_144_1153"/>
<feOffset dy="113.075"/>
<feGaussianBlur stdDeviation="24.2304"/>
<feComposite in2="hardAlpha" operator="out"/>
<feColorMatrix type="matrix" values="0 0 0 0 0 0 0 0 0 0 0 0 0 0 0 0 0 0 0.15 0"/>
<feBlend mode="normal" in2="BackgroundImageFix" result="effect1_dropShadow_144_1153"/>
<feColorMatrix in="SourceAlpha" type="matrix" values="0 0 0 0 0 0 0 0 0 0 0 0 0 0 0 0 0 0 127 0" result="hardAlpha"/>
<feMorphology radius="32.3073" operator="dilate" in="SourceAlpha" result="effect2_dropShadow_144_1153"/>
<feOffset dx="-6.46145" dy="32.3073"/>
<feGaussianBlur stdDeviation="24.2304"/>
<feComposite in2="hardAlpha" operator="out"/>
<feColorMatrix type="matrix" values="0 0 0 0 0 0 0 0 0 0 0 0 0 0 0 0 0 0 0.1 0"/>
<feBlend mode="normal" in2="effect1_dropShadow_144_1153" result="effect2_dropShadow_144_1153"/>
<feBlend mode="normal" in="SourceGraphic" in2="effect2_dropShadow_144_1153" result="shape"/>
</filter>
<filter id="filter2_dd_144_1153" x="352.357" y="690.9" width="838.158" height="1185.59" filterUnits="userSpaceOnUse" color-interpolation-filters="sRGB">
<feFlood flood-opacity="0" result="BackgroundImageFix"/>
<feColorMatrix in="SourceAlpha" type="matrix" values="0 0 0 0 0 0 0 0 0 0 0 0 0 0 0 0 0 0 127 0" result="hardAlpha"/>
<feMorphology radius="48.4609" operator="dilate" in="SourceAlpha" result="effect1_dropShadow_144_1153"/>
<feOffset dy="113.075"/>
<feGaussianBlur stdDeviation="24.2304"/>
<feComposite in2="hardAlpha" operator="out"/>
<feColorMatrix type="matrix" values="0 0 0 0 0 0 0 0 0 0 0 0 0 0 0 0 0 0 0.15 0"/>
<feBlend mode="normal" in2="BackgroundImageFix" result="effect1_dropShadow_144_1153"/>
<feColorMatrix in="SourceAlpha" type="matrix" values="0 0 0 0 0 0 0 0 0 0 0 0 0 0 0 0 0 0 127 0" result="hardAlpha"/>
<feMorphology radius="32.3073" operator="dilate" in="SourceAlpha" result="effect2_dropShadow_144_1153"/>
<feOffset dx="-6.46145" dy="32.3073"/>
<feGaussianBlur stdDeviation="24.2304"/>
<feComposite in2="hardAlpha" operator="out"/>
<feColorMatrix type="matrix" values="0 0 0 0 0 0 0 0 0 0 0 0 0 0 0 0 0 0 0.1 0"/>
<feBlend mode="normal" in2="effect1_dropShadow_144_1153" result="effect2_dropShadow_144_1153"/>
<feBlend mode="normal" in="SourceGraphic" in2="effect2_dropShadow_144_1153" result="shape"/>
</filter>
<filter id="filter3_dd_144_1153" x="568.754" y="695.714" width="662.686" height="1139.8" filterUnits="userSpaceOnUse" color-interpolation-filters="sRGB">
<feFlood flood-opacity="0" result="BackgroundImageFix"/>
<feColorMatrix in="SourceAlpha" type="matrix" values="0 0 0 0 0 0 0 0 0 0 0 0 0 0 0 0 0 0 127 0" result="hardAlpha"/>
<feMorphology radius="48.4609" operator="dilate" in="SourceAlpha" result="effect1_dropShadow_144_1153"/>
<feOffset dy="113.075"/>
<feGaussianBlur stdDeviation="24.2304"/>
<feComposite in2="hardAlpha" operator="out"/>
<feColorMatrix type="matrix" values="0 0 0 0 0 0 0 0 0 0 0 0 0 0 0 0 0 0 0.15 0"/>
<feBlend mode="normal" in2="BackgroundImageFix" result="effect1_dropShadow_144_1153"/>
<feColorMatrix in="SourceAlpha" type="matrix" values="0 0 0 0 0 0 0 0 0 0 0 0 0 0 0 0 0 0 127 0" result="hardAlpha"/>
<feMorphology radius="32.3073" operator="dilate" in="SourceAlpha" result="effect2_dropShadow_144_1153"/>
<feOffset dx="-6.46145" dy="32.3073"/>
<feGaussianBlur stdDeviation="24.2304"/>
<feComposite in2="hardAlpha" operator="out"/>
<feColorMatrix type="matrix" values="0 0 0 0 0 0 0 0 0 0 0 0 0 0 0 0 0 0 0.1 0"/>
<feBlend mode="normal" in2="effect1_dropShadow_144_1153" result="effect2_dropShadow_144_1153"/>
<feBlend mode="normal" in="SourceGraphic" in2="effect2_dropShadow_144_1153" result="shape"/>
</filter>
<filter id="filter4_dd_144_1153" x="609.678" y="690.9" width="838.158" height="1185.59" filterUnits="userSpaceOnUse" color-interpolation-filters="sRGB">
<feFlood flood-opacity="0" result="BackgroundImageFix"/>
<feColorMatrix in="SourceAlpha" type="matrix" values="0 0 0 0 0 0 0 0 0 0 0 0 0 0 0 0 0 0 127 0" result="hardAlpha"/>
<feMorphology radius="48.4609" operator="dilate" in="SourceAlpha" result="effect1_dropShadow_144_1153"/>
<feOffset dy="113.075"/>
<feGaussianBlur stdDeviation="24.2304"/>
<feComposite in2="hardAlpha" operator="out"/>
<feColorMatrix type="matrix" values="0 0 0 0 0 0 0 0 0 0 0 0 0 0 0 0 0 0 0.15 0"/>
<feBlend mode="normal" in2="BackgroundImageFix" result="effect1_dropShadow_144_1153"/>
<feColorMatrix in="SourceAlpha" type="matrix" values="0 0 0 0 0 0 0 0 0 0 0 0 0 0 0 0 0 0 127 0" result="hardAlpha"/>
<feMorphology radius="32.3073" operator="dilate" in="SourceAlpha" result="effect2_dropShadow_144_1153"/>
<feOffset dx="-6.46145" dy="32.3073"/>
<feGaussianBlur stdDeviation="24.2304"/>
<feComposite in2="hardAlpha" operator="out"/>
<feColorMatrix type="matrix" values="0 0 0 0 0 0 0 0 0 0 0 0 0 0 0 0 0 0 0.1 0"/>
<feBlend mode="normal" in2="effect1_dropShadow_144_1153" result="effect2_dropShadow_144_1153"/>
<feBlend mode="normal" in="SourceGraphic" in2="effect2_dropShadow_144_1153" result="shape"/>
</filter>
<filter id="filter5_dd_144_1153" x="657.562" y="748.733" width="979.776" height="1175.62" filterUnits="userSpaceOnUse" color-interpolation-filters="sRGB">
<feFlood flood-opacity="0" result="BackgroundImageFix"/>
<feColorMatrix in="SourceAlpha" type="matrix" values="0 0 0 0 0 0 0 0 0 0 0 0 0 0 0 0 0 0 127 0" result="hardAlpha"/>
<feMorphology radius="48.4609" operator="dilate" in="SourceAlpha" result="effect1_dropShadow_144_1153"/>
<feOffset dy="113.075"/>
<feGaussianBlur stdDeviation="24.2304"/>
<feComposite in2="hardAlpha" operator="out"/>
<feColorMatrix type="matrix" values="0 0 0 0 0 0 0 0 0 0 0 0 0 0 0 0 0 0 0.15 0"/>
<feBlend mode="normal" in2="BackgroundImageFix" result="effect1_dropShadow_144_1153"/>
<feColorMatrix in="SourceAlpha" type="matrix" values="0 0 0 0 0 0 0 0 0 0 0 0 0 0 0 0 0 0 127 0" result="hardAlpha"/>
<feMorphology radius="32.3073" operator="dilate" in="SourceAlpha" result="effect2_dropShadow_144_1153"/>
<feOffset dx="-6.46145" dy="32.3073"/>
<feGaussianBlur stdDeviation="24.2304"/>
<feComposite in2="hardAlpha" operator="out"/>
<feColorMatrix type="matrix" values="0 0 0 0 0 0 0 0 0 0 0 0 0 0 0 0 0 0 0.1 0"/>
<feBlend mode="normal" in2="effect1_dropShadow_144_1153" result="effect2_dropShadow_144_1153"/>
<feBlend mode="normal" in="SourceGraphic" in2="effect2_dropShadow_144_1153" result="shape"/>
</filter>
<filter id="filter6_dd_144_1153" x="708.657" y="864.693" width="1076.64" height="1110.73" filterUnits="userSpaceOnUse" color-interpolation-filters="sRGB">
<feFlood flood-opacity="0" result="BackgroundImageFix"/>
<feColorMatrix in="SourceAlpha" type="matrix" values="0 0 0 0 0 0 0 0 0 0 0 0 0 0 0 0 0 0 127 0" result="hardAlpha"/>
<feMorphology radius="48.4609" operator="dilate" in="SourceAlpha" result="effect1_dropShadow_144_1153"/>
<feOffset dy="113.075"/>
<feGaussianBlur stdDeviation="24.2304"/>
<feComposite in2="hardAlpha" operator="out"/>
<feColorMatrix type="matrix" values="0 0 0 0 0 0 0 0 0 0 0 0 0 0 0 0 0 0 0.15 0"/>
<feBlend mode="normal" in2="BackgroundImageFix" result="effect1_dropShadow_144_1153"/>
<feColorMatrix in="SourceAlpha" type="matrix" values="0 0 0 0 0 0 0 0 0 0 0 0 0 0 0 0 0 0 127 0" result="hardAlpha"/>
<feMorphology radius="32.3073" operator="dilate" in="SourceAlpha" result="effect2_dropShadow_144_1153"/>
<feOffset dx="-6.46145" dy="32.3073"/>
<feGaussianBlur stdDeviation="24.2304"/>
<feComposite in2="hardAlpha" operator="out"/>
<feColorMatrix type="matrix" values="0 0 0 0 0 0 0 0 0 0 0 0 0 0 0 0 0 0 0.1 0"/>
<feBlend mode="normal" in2="effect1_dropShadow_144_1153" result="effect2_dropShadow_144_1153"/>
<feBlend mode="normal" in="SourceGraphic" in2="effect2_dropShadow_144_1153" result="shape"/>
</filter>
<linearGradient id="paint0_linear_144_1153" x1="77.9997" y1="1218.15" x2="723.361" y2="1799.24" gradientUnits="userSpaceOnUse">
<stop stop-color="#FFC0C0"/>
<stop offset="0.18" stop-color="#FF7A7A"/>
<stop offset="1" stop-color="#EF2730"/>
</linearGradient>
<linearGradient id="paint1_linear_144_1153" x1="229.326" y1="1008.34" x2="689.518" y2="1744.8" gradientUnits="userSpaceOnUse">
<stop stop-color="#FFE0B0"/>
<stop offset="0.18" stop-color="#FFB454"/>
<stop offset="1" stop-color="#F77F00"/>
</linearGradient>
<linearGradient id="paint2_linear_144_1153" x1="432.622" y1="848.374" x2="671.991" y2="1683.15" gradientUnits="userSpaceOnUse">
<stop stop-color="#FFF3B0"/>
<stop offset="0.18" stop-color="#FFE14D"/>
<stop offset="1" stop-color="#F5B800"/>
</linearGradient>
<linearGradient id="paint3_linear_144_1153" x1="672.137" y1="750.637" x2="672.137" y2="1619.06" gradientUnits="userSpaceOnUse">
<stop stop-color="#C2F7D4"/>
<stop offset="0.18" stop-color="#5CE08A"/>
<stop offset="1" stop-color="#1BB257"/>
</linearGradient>
<linearGradient id="paint4_linear_144_1153" x1="929.312" y1="722.705" x2="689.944" y2="1557.48" gradientUnits="userSpaceOnUse">
<stop stop-color="#C4F2FB"/>
<stop offset="0.18" stop-color="#4FD8F0"/>
<stop offset="1" stop-color="#12AECE"/>
</linearGradient>
<linearGradient id="paint5_linear_144_1153" x1="1184.22" y1="766.743" x2="724.033" y2="1503.2" gradientUnits="userSpaceOnUse">
<stop stop-color="#BFD6FF"/>
<stop offset="0.18" stop-color="#5B9BFF"/>
<stop offset="1" stop-color="#1F5FE0"/>
</linearGradient>
<linearGradient id="paint6_linear_144_1153" x1="1417.12" y1="879.338" x2="771.763" y2="1460.42" gradientUnits="userSpaceOnUse">
<stop stop-color="#C9A9FF"/>
<stop offset="0.18" stop-color="#9D6BFF"/>
<stop offset="1" stop-color="#B026C8"/>
</linearGradient>
</defs>
</svg>
