<svg width="1024" height="1024" viewBox="0 0 1024 1024" fill="none" xmlns="http://www.w3.org/2000/svg">
<g filter="url(#filter0_d_144_343)">
<path d="M770.333 12H253.667C120.198 12 12 120.198 12 253.667V770.333C12 903.802 120.198 1012 253.667 1012H770.333C903.802 1012 1012 903.802 1012 770.333V253.667C1012 120.198 903.802 12 770.333 12Z" fill="url(#paint0_linear_144_343)"/>
<path d="M253.667 14.5H770.333C902.421 14.5 1009.5 121.579 1009.5 253.667V770.333C1009.5 902.421 902.421 1009.5 770.333 1009.5H253.667C121.579 1009.5 14.5 902.421 14.5 770.333V253.667C14.5 121.579 121.579 14.5 253.667 14.5Z" stroke="#C3C3C3" stroke-width="5" stroke-linejoin="round"/>
</g>
<g filter="url(#filter1_d_144_343)">
<path d="M771.333 12H254.667C121.198 12 13 120.198 13 253.667V770.333C13 903.802 121.198 1012 254.667 1012H771.333C904.802 1012 1013 903.802 1013 770.333V253.667C1013 120.198 904.802 12 771.333 12Z" fill="url(#paint1_linear_144_343)"/>
</g>
<g filter="url(#filter2_dd_144_343)">
<path d="M166.774 328.881L63.4398 443.645C42.0386 467.413 43.9576 504.031 67.726 525.432L364.2 792.378C387.969 813.78 424.586 811.861 445.987 788.092L549.321 673.328C570.723 649.56 568.803 612.942 545.035 591.541L248.561 324.594C224.792 303.193 188.175 305.112 166.774 328.881Z" fill="url(#paint2_linear_144_343)"/>
<path d="M166.774 328.881L63.4398 443.645C42.0386 467.413 43.9576 504.031 67.726 525.432L364.2 792.378C387.969 813.78 424.586 811.861 445.987 788.092L549.321 673.328C570.723 649.56 568.803 612.942 545.035 591.541L248.561 324.594C224.792 303.193 188.175 305.112 166.774 328.881Z" stroke="white" stroke-opacity="0.9" stroke-width="7.66024" stroke-linejoin="round"/>
</g>
<g filter="url(#filter3_dd_144_343)">
<path d="M294.467 249.79L163.502 331.626C136.379 348.575 128.13 384.302 145.079 411.426L356.488 749.751C373.437 776.875 409.164 785.123 436.288 768.174L567.252 686.339C594.376 669.39 602.624 633.662 585.676 606.538L374.267 268.214C357.318 241.09 321.59 232.842 294.467 249.79Z" fill="url(#paint3_linear_144_343)"/>
<path d="M294.467 249.79L163.502 331.626C136.379 348.575 128.13 384.302 145.079 411.426L356.488 749.751C373.437 776.875 409.164 785.123 436.288 768.174L567.252 686.339C594.376 669.39 602.624 633.662 585.676 606.538L374.267 268.214C357.318 241.09 321.59 232.842 294.467 249.79Z" stroke="white" stroke-opacity="0.9" stroke-width="7.66024" stroke-linejoin="round"/>
</g>
<g filter="url(#filter4_dd_144_343)">
<path d="M439.013 208.96L290.565 251.527C259.821 260.343 242.044 292.413 250.86 323.158L360.824 706.649C369.64 737.393 401.71 755.17 432.455 746.354L580.903 703.787C611.647 694.972 629.424 662.901 620.608 632.157L510.644 248.666C501.828 217.921 469.758 200.145 439.013 208.96Z" fill="url(#paint4_linear_144_343)"/>
<path d="M439.013 208.96L290.565 251.527C259.821 260.343 242.044 292.413 250.86 323.158L360.824 706.649C369.64 737.393 401.71 755.17 432.455 746.354L580.903 703.787C611.647 694.972 629.424 662.901 620.608 632.157L510.644 248.666C501.828 217.921 469.758 200.145 439.013 208.96Z" stroke="white" stroke-opacity="0.9" stroke-width="7.66024" stroke-linejoin="round"/>
</g>
<g filter="url(#filter5_dd_144_343)">
<path d="M589.215 209.555H434.785C402.801 209.555 376.873 235.482 376.873 267.466V666.411C376.873 698.395 402.801 724.323 434.785 724.323H589.215C621.199 724.323 647.126 698.395 647.126 666.411V267.466C647.126 235.482 621.199 209.555 589.215 209.555Z" fill="url(#paint5_linear_144_343)"/>
<path d="M589.215 209.555H434.785C402.801 209.555 376.873 235.482 376.873 267.466V666.411C376.873 698.395 402.801 724.323 434.785 724.323H589.215C621.199 724.323 647.126 698.395 647.126 666.411V267.466C647.126 235.482 621.199 209.555 589.215 209.555Z" stroke="white" stroke-opacity="0.9" stroke-width="7.66024" stroke-linejoin="round"/>
</g>
<g filter="url(#filter6_dd_144_343)">
<path d="M733.434 251.527L584.986 208.96C554.241 200.145 522.171 217.921 513.355 248.666L403.391 632.157C394.575 662.902 412.352 694.972 443.096 703.788L591.544 746.354C622.289 755.17 654.359 737.393 663.175 706.649L773.139 323.158C781.955 292.413 764.178 260.343 733.434 251.527Z" fill="url(#paint6_linear_144_343)"/>
<path d="M733.434 251.527L584.986 208.96C554.241 200.145 522.171 217.921 513.355 248.666L403.391 632.157C394.575 662.902 412.352 694.972 443.096 703.788L591.544 746.354C622.289 755.17 654.359 737.393 663.175 706.649L773.139 323.158C781.955 292.413 764.178 260.343 733.434 251.527Z" stroke="white" stroke-opacity="0.9" stroke-width="7.66024" stroke-linejoin="round"/>
</g>
<g filter="url(#filter7_dd_144_343)">
<path d="M860.497 331.626L729.533 249.79C702.409 232.841 666.681 241.09 649.733 268.213L438.324 606.538C421.375 633.662 429.623 669.39 456.747 686.338L587.711 768.174C614.835 785.123 650.563 776.874 667.512 749.751L878.92 411.426C895.869 384.302 887.621 348.575 860.497 331.626Z" fill="url(#paint7_linear_144_343)"/>
<path d="M860.497 331.626L729.533 249.79C702.409 232.841 666.681 241.09 649.733 268.213L438.324 606.538C421.375 633.662 429.623 669.39 456.747 686.338L587.711 768.174C614.835 785.123 650.563 776.874 667.512 749.751L878.92 411.426C895.869 384.302 887.621 348.575 860.497 331.626Z" stroke="white" stroke-opacity="0.9" stroke-width="7.66024" stroke-linejoin="round"/>
</g>
<g filter="url(#filter8_dd_144_343)">
<path d="M960.56 443.645L857.226 328.881C835.825 305.112 799.207 303.193 775.439 324.595L478.965 591.541C455.196 612.942 453.277 649.56 474.678 673.328L578.013 788.092C599.414 811.861 636.031 813.78 659.8 792.379L956.274 525.432C980.042 504.031 981.961 467.413 960.56 443.645Z" fill="url(#paint8_linear_144_343)"/>
<path d="M960.56 443.645L857.226 328.881C835.825 305.112 799.207 303.193 775.439 324.595L478.965 591.541C455.196 612.942 453.277 649.56 474.678 673.328L578.013 788.092C599.414 811.861 636.031 813.78 659.8 792.379L956.274 525.432C980.042 504.031 981.961 467.413 960.56 443.645Z" stroke="white" stroke-opacity="0.9" stroke-width="7.66024" stroke-linejoin="round"/>
</g>
<defs>
<filter id="filter0_d_144_343" x="8" y="12" width="1008" height="1008" filterUnits="userSpaceOnUse" color-interpolation-filters="sRGB">
<feFlood flood-opacity="0" result="BackgroundImageFix"/>
<feColorMatrix in="SourceAlpha" type="matrix" values="0 0 0 0 0 0 0 0 0 0 0 0 0 0 0 0 0 0 127 0" result="hardAlpha"/>
<feOffset dy="4"/>
<feGaussianBlur stdDeviation="2"/>
<feComposite in2="hardAlpha" operator="out"/>
<feColorMatrix type="matrix" values="0 0 0 0 0 0 0 0 0 0 0 0 0 0 0 0 0 0 0.25 0"/>
<feBlend mode="normal" in2="BackgroundImageFix" result="effect1_dropShadow_144_343"/>
<feBlend mode="normal" in="SourceGraphic" in2="effect1_dropShadow_144_343" result="shape"/>
</filter>
<filter id="filter1_d_144_343" x="9" y="12" width="1008" height="1008" filterUnits="userSpaceOnUse" color-interpolation-filters="sRGB">
<feFlood flood-opacity="0" result="BackgroundImageFix"/>
<feColorMatrix in="SourceAlpha" type="matrix" values="0 0 0 0 0 0 0 0 0 0 0 0 0 0 0 0 0 0 127 0" result="hardAlpha"/>
<feOffset dy="4"/>
<feGaussianBlur stdDeviation="2"/>
<feComposite in2="hardAlpha" operator="out"/>
<feColorMatrix type="matrix" values="0 0 0 0 0 0 0 0 0 0 0 0 0 0 0 0 0 0 0.25 0"/>
<feBlend mode="normal" in2="BackgroundImageFix" result="effect1_dropShadow_144_343"/>
<feBlend mode="normal" in="SourceGraphic" in2="effect1_dropShadow_144_343" result="shape"/>
</filter>
<filter id="filter2_dd_144_343" x="27.1206" y="296.104" width="558.52" height="540.422" filterUnits="userSpaceOnUse" color-interpolation-filters="sRGB">
<feFlood flood-opacity="0" result="BackgroundImageFix"/>
<feColorMatrix in="SourceAlpha" type="matrix" values="0 0 0 0 0 0 0 0 0 0 0 0 0 0 0 0 0 0 127 0" result="hardAlpha"/>
<feOffset dy="3.91414"/>
<feGaussianBlur stdDeviation="1.95707"/>
<feColorMatrix type="matrix" values="0 0 0 0 0 0 0 0 0 0 0 0 0 0 0 0 0 0 0.3 0"/>
<feBlend mode="normal" in2="BackgroundImageFix" result="effect1_dropShadow_144_343"/>
<feColorMatrix in="SourceAlpha" type="matrix" values="0 0 0 0 0 0 0 0 0 0 0 0 0 0 0 0 0 0 127 0" result="hardAlpha"/>
<feMorphology radius="5.87121" operator="dilate" in="SourceAlpha" result="effect2_dropShadow_144_343"/>
<feOffset dy="7.82828"/>
<feGaussianBlur stdDeviation="5.87121"/>
<feColorMatrix type="matrix" values="0 0 0 0 0 0 0 0 0 0 0 0 0 0 0 0 0 0 0.15 0"/>
<feBlend mode="normal" in2="effect1_dropShadow_144_343" result="effect2_dropShadow_144_343"/>
<feBlend mode="normal" in="SourceGraphic" in2="effect2_dropShadow_144_343" result="shape"/>
</filter>
<filter id="filter3_dd_144_343" x="114.827" y="227.367" width="501.1" height="578.888" filterUnits="userSpaceOnUse" color-interpolation-filters="sRGB">
<feFlood flood-opacity="0" result="BackgroundImageFix"/>
<feColorMatrix in="SourceAlpha" type="matrix" values="0 0 0 0 0 0 0 0 0 0 0 0 0 0 0 0 0 0 127 0" result="hardAlpha"/>
<feOffset dy="3.91414"/>
<feGaussianBlur stdDeviation="1.95707"/>
<feColorMatrix type="matrix" values="0 0 0 0 0 0 0 0 0 0 0 0 0 0 0 0 0 0 0.3 0"/>
<feBlend mode="normal" in2="BackgroundImageFix" result="effect1_dropShadow_144_343"/>
<feColorMatrix in="SourceAlpha" type="matrix" values="0 0 0 0 0 0 0 0 0 0 0 0 0 0 0 0 0 0 127 0" result="hardAlpha"/>
<feMorphology radius="5.87121" operator="dilate" in="SourceAlpha" result="effect2_dropShadow_144_343"/>
<feOffset dy="7.82828"/>
<feGaussianBlur stdDeviation="5.87121"/>
<feColorMatrix type="matrix" values="0 0 0 0 0 0 0 0 0 0 0 0 0 0 0 0 0 0 0.15 0"/>
<feBlend mode="normal" in2="effect1_dropShadow_144_343" result="effect2_dropShadow_144_343"/>
<feBlend mode="normal" in="SourceGraphic" in2="effect2_dropShadow_144_343" result="shape"/>
</filter>
<filter id="filter4_dd_144_343" x="227.157" y="193.086" width="417.155" height="584.8" filterUnits="userSpaceOnUse" color-interpolation-filters="sRGB">
<feFlood flood-opacity="0" result="BackgroundImageFix"/>
<feColorMatrix in="SourceAlpha" type="matrix" values="0 0 0 0 0 0 0 0 0 0 0 0 0 0 0 0 0 0 127 0" result="hardAlpha"/>
<feOffset dy="3.91414"/>
<feGaussianBlur stdDeviation="1.95707"/>
<feColorMatrix type="matrix" values="0 0 0 0 0 0 0 0 0 0 0 0 0 0 0 0 0 0 0.3 0"/>
<feBlend mode="normal" in2="BackgroundImageFix" result="effect1_dropShadow_144_343"/>
<feColorMatrix in="SourceAlpha" type="matrix" values="0 0 0 0 0 0 0 0 0 0 0 0 0 0 0 0 0 0 127 0" result="hardAlpha"/>
<feMorphology radius="5.87121" operator="dilate" in="SourceAlpha" result="effect2_dropShadow_144_343"/>
<feOffset dy="7.82828"/>
<feGaussianBlur stdDeviation="5.87121"/>
<feColorMatrix type="matrix" values="0 0 0 0 0 0 0 0 0 0 0 0 0 0 0 0 0 0 0.15 0"/>
<feBlend mode="normal" in2="effect1_dropShadow_144_343" result="effect2_dropShadow_144_343"/>
<feBlend mode="normal" in="SourceGraphic" in2="effect2_dropShadow_144_343" result="shape"/>
</filter>
<filter id="filter5_dd_144_343" x="355.429" y="195.939" width="313.141" height="557.656" filterUnits="userSpaceOnUse" color-interpolation-filters="sRGB">
<feFlood flood-opacity="0" result="BackgroundImageFix"/>
<feColorMatrix in="SourceAlpha" type="matrix" values="0 0 0 0 0 0 0 0 0 0 0 0 0 0 0 0 0 0 127 0" result="hardAlpha"/>
<feOffset dy="3.91414"/>
<feGaussianBlur stdDeviation="1.95707"/>
<feColorMatrix type="matrix" values="0 0 0 0 0 0 0 0 0 0 0 0 0 0 0 0 0 0 0.3 0"/>
<feBlend mode="normal" in2="BackgroundImageFix" result="effect1_dropShadow_144_343"/>
<feColorMatrix in="SourceAlpha" type="matrix" values="0 0 0 0 0 0 0 0 0 0 0 0 0 0 0 0 0 0 127 0" result="hardAlpha"/>
<feMorphology radius="5.87121" operator="dilate" in="SourceAlpha" result="effect2_dropShadow_144_343"/>
<feOffset dy="7.82828"/>
<feGaussianBlur stdDeviation="5.87121"/>
<feColorMatrix type="matrix" values="0 0 0 0 0 0 0 0 0 0 0 0 0 0 0 0 0 0 0.15 0"/>
<feBlend mode="normal" in2="effect1_dropShadow_144_343" result="effect2_dropShadow_144_343"/>
<feBlend mode="normal" in="SourceGraphic" in2="effect2_dropShadow_144_343" result="shape"/>
</filter>
<filter id="filter6_dd_144_343" x="379.688" y="193.086" width="417.155" height="584.8" filterUnits="userSpaceOnUse" color-interpolation-filters="sRGB">
<feFlood flood-opacity="0" result="BackgroundImageFix"/>
<feColorMatrix in="SourceAlpha" type="matrix" values="0 0 0 0 0 0 0 0 0 0 0 0 0 0 0 0 0 0 127 0" result="hardAlpha"/>
<feOffset dy="3.91414"/>
<feGaussianBlur stdDeviation="1.95707"/>
<feColorMatrix type="matrix" values="0 0 0 0 0 0 0 0 0 0 0 0 0 0 0 0 0 0 0.3 0"/>
<feBlend mode="normal" in2="BackgroundImageFix" result="effect1_dropShadow_144_343"/>
<feColorMatrix in="SourceAlpha" type="matrix" values="0 0 0 0 0 0 0 0 0 0 0 0 0 0 0 0 0 0 127 0" result="hardAlpha"/>
<feMorphology radius="5.87121" operator="dilate" in="SourceAlpha" result="effect2_dropShadow_144_343"/>
<feOffset dy="7.82828"/>
<feGaussianBlur stdDeviation="5.87121"/>
<feColorMatrix type="matrix" values="0 0 0 0 0 0 0 0 0 0 0 0 0 0 0 0 0 0 0.15 0"/>
<feBlend mode="normal" in2="effect1_dropShadow_144_343" result="effect2_dropShadow_144_343"/>
<feBlend mode="normal" in="SourceGraphic" in2="effect2_dropShadow_144_343" result="shape"/>
</filter>
<filter id="filter7_dd_144_343" x="408.072" y="227.367" width="501.1" height="578.888" filterUnits="userSpaceOnUse" color-interpolation-filters="sRGB">
<feFlood flood-opacity="0" result="BackgroundImageFix"/>
<feColorMatrix in="SourceAlpha" type="matrix" values="0 0 0 0 0 0 0 0 0 0 0 0 0 0 0 0 0 0 127 0" result="hardAlpha"/>
<feOffset dy="3.91414"/>
<feGaussianBlur stdDeviation="1.95707"/>
<feColorMatrix type="matrix" values="0 0 0 0 0 0 0 0 0 0 0 0 0 0 0 0 0 0 0.3 0"/>
<feBlend mode="normal" in2="BackgroundImageFix" result="effect1_dropShadow_144_343"/>
<feColorMatrix in="SourceAlpha" type="matrix" values="0 0 0 0 0 0 0 0 0 0 0 0 0 0 0 0 0 0 127 0" result="hardAlpha"/>
<feMorphology radius="5.87121" operator="dilate" in="SourceAlpha" result="effect2_dropShadow_144_343"/>
<feOffset dy="7.82828"/>
<feGaussianBlur stdDeviation="5.87121"/>
<feColorMatrix type="matrix" values="0 0 0 0 0 0 0 0 0 0 0 0 0 0 0 0 0 0 0.15 0"/>
<feBlend mode="normal" in2="effect1_dropShadow_144_343" result="effect2_dropShadow_144_343"/>
<feBlend mode="normal" in="SourceGraphic" in2="effect2_dropShadow_144_343" result="shape"/>
</filter>
<filter id="filter8_dd_144_343" x="438.359" y="296.104" width="558.52" height="540.422" filterUnits="userSpaceOnUse" color-interpolation-filters="sRGB">
<feFlood flood-opacity="0" result="BackgroundImageFix"/>
<feColorMatrix in="SourceAlpha" type="matrix" values="0 0 0 0 0 0 0 0 0 0 0 0 0 0 0 0 0 0 127 0" result="hardAlpha"/>
<feOffset dy="3.91414"/>
<feGaussianBlur stdDeviation="1.95707"/>
<feColorMatrix type="matrix" values="0 0 0 0 0 0 0 0 0 0 0 0 0 0 0 0 0 0 0.3 0"/>
<feBlend mode="normal" in2="BackgroundImageFix" result="effect1_dropShadow_144_343"/>
<feColorMatrix in="SourceAlpha" type="matrix" values="0 0 0 0 0 0 0 0 0 0 0 0 0 0 0 0 0 0 127 0" result="hardAlpha"/>
<feMorphology radius="5.87121" operator="dilate" in="SourceAlpha" result="effect2_dropShadow_144_343"/>
<feOffset dy="7.82828"/>
<feGaussianBlur stdDeviation="5.87121"/>
<feColorMatrix type="matrix" values="0 0 0 0 0 0 0 0 0 0 0 0 0 0 0 0 0 0 0.15 0"/>
<feBlend mode="normal" in2="effect1_dropShadow_144_343" result="effect2_dropShadow_144_343"/>
<feBlend mode="normal" in="SourceGraphic" in2="effect2_dropShadow_144_343" result="shape"/>
</filter>
<linearGradient id="paint0_linear_144_343" x1="239.752" y1="-51.744" x2="304.953" y2="1058.7" gradientUnits="userSpaceOnUse">
<stop stop-color="white"/>
</linearGradient>
<linearGradient id="paint1_linear_144_343" x1="240.752" y1="-51.744" x2="305.953" y2="1058.7" gradientUnits="userSpaceOnUse">
<stop offset="0.0625" stop-color="white"/>
<stop offset="0.783654" stop-color="#E9E9E9"/>
</linearGradient>
<linearGradient id="paint2_linear_144_343" x1="24.6895" y1="486.682" x2="407.237" y2="831.129" gradientUnits="userSpaceOnUse">
<stop stop-color="#FFC0C0"/>
<stop offset="0.18" stop-color="#FF7A7A"/>
<stop offset="1" stop-color="#EF2730"/>
</linearGradient>
<linearGradient id="paint3_linear_144_343" x1="114.391" y1="362.314" x2="387.176" y2="798.863" gradientUnits="userSpaceOnUse">
<stop stop-color="#FFE0B0"/>
<stop offset="0.18" stop-color="#FFB454"/>
<stop offset="1" stop-color="#F77F00"/>
</linearGradient>
<linearGradient id="paint4_linear_144_343" x1="234.897" y1="267.49" x2="376.787" y2="762.317" gradientUnits="userSpaceOnUse">
<stop stop-color="#FFF3B0"/>
<stop offset="0.18" stop-color="#FFE14D"/>
<stop offset="1" stop-color="#F5B800"/>
</linearGradient>
<linearGradient id="paint5_linear_144_343" x1="376.873" y1="209.555" x2="376.873" y2="724.323" gradientUnits="userSpaceOnUse">
<stop stop-color="#C2F7D4"/>
<stop offset="0.18" stop-color="#5CE08A"/>
<stop offset="1" stop-color="#1BB257"/>
</linearGradient>
<linearGradient id="paint6_linear_144_343" x1="529.318" y1="192.998" x2="387.428" y2="687.825" gradientUnits="userSpaceOnUse">
<stop stop-color="#C4F2FB"/>
<stop offset="0.18" stop-color="#4FD8F0"/>
<stop offset="1" stop-color="#12AECE"/>
</linearGradient>
<linearGradient id="paint7_linear_144_343" x1="680.421" y1="219.102" x2="407.635" y2="655.65" gradientUnits="userSpaceOnUse">
<stop stop-color="#BFD6FF"/>
<stop offset="0.18" stop-color="#5B9BFF"/>
<stop offset="1" stop-color="#1F5FE0"/>
</linearGradient>
<linearGradient id="paint8_linear_144_343" x1="818.476" y1="285.844" x2="435.928" y2="630.291" gradientUnits="userSpaceOnUse">
<stop stop-color="#C9A9FF"/>
<stop offset="0.18" stop-color="#9D6BFF"/>
<stop offset="1" stop-color="#B026C8"/>
</linearGradient>
</defs>
</svg>
