<?xml version="1.0" encoding="UTF-8"?><svg id="ReDesign_PMPC" xmlns="http://www.w3.org/2000/svg" viewBox="0 0 1024 1024"><defs><style>.cls-1{fill:#010000;}</style></defs><path class="cls-1" d="M410.24282,143.86309l83.59302-83.87152c12.5896-12.63257,29.09277-18.94879,45.59619-18.94879s33.00684,6.31622,45.59644,18.94879l150.86743,151.37067c25.1748,25.25769,25.1748,66.20288,0,91.46301l-82.71802,82.99188-22.78369-22.47083,82.83691-83.11102c12.71753-12.76056,12.71777-33.52332.00024-46.28296l-150.86792-151.37103c-6.13037-6.15131-14.27393-9.53851-22.9314-9.53851s-16.80078,3.38721-22.93018,9.5376l-83.6311,83.9093-22.62793-22.62659ZM992.20327,465.77905l-150.86768-151.37152c-12.5896-12.63232-29.09302-18.94849-45.59619-18.94849s-33.00684,6.31616-45.59644,18.94849l-83.95801,84.23822,22.78369,22.47083,83.84009-84.12006c6.12964-6.15027,14.27319-9.53748,22.93066-9.53748s16.80078,3.38721,22.93115,9.53827l150.8689,151.3728c12.71753,12.75836,12.71655,33.52081-.00098,46.28156l-150.87061,151.36987c-6.12939,6.15118-14.27222,9.53882-22.92847,9.53882s-16.79932-3.38763-22.93164-9.54175l-81.66748-81.9375-22.84155,22.41248,81.84424,82.11505c12.5896,12.63452,29.09302,18.95178,45.59644,18.95178s33.00659-6.31726,45.59619-18.95178l150.86768-151.36694c25.17456-25.26013,25.17456-66.20709,0-91.46265ZM653.63686,640.88l-22.8418,22.41248,82.59863,82.87476c12.71777,12.75836,12.7168,33.52063-.00098,46.28143l-150.87036,151.36987c-6.12939,6.15137-14.27222,9.53894-22.92871,9.53894s-16.79932-3.38757-22.93164-9.54175l-84.12231-84.4007-22.72119,22.53369,84.17871,84.45703c12.5896,12.63446,29.09302,18.95166,45.59644,18.95166s33.00684-6.3172,45.59644-18.95166l150.86743-151.36707c25.17456-25.26001,25.17456-66.20709,0-91.46252l-82.42065-82.69617ZM708.52041,489.43383l-150.53809-148.4707L251.02138,34.02221c-6.20801-6.20703-16.25684-6.25195-22.52148-.10449L62.9247,196.44702c-3.06543,3.00879-4.79199,7.12354-4.79199,11.41846s1.72656,8.40967,4.79199,11.41797l298.2002,292.71875L62.92568,804.71655c-3.06543,3.00879-4.79199,7.12354-4.79199,11.41846s1.72656,8.40967,4.79199,11.41797l165.57422,162.5293c3.1123,3.05518,7.16016,4.58203,11.20801,4.58154,4.07422-.00049,8.14941-1.54785,11.2666-4.63965l307.8252-305.28711,149.69629-146.88379c6.57227-6.4541,10.19238-15.05615,10.19238-24.2207,0-9.16504-3.62012-17.76758-10.16797-24.19873ZM535.46669,363.70239l47.69141,47.03644-20.79736,20.86633c-6.12939,6.15131-14.27222,9.53894-22.92871,9.53894s-16.79907-3.38763-22.9314-9.54187l-150.86694-151.36572c-12.71802-12.76147-12.71851-33.52472-.00122-46.28455l20.00342-20.07013,149.75269,149.74292c.02637.02588.05176.05176.07812.07764ZM239.65029,956.18676l-142.67578-140.05176,298.19922-292.71484c3.06543-3.0083,4.79199-7.12305,4.79199-11.41797s-1.72656-8.40967-4.79199-11.41797L96.97353,207.86548,239.60341,67.85864l123.40454,123.39661-20.04028,20.10699c-25.17407,25.25769-25.17407,66.20288,0,91.46301l150.86816,151.36694c12.5896,12.63464,29.09277,18.9519,45.59619,18.9519s33.00684-6.31726,45.59644-18.9519l20.91333-20.98273,13.00806,12.82928-19.67456,19.7403c-25.17456,25.25555-25.17456,66.20251,0,91.46265l21.64185,21.7135-14.66113,14.38574-21.06592-21.13635c-12.5896-12.63226-29.09302-18.94843-45.59644-18.94843s-33.00684,6.31616-45.59644,18.94843l-150.86792,151.37158c-25.17407,25.25543-25.17407,66.20251,0,91.46252l19.30884,19.37268-122.78784,121.77539ZM536.32705,661.9563l-151.16797,149.92151-19.36377-19.42792c-12.71851-12.76202-12.71948-33.52441-.00098-46.284l150.86841-151.37225c6.12964-6.15027,14.27344-9.53748,22.93091-9.53748s16.80127,3.38721,22.9314,9.53802l20.8894,20.95917-47.0874,46.20294ZM686.079,515.01733l-42.32031,41.52527-21.81763-21.88983c-12.71851-12.76184-12.71948-33.52429-.00073-46.284l19.79321-19.85925,44.34058,43.73145c.40723.3999.61426.86816.61426,1.39062s-.20703.99072-.60938,1.38574Z"/></svg>